<?xml version="1.0" encoding="UTF-8" standalone="no"?>
<svg
   width="82.113037pt"
   height="82.113037pt"
   version="1.1"
   viewBox="0 0 82.113036 82.113036"
   id="svg105"
   sodipodi:docname="height.svg"
   inkscape:version="1.1.1 (1:1.1+202109281949+c3084ef5ed)"
   xmlns:inkscape="http://www.inkscape.org/namespaces/inkscape"
   xmlns:sodipodi="http://sodipodi.sourceforge.net/DTD/sodipodi-0.dtd"
   xmlns="http://www.w3.org/2000/svg"
   xmlns:svg="http://www.w3.org/2000/svg">
  <sodipodi:namedview
     id="namedview107"
     pagecolor="#ffffff"
     bordercolor="#666666"
     borderopacity="1.0"
     inkscape:pageshadow="2"
     inkscape:pageopacity="0.0"
     inkscape:pagecheckerboard="0"
     inkscape:document-units="pt"
     showgrid="false"
     fit-margin-top="0"
     fit-margin-left="0"
     fit-margin-right="0"
     fit-margin-bottom="0"
     inkscape:zoom="0.44839286"
     inkscape:cx="-186.22063"
     inkscape:cy="4.4603744"
     inkscape:window-width="1920"
     inkscape:window-height="1009"
     inkscape:window-x="0"
     inkscape:window-y="34"
     inkscape:window-maximized="1"
     inkscape:current-layer="g103" />
  <defs
     id="defs53">
    <symbol
       id="q"
       overflow="visible">
      <path
         d="m 29.312,-1.75 c -1.5117,0.78125 -3.0898,1.3711 -4.7344,1.7656 -1.6367,0.40625 -3.3398,0.60938 -5.1094,0.60938 -5.3125,0 -9.5273,-1.4844 -12.641,-4.4531 -3.1055,-2.9688 -4.6562,-7 -4.6562,-12.094 0,-5.094 1.5508,-9.125 4.6562,-12.094 3.1133,-2.9688 7.3281,-4.4531 12.641,-4.4531 1.7695,0 3.4727,0.19922 5.1094,0.59375 1.6445,0.39844 3.2227,0.99219 4.7344,1.7812 v 6.5938 c -1.5312,-1.0391 -3.0391,-1.8008 -4.5156,-2.2812 -1.4805,-0.48828 -3.0391,-0.73438 -4.6719,-0.73438 -2.9375,0 -5.2461,0.94531 -6.9219,2.8281 -1.6797,1.875 -2.5156,4.4648 -2.5156,7.7656 0,3.293 0.83594,5.8828 2.5156,7.7656 1.6758,1.875 3.9844,2.8125 6.9219,2.8125 1.6328,0 3.1914,-0.23828 4.6719,-0.71875 1.4766,-0.48828 2.9844,-1.2539 4.5156,-2.2969 z"
         id="path2" />
    </symbol>
    <symbol
       id="d"
       overflow="visible">
      <path
         d="m 21.453,-17.406 c -0.67969,-0.3125 -1.3516,-0.53906 -2.0156,-0.6875 -0.65625,-0.15625 -1.3203,-0.23438 -1.9844,-0.23438 -1.9688,0 -3.4844,0.63281 -4.5469,1.8906 -1.0547,1.2617 -1.5781,3.0703 -1.5781,5.4219 V 6.2e-4 H 3.6718 v -23.922 h 7.6562 v 3.9219 c 0.97656,-1.5625 2.1016,-2.7031 3.375,-3.4219 1.2812,-0.71875 2.8125,-1.0781 4.5938,-1.0781 0.25,0 0.52344,0.01172 0.82812,0.03125 0.30078,0.02344 0.73438,0.07031 1.2969,0.14062 z"
         id="path5" />
    </symbol>
    <symbol
       id="a"
       overflow="visible">
      <path
         d="m 27.562,-12.031 v 2.1875 H 9.671 c 0.1875,1.793 0.83203,3.1367 1.9375,4.0312 1.1133,0.89844 2.6719,1.3438 4.6719,1.3438 1.6016,0 3.25,-0.23438 4.9375,-0.70312 1.6875,-0.47656 3.4219,-1.2031 5.2031,-2.1719 v 5.8906 c -1.8047,0.6875 -3.6094,1.2031 -5.4219,1.5469 -1.8125,0.35156 -3.6211,0.53125 -5.4219,0.53125 -4.3359,0 -7.7031,-1.0977 -10.109,-3.2969 -2.3984,-2.207 -3.5938,-5.2969 -3.5938,-9.2656 0,-3.9062 1.1758,-6.9727 3.5312,-9.2031 2.3633,-2.2383 5.6094,-3.3594 9.7344,-3.3594 3.7578,0 6.7695,1.1367 9.0312,3.4062 2.2578,2.2617 3.3906,5.2812 3.3906,9.0625 z m -7.8594,-2.5312 c 0,-1.457 -0.42969,-2.6289 -1.2812,-3.5156 -0.84375,-0.89453 -1.9492,-1.3438 -3.3125,-1.3438 -1.4922,0 -2.6992,0.41797 -3.625,1.25 -0.91797,0.83594 -1.4922,2.0391 -1.7188,3.6094 z"
         id="path8" />
    </symbol>
    <symbol
       id="c"
       overflow="visible">
      <path
         d="m 14.391,-10.766 c -1.5938,0 -2.793,0.27344 -3.5938,0.8125 -0.80469,0.54297 -1.2031,1.3398 -1.2031,2.3906 0,0.96875 0.32031,1.7305 0.96875,2.2812 0.64453,0.54297 1.5469,0.8125 2.7031,0.8125 1.4375,0 2.6445,-0.51562 3.625,-1.5469 0.98828,-1.0312 1.4844,-2.3203 1.4844,-3.875 v -0.875 z m 11.688,-2.8906 V -6e-4 h -7.7031 v -3.5469 c -1.0312,1.4492 -2.1875,2.5078 -3.4688,3.1719 -1.2813,0.6641 -2.8398,1 -4.6719,1 -2.4805,0 -4.4961,-0.72266 -6.0469,-2.1719 -1.543,-1.4453 -2.3125,-3.3203 -2.3125,-5.625 0,-2.8125 0.96094,-4.8672 2.8906,-6.1719 1.9375,-1.3125 4.9688,-1.9688 9.0938,-1.9688 h 4.5156 v -0.60938 c 0,-1.207 -0.48047,-2.0938 -1.4375,-2.6562 -0.94922,-0.5625 -2.4375,-0.84375 -4.4688,-0.84375 -1.6367,0 -3.1562,0.16797 -4.5625,0.5 -1.4062,0.32422 -2.7188,0.8125 -3.9375,1.4688 v -5.8281 c 1.6445,-0.40625 3.2891,-0.70703 4.9375,-0.90625 1.6562,-0.20703 3.3047,-0.3125 4.9531,-0.3125 4.3203,0 7.4375,0.85547 9.3438,2.5625 1.9141,1.6992 2.875,4.4609 2.875,8.2812 z"
         id="path11" />
    </symbol>
    <symbol
       id="b"
       overflow="visible">
      <path
         d="m 12.031,-30.719 v 6.7969 h 7.875 v 5.4688 h -7.875 v 10.141 c 0,1.1172 0.21875,1.8711 0.65625,2.2656 0.4375,0.38672 1.3125,0.57812 2.625,0.57812 h 3.9375 v 5.4688 h -6.5625 c -3.0234,0 -5.1641,-0.62891 -6.4219,-1.8906 -1.2617,-1.2578 -1.8906,-3.3984 -1.8906,-6.4219 v -10.141 h -3.7969 v -5.4688 h 3.7969 v -6.7969 z"
         id="path14" />
    </symbol>
    <symbol
       id="h"
       overflow="visible">
      <path
         d="m 19.953,-20.422 v -12.812 h 7.6875 V 0 H 19.953 v -3.4531 c -1.0547,1.4062 -2.2148,2.4375 -3.4844,3.0938 -1.2734,0.65625 -2.7422,0.98438 -4.4062,0.98438 -2.9492,0 -5.3711,-1.1719 -7.2656,-3.5156 -1.8867,-2.3438 -2.8281,-5.3594 -2.8281,-9.0469 0,-3.6875 0.94141,-6.7031 2.8281,-9.0469 1.8945,-2.3438 4.3164,-3.5156 7.2656,-3.5156 1.6562,0 3.1172,0.33594 4.3906,1 1.2812,0.65625 2.4453,1.6836 3.5,3.0781 z m -5.0469,15.484 c 1.6445,0 2.8945,-0.59766 3.75,-1.7969 0.86328,-1.1953 1.2969,-2.9297 1.2969,-5.2031 0,-2.2812 -0.43359,-4.0195 -1.2969,-5.2188 -0.85547,-1.1953 -2.1055,-1.7969 -3.75,-1.7969 -1.625,0 -2.8711,0.60156 -3.7344,1.7969 -0.85547,1.1992 -1.2812,2.9375 -1.2812,5.2188 0,2.2734 0.42578,4.0078 1.2812,5.2031 0.86328,1.1992 2.1094,1.7969 3.7344,1.7969 z"
         id="path17" />
    </symbol>
    <symbol
       id="g"
       overflow="visible">
      <path
         d="m 16.406,-4.9375 c 1.6328,0 2.8828,-0.59766 3.75,-1.7969 0.86328,-1.1953 1.2969,-2.9297 1.2969,-5.2031 0,-2.2812 -0.43359,-4.0195 -1.2969,-5.2188 -0.86719,-1.1953 -2.1172,-1.7969 -3.75,-1.7969 -1.6367,0 -2.8906,0.60547 -3.7656,1.8125 -0.875,1.1992 -1.3125,2.9336 -1.3125,5.2031 0,2.2617 0.4375,3.9961 1.3125,5.2031 0.875,1.1992 2.1289,1.7969 3.7656,1.7969 z m -5.0781,-15.484 c 1.0508,-1.3945 2.2188,-2.4219 3.5,-3.0781 1.2812,-0.66406 2.7539,-1 4.4219,-1 2.9453,0 5.3672,1.1719 7.2656,3.5156 1.8945,2.3438 2.8438,5.3594 2.8438,9.0469 0,3.6875 -0.94922,6.7031 -2.8438,9.0469 -1.8984,2.3438 -4.3203,3.5156 -7.2656,3.5156 -1.668,0 -3.1406,-0.33594 -4.4219,-1 -1.2813,-0.66406 -2.4492,-1.6914 -3.5,-3.0781 V 4e-4 H 3.6717 v -33.234 h 7.6562 z"
         id="path20" />
    </symbol>
    <symbol
       id="f"
       overflow="visible">
      <path
         d="m 0.53125,-23.922 h 7.6562 l 6.4219,16.234 5.4688,-16.234 h 7.6562 l -10.062,26.188 c -1.0117,2.6641 -2.1953,4.5234 -3.5469,5.5781 -1.3438,1.0625 -3.1211,1.5938 -5.3281,1.5938 H 4.37545 V 4.4223 h 2.3906 c 1.3008,0 2.2422,-0.21094 2.8281,-0.625 0.59375,-0.40625 1.0547,-1.1484 1.3906,-2.2188 l 0.20312,-0.65625 z"
         id="path23" />
    </symbol>
    <symbol
       id="e"
       overflow="visible">
      <path
         d="m 15.703,-17.75 c 1.7188,0 2.9531,-0.31641 3.7031,-0.95312 0.75,-0.64453 1.125,-1.7031 1.125,-3.1719 0,-1.4453 -0.375,-2.4844 -1.125,-3.1094 -0.75,-0.63281 -1.9844,-0.95312 -3.7031,-0.95312 h -3.4688 v 8.1875 z m -3.4688,5.6875 V -5e-4 H 4.0154 v -31.891 h 12.562 c 4.1953,0 7.2734,0.70312 9.2344,2.1094 1.957,1.4062 2.9375,3.6367 2.9375,6.6875 0,2.1055 -0.51172,3.8359 -1.5312,5.1875 -1.0117,1.3555 -2.543,2.3555 -4.5938,3 1.125,0.25 2.1289,0.82812 3.0156,1.7344 0.89453,0.90625 1.7969,2.2773 2.7031,4.1094 l 4.4688,9.0625 h -8.7656 l -3.875,-7.9219 c -0.79297,-1.5938 -1.5898,-2.6797 -2.3906,-3.2656 -0.80469,-0.58203 -1.875,-0.875 -3.2188,-0.875 z"
         id="path26" />
    </symbol>
    <symbol
       id="p"
       overflow="visible">
      <path
         d="m 3.6719,-33.234 h 7.6562 V 0 H 3.6719 Z"
         id="path29" />
    </symbol>
    <symbol
       id="o"
       overflow="visible">
      <path
         d="m 19.422,-33.234 v 5.0156 h -4.2344 c -1.0859,0 -1.8398,0.19922 -2.2656,0.59375 -0.42969,0.38672 -0.64062,1.0625 -0.64062,2.0312 v 1.6719 h 6.5312 v 5.4688 h -6.5312 v 18.453 h -7.6406 v -18.453 h -3.8125 v -5.4688 h 3.8125 v -1.6719 c 0,-2.6016 0.72266,-4.5234 2.1719,-5.7656 1.457,-1.25 3.707,-1.875 6.75,-1.875 z"
         id="path32" />
    </symbol>
    <symbol
       id="n"
       overflow="visible">
      <path
         d="m 26.219,-30.891 v 6.75 c -1.7617,-0.78125 -3.4766,-1.3672 -5.1406,-1.7656 -1.668,-0.40625 -3.2422,-0.60938 -4.7188,-0.60938 -1.9609,0 -3.4141,0.27344 -4.3594,0.8125 -0.9375,0.54297 -1.4062,1.3867 -1.4062,2.5312 0,0.85547 0.31641,1.5234 0.95312,2 0.63281,0.46875 1.7852,0.875 3.4531,1.2188 l 3.5,0.70312 c 3.5391,0.71875 6.0625,1.8047 7.5625,3.25 1.5,1.4492 2.25,3.5117 2.25,6.1875 0,3.5234 -1.0469,6.1406 -3.1406,7.8594 -2.0859,1.7188 -5.2734,2.5781 -9.5625,2.5781 -2.0234,0 -4.0547,-0.19531 -6.0938,-0.57812 -2.0312,-0.38281 -4.0625,-0.95703 -6.0938,-1.7188 v -6.9375 c 2.0312,1.0859 3.9922,1.9023 5.8906,2.4531 1.9062,0.54297 3.7422,0.8125 5.5156,0.8125 1.7891,0 3.1602,-0.29688 4.1094,-0.89062 0.95703,-0.60156 1.4375,-1.457 1.4375,-2.5625 0,-1 -0.32422,-1.7695 -0.96875,-2.3125 -0.64844,-0.53906 -1.9375,-1.0234 -3.875,-1.4531 l -3.1875,-0.70312 c -3.1875,-0.6875 -5.5234,-1.7734 -7,-3.2656 -1.4688,-1.5 -2.2031,-3.5156 -2.2031,-6.0469 0,-3.1758 1.0234,-5.6172 3.0781,-7.3281 2.0508,-1.707 5,-2.5625 8.8438,-2.5625 1.75,0 3.5508,0.13281 5.4062,0.39062 1.8516,0.26172 3.7695,0.65625 5.75,1.1875 z"
         id="path35" />
    </symbol>
    <symbol
       id="m"
       overflow="visible">
      <path
         d="m 23,-23.172 v 6.2344 c -1.0312,-0.71875 -2.0742,-1.2422 -3.125,-1.5781 -1.043,-0.34375 -2.125,-0.51562 -3.25,-0.51562 -2.1367,0 -3.8047,0.625 -5,1.875 -1.1875,1.2422 -1.7812,2.9805 -1.7812,5.2188 0,2.2305 0.59375,3.9688 1.7812,5.2188 1.1953,1.25 2.8633,1.875 5,1.875 1.1953,0 2.332,-0.17578 3.4062,-0.53125 1.0703,-0.36328 2.0625,-0.89453 2.9688,-1.5938 v 6.2656 c -1.1875,0.4375 -2.4023,0.76562 -3.6406,0.98438 -1.2305,0.22656 -2.4648,0.34375 -3.7031,0.34375 -4.3125,0 -7.6875,-1.1094 -10.125,-3.3281 -2.4375,-2.2187 -3.6562,-5.2969 -3.6562,-9.2344 0,-3.9453 1.2188,-7.0234 3.6562,-9.2344 2.4375,-2.2188 5.8125,-3.3281 10.125,-3.3281 1.25,0 2.4844,0.10938 3.7031,0.32812 1.2187,0.21874 2.4297,0.55469 3.6406,1 z"
         id="path38" />
    </symbol>
    <symbol
       id="l"
       overflow="visible">
      <path
         d="M 27.734,-14.562 V 0 h -7.7031 v -11.109 c 0,-2.0938 -0.04687,-3.5312 -0.14062,-4.3125 -0.08594,-0.78125 -0.24219,-1.3594 -0.46875,-1.7344 -0.30469,-0.5 -0.71094,-0.88281 -1.2188,-1.1562 -0.51172,-0.28125 -1.0938,-0.42188 -1.75,-0.42188 -1.5938,0 -2.8516,0.61719 -3.7656,1.8438 -0.90625,1.2305 -1.3594,2.9375 -1.3594,5.125 v 11.766 h -7.6562 v -33.234 h 7.6562 v 12.812 c 1.1445,-1.3945 2.3633,-2.4219 3.6562,-3.0781 1.3008,-0.66406 2.7383,-1 4.3125,-1 2.7578,0 4.8516,0.85156 6.2812,2.5469 1.4375,1.6875 2.1562,4.1523 2.1562,7.3906 z"
         id="path41" />
    </symbol>
    <symbol
       id="k"
       overflow="visible">
      <path
         d="m 25.844,-19.953 c 0.96875,-1.4766 2.1172,-2.6016 3.4531,-3.375 1.332,-0.78125 2.7969,-1.1719 4.3906,-1.1719 2.75,0 4.8438,0.85156 6.2812,2.5469 1.4375,1.6875 2.1562,4.1523 2.1562,7.3906 V -4e-4 h -7.6875 v -12.469 c 0.0078,-0.1875 0.01953,-0.37891 0.03125,-0.57812 0.0078,-0.19531 0.01563,-0.48438 0.01563,-0.85938 0,-1.6953 -0.25,-2.9258 -0.75,-3.6875 -0.5,-0.75781 -1.3086,-1.1406 -2.4219,-1.1406 -1.4492,0 -2.5703,0.60156 -3.3594,1.7969 -0.79297,1.1992 -1.2031,2.9297 -1.2344,5.1875 v 11.75 h -7.6875 v -12.469 c 0,-2.6562 -0.23047,-4.3633 -0.6875,-5.125 -0.44922,-0.75781 -1.2578,-1.1406 -2.4219,-1.1406 -1.4688,0 -2.6055,0.60547 -3.4062,1.8125 -0.79297,1.1992 -1.1875,2.918 -1.1875,5.1562 V -5e-4 h -7.7031 v -23.922 h 7.7031 v 3.5 c 0.9375,-1.3516 2.0156,-2.3672 3.2344,-3.0469 1.2188,-0.6875 2.5547,-1.0312 4.0156,-1.0312 1.6562,0 3.1133,0.40234 4.375,1.2031 1.2695,0.79297 2.2344,1.9062 2.8906,3.3438 z"
         id="path44" />
    </symbol>
    <symbol
       id="j"
       overflow="visible">
      <path
         d="m 3.6719,-23.922 h 7.6562 V 0 H 3.6719 Z m 0,-9.3125 h 7.6562 v 6.2344 H 3.6719 Z"
         id="path47" />
    </symbol>
    <symbol
       id="i"
       overflow="visible">
      <path
         d="m 2.5,-23.922 h 20.875 v 5.3438 L 10.766,-5.4692 H 23.375 V -4e-4 H 1.969 v -5.3438 l 12.594,-13.109 H 2.501 Z"
         id="path50" />
    </symbol>
  </defs>
  <g
     id="g103"
     transform="translate(-308.94348,-238.94348)">
    <path
       d="m 355.40726,261.45653 c 0.32038,0.32038 0.74048,0.48095 1.16131,0.48095 0.4201,0 0.84093,-0.1613 1.16131,-0.48095 0.64225,-0.64078 0.64225,-1.68038 0,-2.32188 l -6.56753,-6.56903 c -0.61585,-0.61584 -1.70604,-0.61584 -2.32188,0 l -6.56754,6.56903 c -0.64224,0.64225 -0.64224,1.68185 0,2.32188 0.64225,0.64225 1.68038,0.64225 2.32188,0 l 3.76405,-3.76406 v 44.61881 l -3.76405,-3.76537 c -0.64225,-0.64225 -1.68039,-0.64225 -2.32188,0 -0.64224,0.64224 -0.64224,1.68037 0,2.32187 l 6.56754,6.56904 c 0.30645,0.30866 0.72582,0.48096 1.16058,0.48096 0.43549,0 0.85413,-0.1723 1.16131,-0.48096 l 6.56754,-6.56904 c 0.64225,-0.64224 0.64225,-1.68038 0,-2.32187 -0.64224,-0.64225 -1.68037,-0.64225 -2.32187,0 l -3.76406,3.76537 -5.1e-4,-44.61881 z"
       id="path55"
       style="stroke-width:0.187687" />
    <path
       d="m 350,238.94348 c -22.63879,0 -41.05652,18.41829 -41.05652,41.05652 0,22.63823 18.41829,41.05652 41.05652,41.05652 22.63823,0 41.05652,-18.41829 41.05652,-41.05652 0,-22.63823 -18.41829,-41.05652 -41.05652,-41.05652 z m 0,78.82851 c -20.82762,0 -37.77199,-16.94306 -37.77199,-37.77199 0,-20.82762 16.94456,-37.77199 37.77199,-37.77199 20.82949,0 37.77199,16.94456 37.77199,37.77199 0,20.82949 -16.94306,37.77199 -37.77199,37.77199 z"
       id="path57"
       style="stroke-width:0.187687" />
  </g>
</svg>
