<?xml version="1.0" encoding="UTF-8" standalone="no"?>
<svg
   width="84.062859pt"
   height="84.064743pt"
   version="1.1"
   viewBox="0 0 84.062859 84.064743"
   id="svg144"
   sodipodi:docname="time.svg"
   inkscape:version="1.1.1 (1:1.1+202109281949+c3084ef5ed)"
   xmlns:inkscape="http://www.inkscape.org/namespaces/inkscape"
   xmlns:sodipodi="http://sodipodi.sourceforge.net/DTD/sodipodi-0.dtd"
   xmlns="http://www.w3.org/2000/svg"
   xmlns:svg="http://www.w3.org/2000/svg">
  <sodipodi:namedview
     id="namedview146"
     pagecolor="#ffffff"
     bordercolor="#666666"
     borderopacity="1.0"
     inkscape:pageshadow="2"
     inkscape:pageopacity="0.0"
     inkscape:pagecheckerboard="0"
     inkscape:document-units="pt"
     showgrid="false"
     fit-margin-top="0"
     fit-margin-left="0"
     fit-margin-right="0"
     fit-margin-bottom="0"
     inkscape:zoom="0.44839286"
     inkscape:cx="126.00558"
     inkscape:cy="-49.064118"
     inkscape:window-width="1920"
     inkscape:window-height="1009"
     inkscape:window-x="0"
     inkscape:window-y="34"
     inkscape:window-maximized="1"
     inkscape:current-layer="g142" />
  <defs
     id="defs62">
    <symbol
       id="t"
       overflow="visible">
      <path
         d="M 3.75,-0.21875 C 3.55078,-0.125 3.34766,-0.05078 3.14062,0 2.92968,0.050781 2.71093,0.078125 2.48437,0.078125 c -0.67969,0 -1.2148,-0.1875 -1.6094,-0.5625 -0.39844,-0.38281 -0.59375,-0.89844 -0.59375,-1.5469 0,-0.65625 0.19531,-1.1719 0.59375,-1.5469 0.39453,-0.38281 0.92969,-0.57812 1.6094,-0.57812 0.22656,0 0.44531,0.027344 0.65625,0.078125 0.20703,0.054687 0.41016,0.13281 0.60938,0.23438 v 0.84375 C 3.55078,-3.13285 3.35938,-3.23442 3.17188,-3.29692 2.98438,-3.35942 2.78516,-3.39067 2.57813,-3.39067 c -0.375,0 -0.67188,0.12109 -0.89062,0.35938 -0.21875,0.24219 -0.32812,0.57422 -0.32812,1 0,0.41797 0.10938,0.74609 0.32812,0.98438 0.21875,0.24219 0.51562,0.35938 0.89062,0.35938 0.20703,0 0.40625,-0.03125 0.59375,-0.09375 0.1875,-0.0625 0.37891,-0.15625 0.57812,-0.28125 z"
         id="path2" />
    </symbol>
    <symbol
       id="c"
       overflow="visible">
      <path
         d="M 2.75,-2.2188 C 2.65625,-2.257862 2.56641,-2.289112 2.48438,-2.31255 2.398443,-2.332081 2.31641,-2.3438 2.23438,-2.3438 c -0.25,0 -0.44531,0.085938 -0.57812,0.25 -0.13672,0.15625 -0.20312,0.38672 -0.20312,0.6875 V -10e-5 H 0.46876 v -3.0625 h 0.98438 v 0.5 c 0.125,-0.19531 0.26562,-0.34375 0.42188,-0.4375 0.16406,-0.09375 0.36328,-0.14062 0.59375,-0.14062 0.03125,0 0.0625,0.00781 0.09375,0.015625 0.039062,0 0.097656,0.00781 0.17188,0.015625 z"
         id="path5" />
    </symbol>
    <symbol
       id="a"
       overflow="visible">
      <path
         d="m 3.5156,-1.5312 v 0.26562 H 1.2344 c 0.019531,0.23047 0.10156,0.40234 0.25,0.51562 0.14453,0.11719 0.34375,0.17188 0.59375,0.17188 0.20703,0 0.41406,-0.023437 0.625,-0.078125 0.21875,-0.0625 0.44141,-0.15625 0.67188,-0.28125 v 0.75 c -0.23047,0.09375 -0.46094,0.16406 -0.6875,0.20312 -0.23047,0.039062 -0.46484,0.0625 -0.70312,0.0625 -0.55469,0 -0.98438,-0.14062 -1.2969,-0.42188 -0.30469,-0.28125 -0.45312,-0.67578 -0.45312,-1.1875 0,-0.5 0.14844,-0.89062 0.45312,-1.1719 0.30078,-0.28906 0.71875,-0.4375 1.25,-0.4375 0.47656,0 0.85938,0.14844 1.1406,0.4375 0.28906,0.29297 0.4375,0.68359 0.4375,1.1719 z m -1,-0.32812 c 0,-0.1875 -0.058594,-0.33594 -0.17188,-0.45312 -0.10547,-0.11328 -0.24219,-0.17188 -0.40625,-0.17188 -0.19922,0 -0.35547,0.058594 -0.46875,0.17188 -0.11719,0.10547 -0.1875,0.25781 -0.21875,0.45312 z"
         id="path8" />
    </symbol>
    <symbol
       id="l"
       overflow="visible">
      <path
         d="m 1.8438,-1.375 c -0.21094,0 -0.36719,0.039062 -0.46875,0.10938 -0.10547,0.0625 -0.15625,0.16406 -0.15625,0.29688 0,0.125 0.039062,0.22656 0.125,0.29688 0.082031,0.0625 0.20312,0.09375 0.35938,0.09375 0.17578,0 0.32812,-0.0625 0.45312,-0.1875 0.125,-0.13281 0.1875,-0.30078 0.1875,-0.5 V -1.37499 Z M 3.3282,-1.75 V 0 H 2.34382 v -0.45312 c -0.125,0.1875 -0.27344,0.32422 -0.4375,0.40625 -0.16797,0.082031 -0.36719,0.125 -0.59375,0.125 -0.32422,0 -0.58594,-0.085938 -0.78125,-0.26562 -0.19922,-0.1875 -0.29688,-0.42969 -0.29688,-0.73438 0,-0.35156 0.125,-0.61328 0.375,-0.78125 0.25,-0.16406 0.63281,-0.25 1.1562,-0.25 h 0.57812 v -0.078125 c 0,-0.15625 -0.0625,-0.26953 -0.1875,-0.34375 -0.11719,-0.070312 -0.30469,-0.10938 -0.5625,-0.10938 -0.21094,0 -0.40625,0.023437 -0.59375,0.0625 -0.17969,0.042969 -0.33984,0.10547 -0.48438,0.1875 v -0.75 c 0.20703,-0.039063 0.41406,-0.078125 0.625,-0.10938 0.20703,-0.03125 0.41406,-0.046875 0.625,-0.046875 0.55078,0 0.94531,0.10938 1.1875,0.32812 0.25,0.21875 0.375,0.57422 0.375,1.0625 z"
         id="path11" />
    </symbol>
    <symbol
       id="d"
       overflow="visible">
      <path
         d="m 1.5312,-3.9219 v 0.85938 H 2.5468 V -2.3594 H 1.5312 v 1.2969 c 0,0.14844 0.023438,0.24609 0.078125,0.29688 0.0625,0.042969 0.17578,0.0625 0.34375,0.0625 h 0.5 V 0 H 1.624955 C 1.238235,0 0.960895,-0.078125 0.796835,-0.23438 0.640585,-0.39844 0.562455,-0.67579 0.562455,-1.0625 v -1.2969 h -0.48438 v -0.70312 h 0.48438 V -3.9219 Z"
         id="path14" />
    </symbol>
    <symbol
       id="k"
       overflow="visible">
      <path
         d="M 2.5469,-2.6094 V -4.25 H 3.53128 V 0 H 2.5469 v -0.4375 c -0.13672,0.17969 -0.28906,0.30859 -0.45312,0.39062 -0.15625,0.082031 -0.33984,0.125 -0.54688,0.125 -0.375,0 -0.6875,-0.14453 -0.9375,-0.4375 -0.24219,-0.30078 -0.35938,-0.69141 -0.35938,-1.1719 0,-0.46875 0.11719,-0.85156 0.35938,-1.1562 0.25,-0.30078 0.5625,-0.45312 0.9375,-0.45312 0.20703,0 0.39062,0.046875 0.54688,0.14062 0.16406,0.085938 0.31641,0.21484 0.45312,0.39062 z M 1.90628,-0.625 c 0.20703,0 0.36328,-0.078125 0.46875,-0.23438 0.11328,-0.15625 0.17188,-0.37891 0.17188,-0.67188 0,-0.28906 -0.058594,-0.50781 -0.17188,-0.65625 -0.10547,-0.15625 -0.26172,-0.23438 -0.46875,-0.23438 -0.21094,0 -0.37109,0.078125 -0.48438,0.23438 -0.10547,0.14844 -0.15625,0.36719 -0.15625,0.65625 0,0.29297 0.050781,0.51562 0.15625,0.67188 0.11328,0.15625 0.27344,0.23438 0.48438,0.23438 z"
         id="path17" />
    </symbol>
    <symbol
       id="j"
       overflow="visible">
      <path
         d="m 2.0938,-0.625 c 0.20703,0 0.36719,-0.078125 0.48438,-0.23438 0.11328,-0.15625 0.17188,-0.37891 0.17188,-0.67188 0,-0.28906 -0.058594,-0.50781 -0.17188,-0.65625 -0.11719,-0.15625 -0.27734,-0.23438 -0.48438,-0.23438 -0.21094,0 -0.37109,0.078125 -0.48438,0.23438 -0.10547,0.14844 -0.15625,0.36719 -0.15625,0.65625 0,0.29297 0.050781,0.51562 0.15625,0.67188 C 1.7227,-0.70313 1.88286,-0.625 2.0938,-0.625 Z M 1.45318,-2.6094 c 0.13281,-0.17578 0.28125,-0.30469 0.4375,-0.39062 0.16406,-0.09375 0.35156,-0.14062 0.5625,-0.14062 0.38281,0 0.69531,0.15234 0.9375,0.45312 0.23828,0.30469 0.35938,0.6875 0.35938,1.1562 0,0.48047 -0.12109,0.87109 -0.35938,1.1719 -0.24219,0.29297 -0.55469,0.4375 -0.9375,0.4375 -0.21094,0 -0.39844,-0.042969 -0.5625,-0.125 C 1.73443,-0.128951 1.58599,-0.25786 1.45318,-0.43754 V -4e-5 H 0.4688 v -4.25 h 0.98438 z"
         id="path20" />
    </symbol>
    <symbol
       id="i"
       overflow="visible">
      <path
         d="M 0.0625,-3.0625 H 1.04688 L 1.875,-0.9844 2.5625,-3.0625 H 3.54688 L 2.26568,0.2969 C 2.12896,0.62893 1.97271,0.86331 1.79693,1.00002 1.62896,1.13283 1.40631,1.20314 1.12505,1.20314 H 0.56255 V 0.56252 h 0.29688 c 0.16406,0 0.28516,-0.027344 0.35938,-0.078125 0.082031,-0.054687 0.14453,-0.14844 0.1875,-0.28125 L 1.43756,0.12502 Z"
         id="path23" />
    </symbol>
    <symbol
       id="e"
       overflow="visible">
      <path
         d="m 2.1406,-2.5 c 0.16406,0 0.28906,-0.035156 0.375,-0.10938 C 2.60935,-2.679693 2.65622,-2.78907 2.65622,-2.9375 2.65622,-3.07031 2.609345,-3.17578 2.5156,-3.25 2.429663,-3.320312 2.30466,-3.35938 2.1406,-3.35938 H 1.56248 V -2.5 Z m 0.046875,1.7812 c 0.20703,0 0.36328,-0.039062 0.46875,-0.125 0.10156,-0.09375 0.15625,-0.22656 0.15625,-0.40625 0,-0.17578 -0.054688,-0.30469 -0.15625,-0.39062 -0.10547,-0.09375 -0.26172,-0.14062 -0.46875,-0.14062 h -0.625 v 1.0625 z m 0.96875,-1.4688 c 0.22656,0.074219 0.40625,0.19922 0.53125,0.375 0.125,0.17969 0.1875,0.39062 0.1875,0.64062 0,0.39844 -0.13672,0.69531 -0.40625,0.89062 -0.26172,0.1875 -0.66406,0.28125 -1.2031,0.28125 h -1.75 v -4.0781 h 1.5781 c 0.5625,0 0.96875,0.089844 1.2188,0.26562 0.25781,0.16797 0.39062,0.4375 0.39062,0.8125 0,0.19922 -0.046875,0.37109 -0.14062,0.51562 -0.09375,0.13672 -0.23047,0.23438 -0.40625,0.29688 z"
         id="path26" />
    </symbol>
    <symbol
       id="h"
       overflow="visible">
      <path
         d="m 0.4375,-1.1875 v -1.875 h 0.98438 v 0.3125 0.625 0.5 c 0,0.24219 0.00391,0.41797 0.015625,0.53125 0.00781,0.10547 0.03125,0.18359 0.0625,0.23438 0.039062,0.0625 0.09375,0.11719 0.15625,0.15625 0.0625,0.03125 0.13281,0.046875 0.21875,0.046875 0.20703,0 0.36719,-0.078125 0.48438,-0.23438 0.11328,-0.15625 0.17188,-0.375 0.17188,-0.65625 v -1.5156 h 0.98438 v 3.0625 h -0.98438 v -0.4375 c -0.14844,0.17969 -0.30469,0.30859 -0.46875,0.39062 -0.16797,0.082031 -0.35156,0.125 -0.54688,0.125 -0.35547,0 -0.625,-0.10938 -0.8125,-0.32812 -0.17969,-0.21875 -0.26562,-0.53125 -0.26562,-0.9375 z"
         id="path29" />
    </symbol>
    <symbol
       id="g"
       overflow="visible">
      <path
         d="M 3.5469,-1.8594 V 0 H 2.56252 v -1.4219 c 0,-0.26953 -0.00781,-0.45312 -0.015625,-0.54688 -0.011719,-0.10156 -0.03125,-0.17578 -0.0625,-0.21875 -0.042969,-0.0625 -0.09375,-0.10938 -0.15625,-0.14062 -0.0625,-0.039063 -0.13672,-0.0625 -0.21875,-0.0625 -0.21094,0 -0.37109,0.078125 -0.48438,0.23438 -0.11719,0.15625 -0.17188,0.375 -0.17188,0.65625 v 1.5 h -0.98438 v -3.0625 h 0.98438 v 0.45312 c 0.14453,-0.17578 0.30078,-0.30469 0.46875,-0.39062 0.16406,-0.09375 0.34766,-0.14062 0.54688,-0.14062 0.35156,0 0.61719,0.10938 0.79688,0.32812 0.1875,0.21875 0.28125,0.53906 0.28125,0.95312 z"
         id="path32" />
    </symbol>
    <symbol
       id="b"
       overflow="visible">
      <path
         d="m 1.9219,-2.4375 c -0.21875,0 -0.38672,0.078125 -0.5,0.23438 -0.10547,0.15625 -0.15625,0.38281 -0.15625,0.67188 0,0.29297 0.050781,0.51562 0.15625,0.67188 0.11328,0.15625 0.28125,0.23438 0.5,0.23438 0.21875,0 0.37891,-0.078125 0.48438,-0.23438 0.11328,-0.15625 0.17188,-0.37891 0.17188,-0.67188 0,-0.28906 -0.058594,-0.51562 -0.17188,-0.67188 C 2.30081,-2.35937 2.14066,-2.4375 1.9219,-2.4375 Z m 0,-0.70312 c 0.53125,0 0.94141,0.14844 1.2344,0.4375 0.30078,0.28125 0.45312,0.67188 0.45312,1.1719 0,0.51172 -0.15234,0.90625 -0.45312,1.1875 -0.29297,0.28125 -0.70312,0.42188 -1.2344,0.42188 -0.52344,0 -0.93359,-0.14062 -1.2344,-0.42188 -0.30469,-0.28125 -0.45312,-0.67578 -0.45312,-1.1875 0,-0.5 0.14844,-0.89062 0.45312,-1.1719 0.30078,-0.28906 0.71094,-0.4375 1.2344,-0.4375 z"
         id="path35" />
    </symbol>
    <symbol
       id="f"
       overflow="visible">
      <path
         d="m 2.8594,-2.9688 v 0.75 C 2.64846,-2.31255 2.44534,-2.37896 2.25002,-2.42192 c -0.1875,-0.039063 -0.37109,-0.0625 -0.54688,-0.0625 -0.1875,0 -0.32812,0.027344 -0.42188,0.078125 -0.085938,0.042969 -0.125,0.10938 -0.125,0.20312 0,0.085937 0.03125,0.14844 0.09375,0.1875 0.070312,0.042969 0.19531,0.074219 0.375,0.09375 L 1.79689,-1.9063 c 0.5,0.0625 0.83203,0.16797 1,0.3125 0.17578,0.14844 0.26562,0.375 0.26562,0.6875 0,0.33594 -0.12109,0.58594 -0.35938,0.75 C 2.46094,-5e-5 2.10157,0.07808 1.62503,0.07808 1.42581,0.07808 1.21878,0.062455 1.00003,0.031205 0.78128,-4.5e-5 0.56253,-0.04692 0.34378,-0.109415 v -0.75 c 0.1875,0.09375 0.38281,0.16797 0.59375,0.21875 0.20703,0.042969 0.41406,0.0625 0.625,0.0625 0.1875,0 0.32812,-0.023437 0.42188,-0.078125 0.10156,-0.050781 0.15625,-0.12891 0.15625,-0.23438 0,-0.082031 -0.039063,-0.14453 -0.10938,-0.1875 C 1.96878,-1.117233 1.83597,-1.156295 1.64066,-1.18755 L 1.46878,-1.203175 c -0.4375,-0.050781 -0.74609,-0.14844 -0.92188,-0.29688 -0.16797,-0.14453 -0.25,-0.36719 -0.25,-0.67188 0,-0.32031 0.10938,-0.5625 0.32812,-0.71875 0.21875,-0.16406 0.55469,-0.25 1.0156,-0.25 0.1875,0 0.37891,0.015625 0.57812,0.046875 0.19531,0.03125 0.41016,0.074219 0.64062,0.125 z"
         id="path38" />
    </symbol>
    <symbol
       id="s"
       overflow="visible">
      <path
         d="m 2.4844,-4.25 v 0.64062 H 1.93752 c -0.13672,0 -0.23047,0.027344 -0.28125,0.078125 -0.054688,0.054688 -0.078125,0.14062 -0.078125,0.26562 v 0.20312 h 0.82812 v 0.70312 H 1.578145 V 5e-6 h -0.98438 v -2.3594 h -0.48438 v -0.70312 h 0.48438 v -0.20312 c 0,-0.33203 0.09375,-0.57812 0.28125,-0.73438 0.1875,-0.16406 0.47266,-0.25 0.85938,-0.25 z"
         id="path41" />
    </symbol>
    <symbol
       id="r"
       overflow="visible">
      <path
         d="m 3.3125,-2.5469 c 0.11328,-0.1875 0.25391,-0.33203 0.42188,-0.4375 0.17578,-0.10156 0.36719,-0.15625 0.57812,-0.15625 0.34375,0 0.60938,0.10938 0.79688,0.32812 0.1875,0.21874 0.28125,0.53906 0.28125,0.95312 V -10e-6 H 4.40625 v -1.5938 -0.0625 -0.125 c 0,-0.21875 -0.03125,-0.375 -0.09375,-0.46875 C 4.25,-2.34381 4.14453,-2.39068 4,-2.39068 c -0.1875,0 -0.33594,0.078125 -0.4375,0.23438 -0.09375,0.14844 -0.14062,0.36719 -0.14062,0.65625 v 1.5 H 2.4375 v -1.5938 c 0,-0.34375 -0.03125,-0.5625 -0.09375,-0.65625 -0.054688,-0.09375 -0.15625,-0.14062 -0.3125,-0.14062 -0.1875,0 -0.33594,0.078125 -0.4375,0.23438 C 1.5,-2.0079 1.45313,-1.78915 1.45313,-1.50009 v 1.5 H 0.46875 v -3.0625 h 0.98438 v 0.45312 c 0.11328,-0.17578 0.25,-0.30469 0.40625,-0.39062 0.15625,-0.09375 0.32812,-0.14062 0.51562,-0.14062 0.20703,0 0.39062,0.054687 0.54688,0.15625 0.16406,0.10547 0.29688,0.25 0.39062,0.4375 z"
         id="path44" />
    </symbol>
    <symbol
       id="q"
       overflow="visible">
      <path
         d="M 3.5469,-1.8594 V 0 H 2.56252 v -1.4219 c 0,-0.26953 -0.00781,-0.45312 -0.015625,-0.54688 -0.011719,-0.10156 -0.03125,-0.17578 -0.0625,-0.21875 -0.042969,-0.0625 -0.09375,-0.10938 -0.15625,-0.14062 -0.0625,-0.039063 -0.13672,-0.0625 -0.21875,-0.0625 -0.21094,0 -0.37109,0.078125 -0.48438,0.23438 -0.11719,0.15625 -0.17188,0.375 -0.17188,0.65625 v 1.5 h -0.98438 v -4.25 h 0.98438 v 1.6406 c 0.14453,-0.17578 0.30078,-0.30469 0.46875,-0.39062 0.16406,-0.09375 0.34766,-0.14062 0.54688,-0.14062 0.35156,0 0.61719,0.10938 0.79688,0.32812 0.1875,0.21875 0.28125,0.53906 0.28125,0.95312 z"
         id="path47" />
    </symbol>
    <symbol
       id="p"
       overflow="visible">
      <path
         d="m 0.51562,-4.0781 h 1.1719 l 1.4844,2.7969 v -2.7969 h 1 V 0 H 3.00002 L 1.51562,-2.7969 V 0 h -1 z"
         id="path50" />
    </symbol>
    <symbol
       id="o"
       overflow="visible">
      <path
         d="m 0.51562,-4.0781 h 1.75 c 0.50781,0 0.90625,0.11719 1.1875,0.34375 0.28125,0.23047 0.42188,0.55859 0.42188,0.98438 0,0.42969 -0.14062,0.75781 -0.42188,0.98438 -0.28125,0.23047 -0.67969,0.34375 -1.1875,0.34375 H 1.5625 V 6e-5 H 0.5156 Z m 1.0469,0.76562 v 1.1406 h 0.57812 c 0.20703,0 0.36328,-0.046875 0.46875,-0.14062 0.11328,-0.10156 0.17188,-0.25 0.17188,-0.4375 0,-0.17578 -0.058594,-0.3125 -0.17188,-0.40625 C 2.50392,-3.25781 2.34767,-3.3125 2.14064,-3.3125 Z"
         id="path53" />
    </symbol>
    <symbol
       id="n"
       overflow="visible">
      <path
         d="m 0.46875,-3.0625 h 0.98438 v 3.0156 c 0,0.40625 -0.10156,0.71094 -0.29688,0.92188 C 0.95703,1.09373 0.67187,1.2031 0.29687,1.2031 H -0.18751 V 0.56248 h 0.17188 c 0.1875,0 0.3125,-0.042969 0.375,-0.125 C 0.429683,0.351542 0.46875,0.19139 0.46875,-0.0469 Z m 0,-1.1875 h 0.98438 v 0.79688 H 0.46875 Z"
         id="path56" />
    </symbol>
    <symbol
       id="m"
       overflow="visible">
      <path
         d="m 2.9375,-2.9688 v 0.79688 C 2.8125,-2.253951 2.67969,-2.31645 2.54688,-2.35942 2.41016,-2.410201 2.26954,-2.437545 2.125,-2.437545 c -0.27344,0 -0.48438,0.085938 -0.64062,0.25 -0.14844,0.15625 -0.21875,0.375 -0.21875,0.65625 0,0.29297 0.070313,0.51562 0.21875,0.67188 0.15625,0.15625 0.36719,0.23438 0.64062,0.23438 0.15625,0 0.30078,-0.019531 0.4375,-0.0625 0.13281,-0.039062 0.25781,-0.10938 0.375,-0.20312 v 0.79688 c -0.14844,0.0625 -0.30469,0.10156 -0.46875,0.125 C 2.3125,0.062475 2.15625,0.0781 2,0.0781 c -0.55469,0 -0.98438,-0.14062 -1.2969,-0.42188 -0.31252,-0.28126 -0.46875,-0.67578 -0.46875,-1.1875 0,-0.5 0.15625,-0.89062 0.46875,-1.1719 0.3125,-0.28906 0.74219,-0.4375 1.2969,-0.4375 0.16406,0 0.32031,0.015625 0.46875,0.046875 0.15625,0.03125 0.3125,0.074219 0.46875,0.125 z"
         id="path59" />
    </symbol>
  </defs>
  <g
     id="g142"
     transform="translate(-307.96857,-236.09263)">
    <path
       d="m 350,236.09263 c -23.17624,0 -42.03143,18.85707 -42.03143,42.03143 0,23.17624 18.8533,42.03331 42.03143,42.03331 23.17813,0 42.03143,-18.85707 42.03143,-42.03143 0,-23.17436 -18.8533,-42.03331 -42.03143,-42.03331 z m 0,79.8454 c -20.84995,0 -37.81209,-16.96157 -37.81209,-37.81209 0,-20.84995 16.96157,-37.81397 37.81209,-37.81397 20.85052,0 37.81209,16.96157 37.81209,37.81209 0,20.84995 -16.96157,37.81397 -37.81209,37.81397 z"
       id="path64"
       style="stroke-width:0.188363" />
    <path
       d="m 352.10967,277.25005 v -21.57138 c 0,-1.16477 -0.94402,-2.10949 -2.10948,-2.10949 -1.16546,0 -2.10948,0.94476 -2.10948,2.10949 v 22.48871 c -7.4e-4,0.58423 0.24133,1.14269 0.66884,1.54149 l 16.92408,15.82254 h -7.4e-4 c 0.85131,0.79613 2.18671,0.75125 2.98217,-0.10007 0.79614,-0.85131 0.75125,-2.18596 -0.10006,-2.98217 z"
       id="path66"
       style="stroke-width:0.188363" />
  </g>
</svg>
