<?xml version="1.0" encoding="UTF-8" standalone="no"?>
<svg
   version="1.1"
   viewBox="-5 -10 100 100"
   id="svg2"
   sodipodi:docname="activity.svg"
   width="100"
   height="100"
   inkscape:version="1.4.2 (1:1.4.2+202505120738+ebf0e940d0)"
   xmlns:inkscape="http://www.inkscape.org/namespaces/inkscape"
   xmlns:sodipodi="http://sodipodi.sourceforge.net/DTD/sodipodi-0.dtd"
   xmlns="http://www.w3.org/2000/svg"
   xmlns:svg="http://www.w3.org/2000/svg">
  <defs
     id="defs2" />
  <sodipodi:namedview
     id="namedview2"
     pagecolor="#ffffff"
     bordercolor="#000000"
     borderopacity="0.25"
     inkscape:showpageshadow="2"
     inkscape:pageopacity="0.0"
     inkscape:pagecheckerboard="0"
     inkscape:deskcolor="#d1d1d1"
     inkscape:zoom="6.0740741"
     inkscape:cx="49.22561"
     inkscape:cy="54.987805"
     inkscape:window-width="1920"
     inkscape:window-height="1003"
     inkscape:window-x="0"
     inkscape:window-y="0"
     inkscape:window-maximized="1"
     inkscape:current-layer="svg2" />
  <rect
     style="fill:#fa9393;stroke-width:8.89571;stroke-linecap:square;fill-opacity:1"
     id="rect2"
     width="100"
     height="100"
     x="-5"
     y="-10"
     ry="11.853659" />
  <path
     d="m 75.1703,35.3498 h -10 c -0.77344,0 -1.4766,0.44531 -1.8086,1.1445 l -8.0391,17.016 -16.719,-37.938 c -0.30469,-0.69531 -0.98047,-1.1562 -1.7383,-1.1914 -0.76172,-0.04297 -1.4766,0.35938 -1.8398,1.0273 l -11.035,19.941 h -8.8203 c -1.1055,0 -2,0.89453 -2,2 0,1.10547 0.89453,2 2,2 h 10 c 0.72656,0 1.3984,-0.39453 1.75,-1.0312 l 9.6523,-17.445 16.855,38.254 v 0.0039 c 0.3125,0.71484 1.0195,1.1836 1.8008,1.1914 h 0.02734 c 0.77344,0 1.4766,-0.44531 1.8086,-1.1445 l 9.3711,-19.828 h 8.7344 c 1.1055,0 2,-0.89453 2,-2 0,-1.1016 -0.89453,-2 -2,-2 z"
     id="path1" />
</svg>
