<?xml version="1.0" encoding="UTF-8" standalone="no"?>
<svg
   version="1.1"
   x="0px"
   y="0px"
   viewBox="0 0 100 100"
   enable-background="new 0 0 100 100"
   xml:space="preserve"
   id="svg4"
   sodipodi:docname="equipment.svg"
   width="100"
   height="100"
   inkscape:version="1.4.2 (1:1.4.2+202505120738+ebf0e940d0)"
   xmlns:inkscape="http://www.inkscape.org/namespaces/inkscape"
   xmlns:sodipodi="http://sodipodi.sourceforge.net/DTD/sodipodi-0.dtd"
   xmlns="http://www.w3.org/2000/svg"
   xmlns:svg="http://www.w3.org/2000/svg"><defs
     id="defs4" /><sodipodi:namedview
     id="namedview4"
     pagecolor="#ffffff"
     bordercolor="#000000"
     borderopacity="0.25"
     inkscape:showpageshadow="2"
     inkscape:pageopacity="0.0"
     inkscape:pagecheckerboard="0"
     inkscape:deskcolor="#d1d1d1"
     inkscape:zoom="6.56"
     inkscape:cx="50"
     inkscape:cy="57.164634"
     inkscape:window-width="1920"
     inkscape:window-height="1003"
     inkscape:window-x="0"
     inkscape:window-y="0"
     inkscape:window-maximized="1"
     inkscape:current-layer="svg4" /><rect
     style="fill:#cfc5c3;stroke-width:8.89571;stroke-linecap:square;fill-opacity:1"
     id="rect2-6"
     width="100"
     height="100"
     x="0"
     y="0"
     ry="11.853659" /><path
     d="m 84.796024,17.07614 -1.284093,-1.28331 -14.703301,14.7033 0.671391,0.672173 -1.860018,-1.8608 0.176846,0.176846 14.703301,-14.703301 -0.03052,-0.03052 h 7.83e-4 L 81.186321,13.466437 66.482238,28.169738 65.471239,27.157957 80.17454,12.454656 78.892011,11.171345 64.068987,25.993587 c -0.32474,-0.146329 -0.67765,-0.22458 -1.043864,-0.22458 -0.681563,0 -1.322436,0.26527 -1.805243,0.747294 -0.435856,0.435856 -0.679998,0.990654 -0.734773,1.560319 -0.59001,0.05556 -1.1362,0.311437 -1.560319,0.735556 -0.158066,0.158066 -0.287962,0.332565 -0.395948,0.516454 -0.623658,-0.160414 -1.299744,-0.260574 -2.027475,-0.260574 -2.200409,0 -4.281876,0.91788 -6.017476,2.655045 l -2.036865,2.036865 c -0.30596,-0.305961 -0.800505,-0.305961 -1.106465,0 l -8.29457,8.293788 c -0.305961,0.30596 -0.305961,0.800504 0,1.106464 l -2.905448,2.905448 c -0.248837,0.248837 -1.536843,1.602573 -2.222319,3.665261 -0.546972,1.647959 -0.56184,3.320176 -0.0806,4.894579 -0.02347,0.105639 -0.04852,0.210495 -0.0579,0.318481 -0.590011,0.05634 -1.1362,0.31222 -1.560319,0.736338 -0.482024,0.481242 -0.747294,1.122898 -0.747294,1.804461 0,0.381081 0.08608,0.748859 0.244142,1.084554 l -17.122028,17.122029 1.284093,1.284093 17.014043,-17.014042 1.012564,1.011781 -17.015608,17.014043 0.03052,0.03052 1.284094,1.284094 17.014043,-17.014043 1.011781,1.011781 -17.014043,17.01326 1.283311,1.284094 17.132984,-17.133767 c 0.32474,0.145547 0.678433,0.22458 1.044646,0.22458 0.681564,0 1.322437,-0.266052 1.804461,-0.747294 0.424118,-0.424119 0.679998,-0.971091 0.735556,-1.560318 0.59001,-0.05556 1.1362,-0.311438 1.560318,-0.735557 0.366214,-0.366213 0.606443,-0.824762 0.701126,-1.321653 6.698258,-0.821632 16.388038,-6.144243 21.022825,-10.778248 2.812329,-2.811546 3.75525,-6.364909 2.728601,-10.27666 -0.163544,-0.62131 -0.370126,-1.21132 -0.600965,-1.773942 0.201104,-0.113464 0.388123,-0.25275 0.555579,-0.420207 0.424119,-0.424118 0.679999,-0.970308 0.735557,-1.559535 0.589227,-0.05556 1.136199,-0.311438 1.559536,-0.735557 0.482024,-0.482024 0.747293,-1.122897 0.747293,-1.80446 0,-0.381863 -0.08529,-0.749642 -0.244142,-1.084554 z m -25.22958,15.988177 1.011781,1.011781 -2.914837,2.914055 c -0.04695,0.04773 -0.08999,0.09703 -0.133027,0.147111 -0.278572,0.150242 -0.648698,0.113464 -0.878755,-0.117376 -0.139286,-0.139286 -0.215189,-0.323957 -0.215189,-0.521149 0,-0.197192 0.07669,-0.381863 0.215189,-0.521149 z m -18.859976,9.542669 7.188106,-7.187324 3.429727,3.429727 -7.188107,7.188107 z m 14.167283,-5.004913 c 0.122854,0.256663 0.28718,0.493762 0.494544,0.701126 0.423337,0.424119 0.970309,0.680781 1.560319,0.736339 0.05556,0.589228 0.311437,1.1362 0.734774,1.559536 0.482024,0.482024 1.123679,0.748076 1.805243,0.748076 0.264487,0 0.521931,-0.04069 0.766074,-0.117376 0.376385,1.652655 -0.278573,2.59088 -0.868583,3.180108 -3.184802,3.184019 -8.700692,6.232665 -13.024824,7.753858 -0.0031,-0.0031 -0.0055,-0.0063 -0.0086,-0.01017 -0.424119,-0.423336 -0.971091,-0.679999 -1.560319,-0.735556 -0.05556,-0.589228 -0.311437,-1.1362 -0.735556,-1.559536 -0.251967,-0.251967 -0.543059,-0.439769 -0.85528,-0.564188 z m 5.115246,1.71369 c -0.277007,0.27779 -0.762944,0.278572 -1.041516,0 -0.139286,-0.139286 -0.215189,-0.323958 -0.215189,-0.521149 0,-0.125984 0.03443,-0.245707 0.0939,-0.352911 0.05086,-0.0446 0.10329,-0.08921 0.151806,-0.138504 l 2.914055,-2.914054 1.012563,1.011781 z m -8.22258,-6.308569 c 1.38895,-1.388949 3.025954,-2.12294 4.734948,-2.12294 0.620528,0 1.1988,0.09625 1.72934,0.244924 0.03678,0.181542 0.09547,0.359171 0.172151,0.531322 l -3.034561,3.033779 c -0.06495,0.06495 -0.125201,0.133808 -0.182324,0.205016 -0.284832,0.169022 -0.567317,0.392036 -0.851367,0.675304 l -2.036865,2.036865 -2.567404,-2.567405 z M 35.642084,50.302939 c 0.566535,-1.704299 1.659697,-2.830326 1.782551,-2.95318 l 2.904664,-2.905447 2.567405,2.568187 -2.904665,2.904665 c -0.199539,0.206581 -0.55245,0.620527 -0.795027,1.171412 l -1.792723,1.79194 c -0.335695,-0.157283 -0.702691,-0.244142 -1.084554,-0.244142 -0.348215,0 -0.686258,0.07043 -0.996913,0.20267 0.0016,-7.83e-4 0.0031,-0.0016 0.0055,-0.0031 -0.06886,-0.829457 0.0313,-1.680042 0.313785,-2.532975 z m 7.327393,1.359215 c 0,0.126766 -0.03443,0.245707 -0.0939,0.353693 -0.05165,0.0446 -0.103291,0.08842 -0.151806,0.137721 l -2.914837,2.914837 -1.012564,-1.012563 2.914837,-2.914838 c 0.28718,-0.286397 0.755119,-0.28718 1.042299,0 0.139286,0.140069 0.215972,0.32474 0.215972,0.52115 z m -3.772465,10.995001 c -0.27779,0.27779 -0.763726,0.27779 -1.041516,0 l -4.65122,-4.65122 c -0.139286,-0.139286 -0.215189,-0.323957 -0.215189,-0.521149 0,-0.197192 0.07669,-0.381863 0.215189,-0.52115 0.138504,-0.139286 0.323958,-0.215189 0.52115,-0.215189 0.125983,0 0.244924,0.03443 0.352128,0.09312 0.0446,0.05165 0.0892,0.103291 0.138503,0.151807 l 4.65122,4.651219 c 0.04852,0.04852 0.100161,0.0939 0.151806,0.138504 0.05947,0.107203 0.0939,0.226927 0.0939,0.352911 0,0.196409 -0.0759,0.38108 -0.215972,0.521149 z m 2.296657,-2.295875 c -0.230839,0.229275 -0.600965,0.266835 -0.879537,0.115811 -0.04304,-0.0493 -0.08529,-0.09938 -0.133026,-0.146328 l -4.650437,-4.65122 c -0.04852,-0.04851 -0.100944,-0.0939 -0.152589,-0.138504 -0.05869,-0.107986 -0.09312,-0.226927 -0.09312,-0.35291 0,-0.197192 0.07669,-0.381864 0.21519,-0.52115 0.138503,-0.139286 0.323958,-0.215189 0.521149,-0.215189 0.196409,0 0.381081,0.07669 0.52115,0.215189 l 4.651219,4.65122 c 0.139287,0.139286 0.21519,0.323958 0.21519,0.521149 0,0.197192 -0.07669,0.383429 -0.21519,0.521932 z m 0.640873,-2.968047 -1.011781,-1.011782 2.914838,-2.914837 c 0.04773,-0.04695 0.08999,-0.09703 0.133026,-0.147111 0.279355,-0.149459 0.648698,-0.113464 0.879537,0.116593 0.139286,0.139286 0.21519,0.323958 0.21519,0.52115 0,0.196409 -0.07669,0.381863 -0.21519,0.520367 z M 63.21762,48.260597 c -4.256054,4.255271 -13.363649,9.304787 -19.590055,10.2078 l 2.705126,-2.705908 c 0.482024,-0.481242 0.748076,-1.122897 0.748076,-1.804461 0,-0.03834 -0.0047,-0.0759 -0.0063,-0.113463 4.898492,-1.758293 10.656959,-5.23184 13.575709,-8.151372 1.762987,-1.762205 1.75125,-3.817068 1.143242,-5.613703 l 2.501674,-2.502457 c 0.150241,0.07043 0.307525,0.126766 0.469504,0.166674 1.444507,3.219233 1.79194,7.178716 -1.547016,10.51689 z m 2.683998,-12.470809 c -0.27779,0.278572 -0.763727,0.278572 -1.041516,0 l -4.652003,-4.65122 c -0.28718,-0.28718 -0.28718,-0.754336 7.83e-4,-1.042299 0.139286,-0.139286 0.323958,-0.215189 0.520367,-0.215189 0.126766,0 0.246489,0.03443 0.354475,0.0939 0.04382,0.05164 0.08764,0.103291 0.136939,0.151806 l 4.65122,4.65122 c 0.04851,0.04852 0.100161,0.0939 0.151806,0.138503 0.05947,0.107204 0.0939,0.226927 0.0939,0.352911 0,0.195627 -0.07669,0.381081 -0.215972,0.520367 z m 2.295875,-2.295875 c -0.230057,0.230057 -0.600183,0.266835 -0.878755,0.116594 -0.04304,-0.05008 -0.08608,-0.09938 -0.133027,-0.147111 l -4.650437,-4.65122 c -0.04852,-0.04852 -0.100161,-0.0939 -0.151806,-0.137721 -0.153371,-0.279355 -0.115029,-0.637743 0.121288,-0.874843 0.139287,-0.138504 0.323958,-0.215189 0.52115,-0.215189 0.196409,0 0.381863,0.07669 0.521149,0.215189 l 4.650438,4.652002 c 0.139286,0.139287 0.215971,0.323958 0.215971,0.52115 0,0.197192 -0.07747,0.381863 -0.215971,0.521149 z"
     id="path3"
     style="stroke-width:0.782507" /></svg>
