<?xml version="1.0" encoding="UTF-8" standalone="no"?>
<svg
   version="1.1"
   viewBox="-5 -10 100 100"
   id="svg2"
   sodipodi:docname="human_resources.svg"
   width="100"
   height="100"
   inkscape:version="1.4.2 (1:1.4.2+202505120738+ebf0e940d0)"
   xmlns:inkscape="http://www.inkscape.org/namespaces/inkscape"
   xmlns:sodipodi="http://sodipodi.sourceforge.net/DTD/sodipodi-0.dtd"
   xmlns="http://www.w3.org/2000/svg"
   xmlns:svg="http://www.w3.org/2000/svg">
  <defs
     id="defs2" />
  <sodipodi:namedview
     id="namedview2"
     pagecolor="#ffffff"
     bordercolor="#000000"
     borderopacity="0.25"
     inkscape:showpageshadow="2"
     inkscape:pageopacity="0.0"
     inkscape:pagecheckerboard="0"
     inkscape:deskcolor="#d1d1d1"
     inkscape:zoom="6.0740741"
     inkscape:cx="51.036585"
     inkscape:cy="58.609756"
     inkscape:window-width="1920"
     inkscape:window-height="1003"
     inkscape:window-x="0"
     inkscape:window-y="0"
     inkscape:window-maximized="1"
     inkscape:current-layer="svg2" />
  <rect
     style="fill:#c0c0d5;stroke-width:8.89571;stroke-linecap:square;fill-opacity:1"
     id="rect2"
     width="100"
     height="100"
     x="-5"
     y="-10"
     ry="11.853659" />
  <path
     d="m 46.036646,43.164811 c 3.835101,0 7.344063,-1.404272 10.035018,-3.728304 -0.889627,-1.653395 -2.176239,-3.0604 -3.728304,-4.095156 -1.801187,-1.201679 -3.971961,-1.899716 -6.304191,-1.899716 -2.332231,0 -4.500272,0.70077 -6.304192,1.899716 -1.554868,1.034756 -2.84141,2.441761 -3.728304,4.095156 2.690814,2.324032 6.200198,3.728304 10.035018,3.728304 z M 31.837655,53.887284 c 0.673398,0.574848 0.750034,1.590396 0.175193,2.261103 -0.574848,0.673397 -1.590396,0.752766 -2.261103,0.177932 L 19.596194,47.594031 C 18.922797,47.019183 18.843428,46.003635 19.418262,45.332929 L 20.362689,44.32284 19.631787,31.14487 14.942658,30.457787 v 21.138009 l 14.327231,13.372083 7.379803,-4.459207 -1.806654,-8.781341 -9.824787,-7.675528 -2.061243,2.198103 8.885756,7.636986 z M 23.395486,41.08703 23.677434,40.785916 c 0.591274,-0.629599 1.571265,-0.673397 2.220037,-0.112235 l 11.381897,8.891362 c 0.31206,0.24363 0.511891,0.583062 0.585802,0.941694 l 2.157038,10.470196 c 0.139607,0.684344 -0.177932,1.355008 -0.744568,1.694461 l 0.0027,0.0027 -9.386807,5.669085 c -0.654231,0.394183 -1.47547,0.268261 -1.984579,-0.257316 L 12.240488,53.462944 c -0.339439,-0.314799 -0.511891,-0.744567 -0.511891,-1.174349 h -0.0055 V 28.596281 c 0,-0.886894 0.7199,-1.609597 1.609597,-1.609597 0.109496,0 0.216251,0.01095 0.320273,0.03285 l 7.7414,1.136017 c 0.796565,0.114969 1.371406,0.799298 1.374139,1.579465 l 0.629599,11.351764 z m 38.92564,15.238932 c -0.673397,0.574848 -1.686192,0.498205 -2.261103,-0.177933 -0.574848,-0.673397 -0.498205,-1.686191 0.175193,-2.261102 l 8.885756,-7.636986 -2.061243,-2.198103 -9.824788,7.675528 -1.806653,8.781341 7.379803,4.459207 14.327231,-13.372083 V 30.457822 l -4.689129,0.687083 -0.730902,13.17797 0.892359,0.952626 0.04927,0.05748 c 0.574848,0.673398 0.498205,1.686192 -0.177932,2.261103 L 62.32344,56.326376 Z m 6.074269,-15.53746 0.281948,0.301113 0.629599,-11.351764 c 0.0055,-0.780166 0.577588,-1.464468 1.374139,-1.579464 l 7.7414,-1.136017 c 0.104022,-0.0219 0.210777,-0.03285 0.320273,-0.03285 0.886893,0 1.609597,0.719901 1.609597,1.609598 v 23.692313 h -0.0055 c 0,0.429768 -0.172453,0.856831 -0.511891,1.17435 L 64.166482,68.088738 c -0.509151,0.525577 -1.330341,0.651498 -1.984579,0.257315 l -9.386807,-5.669084 0.0027,-0.0027 c -0.566635,-0.339438 -0.884161,-1.010089 -0.744568,-1.69446 l 2.157039,-10.470196 c 0.07391,-0.358598 0.271001,-0.69803 0.585801,-0.941694 l 11.381897,-8.891363 c 0.648759,-0.561162 1.625996,-0.514631 2.220038,0.112235 z M 46.033843,30.227906 c 1.467271,0 2.794878,-0.594014 3.755703,-1.5576 0.960825,-0.960825 1.557601,-2.288432 1.557601,-3.755704 0,-1.467271 -0.594015,-2.794878 -1.557601,-3.758436 -0.960825,-0.960825 -2.288432,-1.554867 -3.755703,-1.554867 -1.467271,0 -2.794879,0.594014 -3.755704,1.554867 -0.960825,0.960825 -1.5576,2.291165 -1.5576,3.758436 0,1.467272 0.594014,2.794879 1.5576,3.755704 0.960825,0.960825 2.288433,1.5576 3.755704,1.5576 z m 6.030471,0.717168 c -0.136867,0.139607 -0.279215,0.271001 -0.427028,0.399656 0.867763,0.361337 1.697194,0.804763 2.471824,1.322141 1.697194,1.127819 3.145264,2.606022 4.240216,4.325079 1.916184,-2.562153 3.049468,-5.745748 3.049468,-9.191992 0,-4.245682 -1.72179,-8.086179 -4.500271,-10.867533 -2.781214,-2.781214 -6.621711,-4.500271 -10.867532,-4.500271 -4.245682,0 -8.086179,1.719057 -10.867533,4.500271 -2.778411,2.781214 -4.500271,6.621711 -4.500271,10.867533 0,3.446384 1.136017,6.627176 3.049468,9.191992 1.097685,-1.719057 2.543022,-3.194527 4.240216,-4.325079 0.7747,-0.514631 1.601398,-0.960825 2.471824,-1.322141 -0.14782,-0.128655 -0.290161,-0.260049 -0.427035,-0.399656 -1.543865,-1.543865 -2.499224,-3.676307 -2.499224,-6.030472 0,-2.354164 0.955359,-4.489269 2.499224,-6.030471 1.543865,-1.543865 3.676307,-2.499224 6.030471,-2.499224 2.354165,0 4.48927,0.955359 6.030472,2.499224 1.543865,1.543865 2.499224,3.676307 2.499224,6.030471 0,2.354165 -0.955359,4.48927 -2.499224,6.030472 z m 7.109306,9.997177 c -3.364254,3.364254 -8.009795,5.441895 -13.14223,5.441895 -5.132576,0 -9.777836,-2.080445 -13.14223,-5.441895 -3.364254,-3.364254 -5.441895,-8.009795 -5.441895,-13.14223 0,-5.132436 2.080444,-9.780639 5.441895,-13.14223 3.364254,-3.364254 8.009795,-5.441895 13.14223,-5.441895 5.132575,0 9.777836,2.080444 13.14223,5.441895 3.364254,3.364254 5.441895,8.009794 5.441895,13.14223 0,5.132435 -2.080444,9.777836 -5.441895,13.14223 z"
     id="path1"
     style="stroke-width:0.700769" />
</svg>
