<?xml version="1.0" encoding="UTF-8" standalone="no"?>
<svg
   version="1.1"
   viewBox="-5 -10 100 100"
   id="svg2"
   sodipodi:docname="insurance.svg"
   width="100"
   height="100"
   inkscape:version="1.4.2 (1:1.4.2+202505120738+ebf0e940d0)"
   xmlns:inkscape="http://www.inkscape.org/namespaces/inkscape"
   xmlns:sodipodi="http://sodipodi.sourceforge.net/DTD/sodipodi-0.dtd"
   xmlns="http://www.w3.org/2000/svg"
   xmlns:svg="http://www.w3.org/2000/svg">
  <defs
     id="defs2" />
  <sodipodi:namedview
     id="namedview2"
     pagecolor="#ffffff"
     bordercolor="#000000"
     borderopacity="0.25"
     inkscape:showpageshadow="2"
     inkscape:pageopacity="0.0"
     inkscape:pagecheckerboard="0"
     inkscape:deskcolor="#d1d1d1"
     inkscape:zoom="6.0740741"
     inkscape:cx="50.542683"
     inkscape:cy="54"
     inkscape:window-width="1920"
     inkscape:window-height="1003"
     inkscape:window-x="0"
     inkscape:window-y="0"
     inkscape:window-maximized="1"
     inkscape:current-layer="svg2" />
  <rect
     style="fill:#c5e2e2;stroke-width:8.89571;stroke-linecap:square;fill-opacity:1"
     id="rect2"
     width="100"
     height="100"
     x="-5"
     y="-10"
     ry="11.853659" />
  <path
     d="m 77.89445,49.043662 c -0.200241,1.035073 -0.840993,1.934582 -1.762109,2.467536 L 53.061832,64.831905 c -2.205712,1.275369 -4.420651,1.866839 -6.968234,1.866839 H 38.88507 c -1.842155,0 -2.538434,0.104738 -3.71207,2.137891 l -2.738666,4.744067 c -0.129383,0.224885 -0.366586,0.351184 -0.609956,0.351184 -0.12014,0 -0.240287,-0.0308 -0.351184,-0.09549 -0.335782,-0.194073 -0.449762,-0.622275 -0.255689,-0.958025 l 2.738667,-4.744067 c 1.478676,-2.559964 2.692453,-2.840321 4.928922,-2.840321 h 7.208528 c 2.291909,0 4.282011,-0.532939 6.265882,-1.678909 L 75.430013,50.294362 c 0.566826,-0.326539 0.961179,-0.881055 1.084362,-1.515663 0.123223,-0.634601 -0.04005,-1.293822 -0.446686,-1.808323 -1.303049,-1.651228 -4.201886,-2.547661 -8.431217,-0.104738 l -13.711866,7.913877 c 0.12014,1.019696 -0.190998,2.039312 -0.859446,2.812561 -0.690049,0.797855 -1.697363,1.256915 -2.760196,1.256915 H 38.675863 c -0.388155,0 -0.702376,-0.314221 -0.702376,-0.702368 0,-0.388154 0.314221,-0.702367 0.702376,-0.702367 h 11.632255 c 0.656162,0 1.272293,-0.280333 1.697363,-0.770142 0.425118,-0.489809 0.613032,-1.142879 0.517537,-1.78979 -0.301895,-2.08245 -2.365882,-4.306616 -7.248591,-4.306616 H 34.486003 c -0.06162,0 -0.123223,-0.0092 -0.181755,-0.02465 -10.575494,-2.834169 -13.345154,3.450246 -15.00206,7.202377 -0.261848,0.594555 -0.489809,1.108968 -0.717778,1.503282 l -8.107879,14.053342 c -0.194073,0.335782 -0.6222738,0.449762 -0.9580238,0.255689 -0.335751,-0.194074 -0.449762,-0.622275 -0.255689,-0.958025 L 17.377006,58.556381 c 0.190998,-0.329622 0.400473,-0.810157 0.646919,-1.367795 1.589557,-3.604264 4.895011,-11.099144 16.558023,-8.01561 h 10.695366 c 4.836494,0 7.356396,1.993098 8.277434,4.201886 l 13.385374,-7.72918 c 5.005971,-2.88961 8.570015,-1.660455 10.234019,0.452845 0.656162,0.834842 0.918041,1.906902 0.720853,2.945051 z M 32.853568,25.317015 V 12.206083 c 0,-1.284595 0.825614,-2.3936423 2.054769,-2.763272 L 48.712472,5.2932897 c 0.699292,-0.2094831 1.380099,-0.2094831 2.079375,0 L 64.595982,9.442811 c 1.229155,0.3696691 2.054769,1.478677 2.054769,2.763272 v 13.110932 c 0,9.167795 -5.150684,16.345882 -15.307259,21.326853 -0.514454,0.252606 -1.053528,0.378912 -1.592634,0.378912 -0.539105,0 -1.078211,-0.126306 -1.592633,-0.378912 C 38.004646,41.659506 32.85412,34.48481 32.85412,25.317015 Z m 1.404703,0 c 0,8.588942 4.885784,15.341171 14.521787,20.066627 0.637676,0.311137 1.309279,0.311137 1.946963,0 9.63624,-4.72869 14.521787,-11.478473 14.521787,-20.066627 V 12.206083 c 0,-0.668488 -0.412799,-1.226079 -1.053527,-1.42016 L 50.38799,6.6364012 c -0.440519,-0.1324657 -0.831765,-0.1324657 -1.272292,0 L 35.311562,10.785923 c -0.64076,0.194073 -1.053527,0.748581 -1.053527,1.42016 z m 1.965418,0 V 13.08698 c 0,-0.311137 0.203316,-0.582228 0.499051,-0.671564 L 49.550555,8.5585545 c 0.132466,-0.040047 0.27109,-0.040047 0.403556,0 l 12.827815,3.8568615 c 0.295735,0.08934 0.499051,0.36351 0.499051,0.671564 v 12.230035 c 0,7.827759 -4.322073,13.782843 -13.215819,18.2031 -0.09858,0.04929 -0.2064,0.07393 -0.311137,0.07393 -0.107821,0 -0.212559,-0.02464 -0.311138,-0.07393 C 40.546377,39.096388 36.22391,33.144932 36.22391,25.317015 Z m 1.404703,0 c 0,7.150012 3.967743,12.645642 12.125148,16.785936 8.157562,-4.14337 12.125147,-9.636239 12.125147,-16.785936 V 13.607474 L 49.75354,9.9631474 37.628392,13.607474 Z m 6.974464,6.632515 -4.131068,-5.415663 c -0.840992,-1.102816 -0.628441,-2.686223 0.474407,-3.527294 0.532939,-0.406632 1.195244,-0.582228 1.860688,-0.492892 0.665444,0.08934 1.256914,0.43436 1.666606,0.967331 l 2.532204,3.320831 8.409924,-7.042207 c 0.514453,-0.431284 1.167563,-0.637676 1.839079,-0.576069 0.671564,0.05853 1.275369,0.375829 1.709745,0.893358 0.890281,1.065909 0.748581,2.655466 -0.314221,3.548823 l -10.301052,8.619699 c -0.542182,0.452845 -1.170639,0.693132 -1.802172,0.693132 -0.08934,0 -0.181755,-0.0062 -0.271091,-0.0154 -0.662321,-0.07085 -1.241457,-0.409715 -1.672757,-0.973481 z m -3.015869,-6.265882 4.131067,5.415663 c 0.194073,0.255689 0.43436,0.400473 0.71161,0.431284 0.326539,0.03696 0.699292,-0.09549 1.01662,-0.360426 l 10.301052,-8.626007 c 0.471331,-0.394314 0.532939,-1.099742 0.138625,-1.571104 -0.190998,-0.227961 -0.459005,-0.369669 -0.75474,-0.394314 -0.295736,-0.02464 -0.585312,0.06469 -0.813233,0.255689 l -8.970638,7.513491 c -0.147867,0.123223 -0.338865,0.181755 -0.529863,0.160193 -0.190997,-0.02156 -0.36351,-0.120139 -0.480573,-0.27109 l -2.978883,-3.906151 c -0.181755,-0.237203 -0.440519,-0.388155 -0.736255,-0.428201 -0.04929,-0.0062 -0.101662,-0.0092 -0.150951,-0.0092 -0.243363,0 -0.47749,0.08009 -0.674647,0.227961 -0.486733,0.372752 -0.582228,1.07206 -0.209475,1.561877 z"
     id="path1"
     style="stroke-width:0.788628" />
</svg>
