<?xml version="1.0" encoding="UTF-8" standalone="no"?>
<svg
   version="1.1"
   viewBox="-5 -10 100 100"
   id="svg6"
   sodipodi:docname="marketing.svg"
   width="100"
   height="100"
   inkscape:version="1.4.2 (1:1.4.2+202505120738+ebf0e940d0)"
   xmlns:inkscape="http://www.inkscape.org/namespaces/inkscape"
   xmlns:sodipodi="http://sodipodi.sourceforge.net/DTD/sodipodi-0.dtd"
   xmlns="http://www.w3.org/2000/svg"
   xmlns:svg="http://www.w3.org/2000/svg">
  <defs
     id="defs6" />
  <sodipodi:namedview
     id="namedview6"
     pagecolor="#ffffff"
     bordercolor="#000000"
     borderopacity="0.25"
     inkscape:showpageshadow="2"
     inkscape:pageopacity="0.0"
     inkscape:pagecheckerboard="0"
     inkscape:deskcolor="#d1d1d1"
     inkscape:zoom="6.0740741"
     inkscape:cx="49.884146"
     inkscape:cy="57.621951"
     inkscape:window-width="1920"
     inkscape:window-height="1003"
     inkscape:window-x="0"
     inkscape:window-y="0"
     inkscape:window-maximized="1"
     inkscape:current-layer="svg6" />
  <rect
     style="fill:#f7ddaf;stroke-width:8.89571;stroke-linecap:square;fill-opacity:1"
     id="rect2"
     width="100"
     height="100"
     x="-5"
     y="-10"
     ry="11.853659" />
  <g
     id="g7"
     transform="matrix(0.74695979,0,0,0.74695979,11.367177,10.153443)">
    <g
       id="g6">
      <path
         d="m 83.867829,37.886049 v -11.309 c 0,-3.793 -3.0859,-6.8828 -6.8828,-6.8828 h -0.67578 c -3.793,0 -6.8828,3.0898 -6.8828,6.8828 v 1.5039 c -2.9531,2.3359 -5.8047,4.1094 -8.8008,5.4297 -0.81641,0.36719 -1.1562,1.2891 -0.81641,2.0781 0.36719,0.81641 1.2891,1.1875 2.0781,0.81641 2.5508,-1.1133 5.0273,-2.5664 7.5391,-4.3594 v 32.539 c -8.1211,-5.7891 -16.215,-8.0703 -27.52,-8.0703 h -6.8984 c -1.9219,0 -3.4492,-1.5273 -3.4492,-3.4492 v -9.5039 c 0,-0.26172 0.02734,-0.47266 0.05469,-0.68359 0.21094,-0.84375 -0.31641,-1.6836 -1.1836,-1.8945 -0.84375,-0.21094 -1.6836,0.34375 -1.8945,1.2109 -0.07813,0.42188 -0.13281,0.86719 -0.13281,1.3672 v 9.5039 c 0,3.6328 2.9766,6.6055 6.6055,6.6055 h 2.5898 l 3.1211,16.453 c 0.42188,2.2383 2.3672,3.8438 4.6328,3.8438 h 3.3945 c 1.3945,0 2.7383,-0.63281 3.6328,-1.7109 0.8945,-1.07809 1.2656,-2.5 1,-3.8945 l -2.6641,-14.07 c 7.0195,1.0625 12.805,3.6484 18.703,8.2695 v 1.4844 c 0,3.793 3.0898,6.8828 6.8828,6.8828 h 0.67578 c 3.793,0 6.8828,-3.0859 6.8828,-6.8828 v -11.309 c 4.8359,-0.80078 8.5586,-5.1484 8.5586,-10.426 0,-5.2776 -3.7227,-9.6289 -8.5586,-10.426 z m -33.926,38.375 c -0.15625,0.21094 -0.55469,0.55469 -1.1836,0.55469 h -3.3945 c -0.73828,0 -1.3945,-0.52734 -1.5273,-1.2656 l -2.9922,-15.875 h 1.0703 c 1.9453,0 3.7617,0.10156 5.5234,0.25 l 2.8477,15.047 c 0.13281,0.63281 -0.15625,1.0781 -0.34375,1.2891 z m 30.766,-6.2188 c 0,2.0547 -1.6719,3.7266 -3.7227,3.7266 h -0.67578 c -2.0547,0 -3.7227,-1.6719 -3.7227,-3.7266 v -43.469 c 0,-2.0547 1.6719,-3.7266 3.7227,-3.7266 h 0.67578 c 2.0547,0 3.7227,1.6719 3.7227,3.7266 z m 3.1602,-14.504 v -14.453 c 3.0859,0.76953 5.3984,3.7109 5.3984,7.2266 0,3.5195 -2.3125,6.4609 -5.3984,7.2266 z"
         id="path1" />
      <path
         d="m 38.215829,43.765049 c 0.83203,0.86328 1.9531,1.3242 3.0977,1.3242 0.54297,0 1.0898,-0.10156 1.6172,-0.3125 1.6406,-0.66016 2.6992,-2.2305 2.6992,-3.9961 v -4.9727 h 5.1484 c 4.0312,0 7.3125,-3.2812 7.3125,-7.3125 V 7.6004488 c 0,-4.0312 -3.2812,-7.31250002 -7.3125,-7.31250002 l -46.0389997,-0.0039 c -4.03120003,0 -7.3125,3.28120002 -7.3125,7.31250002 V 28.491549 c 0,4.0312 3.28119997,7.3125 7.3125,7.3125 H 30.563329 Z M 0.58682927,28.492049 V 7.5970488 c 0,-2.2891 1.86330003,-4.1523 4.15230003,-4.1523 H 50.774129 c 2.2891,0 4.1523,1.8633 4.1523,4.1523 V 28.492049 c 0,2.2891 -1.8633,4.1523 -4.1523,4.1523 h -6.7266 c -0.87109,0 -1.5781,0.70703 -1.5781,1.5781 v 6.5508 c 0,0.70312 -0.50391,0.98047 -0.71875,1.0664 -0.21484,0.08594 -0.77344,0.23437 -1.2578,-0.26953 l -8.1172,-8.4453 c -0.29688,-0.30859 -0.71094,-0.48438 -1.1406,-0.48438 l -26.4959997,0.0039 c -2.2891,0 -4.15230003,-1.8633 -4.15230003,-4.1523 z"
         id="path2" />
    </g>
    <path
       d="m 14.473829,13.792049 c -2.3477,0 -4.2539,1.9023 -4.2539,4.25 0,2.3477 1.9023,4.2539 4.2539,4.2539 2.3477,0 4.2539,-1.9023 4.2539,-4.2539 0,-2.3477 -1.9023,-4.25 -4.2539,-4.25 z"
       id="path3" />
    <path
       d="m 27.758829,13.792049 c -2.3477,0 -4.2539,1.9023 -4.2539,4.25 0,2.3477 1.9023,4.2539 4.2539,4.2539 2.3477,0 4.2539,-1.9023 4.2539,-4.2539 0,-2.3477 -1.9023,-4.25 -4.2539,-4.25 z"
       id="path4" />
    <path
       d="m 41.043829,22.296049 c 2.3477,0 4.25,-1.9023 4.25,-4.2539 0,-2.3477 -1.9023,-4.25 -4.25,-4.25 -2.3477,0 -4.2539,1.9023 -4.2539,4.25 0,2.3477 1.9023,4.2539 4.2539,4.2539 z"
       id="path5" />
  </g>
</svg>
