<?xml version="1.0" encoding="UTF-8" standalone="no"?>
<svg
   version="1.1"
   viewBox="-5 -10 100 100"
   id="svg2"
   sodipodi:docname="operations.svg"
   width="100"
   height="100"
   inkscape:version="1.4.2 (1:1.4.2+202505120738+ebf0e940d0)"
   xmlns:inkscape="http://www.inkscape.org/namespaces/inkscape"
   xmlns:sodipodi="http://sodipodi.sourceforge.net/DTD/sodipodi-0.dtd"
   xmlns="http://www.w3.org/2000/svg"
   xmlns:svg="http://www.w3.org/2000/svg">
  <defs
     id="defs2" />
  <sodipodi:namedview
     id="namedview2"
     pagecolor="#ffffff"
     bordercolor="#000000"
     borderopacity="0.25"
     inkscape:showpageshadow="2"
     inkscape:pageopacity="0.0"
     inkscape:pagecheckerboard="0"
     inkscape:deskcolor="#d1d1d1"
     inkscape:zoom="6.0740741"
     inkscape:cx="49.22561"
     inkscape:cy="52.353659"
     inkscape:window-width="1920"
     inkscape:window-height="1003"
     inkscape:window-x="0"
     inkscape:window-y="0"
     inkscape:window-maximized="1"
     inkscape:current-layer="svg2" />
  <rect
     style="fill:#f8d0fb;stroke-width:8.89571;stroke-linecap:square;fill-opacity:1"
     id="rect2"
     width="100"
     height="100"
     x="-5"
     y="-10"
     ry="11.853659" />
  <path
     d="M 56.243866,27.013391 54.435657,25.00278 c -0.03318,-0.0365 -0.04313,-0.07963 -0.03318,-0.12608 0.345054,-1.579305 0.348375,-3.228258 0,-4.807564 -0.01,-0.04645 0,-0.08958 0.03318,-0.126079 l 1.808209,-2.010612 c 0.451224,-0.500988 0.524218,-1.204397 0.189119,-1.788334 l -0.985431,-1.70535 c -0.33842,-0.583937 -0.985431,-0.872551 -1.642328,-0.733238 l -2.647634,0.564028 c -0.04645,0.01 -0.08958,-0.0033 -0.126079,-0.03318 -1.181124,-1.081578 -2.597862,-1.911066 -4.16052,-2.405395 -0.04645,-0.01328 -0.07631,-0.04645 -0.0929,-0.08958 L 45.941994,9.17012 C 45.732975,8.529777 45.162305,8.111729 44.485507,8.111729 h -1.967464 c -0.67352,0 -1.247545,0.414727 -1.456488,1.058391 l -0.836096,2.571276 c -0.01328,0.04645 -0.04645,0.07631 -0.0929,0.08958 -1.562658,0.494354 -2.979395,1.323817 -4.160519,2.405395 -0.03318,0.03318 -0.07963,0.04313 -0.12608,0.03318 l -2.647634,-0.564028 c -0.660243,-0.139347 -1.307254,0.149301 -1.642328,0.733238 l -0.985431,1.70535 c -0.33842,0.583937 -0.262104,1.287295 0.18912,1.788334 l 1.808208,2.010612 c 0.03318,0.0365 0.04313,0.07963 0.03318,0.126079 -0.345053,1.579306 -0.345053,3.228259 0,4.807564 0.01,0.04645 0,0.08958 -0.03318,0.12608 l -1.808208,2.010611 c -0.451224,0.500989 -0.524219,1.204397 -0.18912,1.788334 l 0.985431,1.705351 c 0.33842,0.583937 0.985431,0.87255 1.642328,0.733238 l 2.647634,-0.564028 c 0.04645,-0.01 0.08958,0.0033 0.12608,0.03318 1.181124,1.081579 2.597861,1.911066 4.160519,2.405396 0.04645,0.01328 0.07631,0.04645 0.0929,0.08958 l 0.836096,2.571276 c 0.20902,0.640343 0.77969,1.058391 1.456488,1.058391 h 1.967464 c 0.673519,0 1.247544,-0.414727 1.456487,-1.058391 l 0.836096,-2.571276 c 0.01328,-0.04645 0.04645,-0.07631 0.0929,-0.08958 1.562658,-0.494355 2.979396,-1.323817 4.16052,-2.405396 0.03318,-0.03318 0.07963,-0.04313 0.126079,-0.03318 l 2.647634,0.564028 c 0.660244,0.139346 1.307255,-0.149301 1.642328,-0.733238 l 0.985431,-1.705351 c 0.335099,-0.583937 0.262105,-1.287294 -0.189119,-1.788334 z m 15.968872,-0.832774 c -0.431315,-0.394818 -0.457858,-1.065017 -0.06304,-1.496323 0.394819,-0.431307 1.065016,-0.457858 1.496322,-0.06304 l 2.299226,2.11347 c 0.04645,0.04313 0.116125,0.04976 0.172522,0.01659 0.05309,-0.0365 0.07963,-0.09954 0.05972,-0.162577 C 72.026905,13.284315 59.654831,3.9812434 45.411015,3.9812434 c -17.796701,0 -32.225678,14.4255796 -32.225678,32.2231296 0,17.79755 14.428977,32.223129 32.225678,32.223129 10.577116,0 20.301472,-5.129387 26.313262,-13.616136 0.338421,-0.477767 0.998681,-0.587258 1.476448,-0.248838 0.477767,0.33842 0.587258,0.998681 0.248838,1.476447 -6.416682,9.038071 -16.764725,14.512215 -28.039168,14.512215 -18.971369,0 -34.349085,-15.377716 -34.349085,-34.346537 0,-18.968821 15.377716,-34.3465366 34.349085,-34.3465366 15.020133,0 28.118159,9.7345486 32.663949,23.7159106 0.01991,0.05972 0.07299,0.09954 0.139346,0.09954 0.06304,-0.0033 0.116125,-0.04313 0.132713,-0.102849 l 0.690108,-2.485066 c 0.155934,-0.564028 0.739871,-0.892511 1.300544,-0.736559 0.564028,0.155934 0.892511,0.739871 0.736559,1.300544 l -1.884566,6.791591 v 0.0033 c -0.212341,0.836096 -1.181124,1.068329 -1.748499,0.544119 z M 45,42 l 0.826141,1.4333 c 0.282014,0.491034 0.222295,1.081579 -0.159255,1.502948 l -1.512885,1.682163 c -0.02986,0.0365 -0.04313,0.07963 -0.03318,0.12608 0.288648,1.320504 0.288648,2.700719 0,4.017911 -0.01,0.04645 0,0.08958 0.03318,0.126079 l 1.512885,1.682163 c 0.378229,0.421361 0.441269,1.011931 0.159255,1.502948 L 45,55.506892 c -0.282014,0.491042 -0.826141,0.733238 -1.380215,0.6138 l -2.216327,-0.471133 c -0.04645,-0.01 -0.08958,0.0033 -0.12608,0.03318 -0.988743,0.902449 -2.17318,1.595868 -3.477122,2.010612 -0.04645,0.01328 -0.07631,0.04645 -0.0929,0.08958 l -0.700065,2.149906 c -0.175843,0.537485 -0.656931,0.889198 -1.224271,0.889198 h -1.655579 c -0.567348,0 -1.048453,-0.348375 -1.224271,-0.889198 L 32.203108,57.78293 c -0.01328,-0.04313 -0.04645,-0.07631 -0.0929,-0.08958 -1.307255,-0.414727 -2.488379,-1.108163 -3.477122,-2.010612 -0.03318,-0.03318 -0.07963,-0.04313 -0.12608,-0.03318 l -2.216327,0.471133 c -0.554074,0.119438 -1.098226,-0.122758 -1.380215,-0.6138 l -0.826141,-1.4333 c -0.282014,-0.491034 -0.222295,-1.081579 0.159255,-1.502948 l 1.512886,-1.682163 c 0.02986,-0.0365 0.04313,-0.07963 0.03318,-0.126079 -0.288648,-1.320505 -0.288648,-2.700719 0,-4.021224 0.01,-0.04645 0,-0.08958 -0.03318,-0.126079 l -1.512886,-1.682164 c -0.378229,-0.42136 -0.441269,-1.011931 -0.159255,-1.502947 l 0.826141,-1.4333 c 0.282014,-0.491034 0.826141,-0.733238 1.380215,-0.613801 l 2.216327,0.471133 c 0.04645,0.01 0.08958,-0.0033 0.12608,-0.03318 0.988743,-0.902448 2.17318,-1.595868 3.477122,-2.010612 0.04645,-0.01328 0.07631,-0.04645 0.0929,-0.08958 L 32.90317,37.57074 c 0.175843,-0.540807 0.656931,-0.889198 1.224271,-0.889198 h 1.655579 c 0.567349,0 1.048453,0.348374 1.224271,0.889198 l 0.700062,2.149907 c 0.01328,0.04313 0.04645,0.07631 0.0929,0.08958 1.307255,0.414727 2.488379,1.108164 3.477122,2.010612 0.03318,0.03318 0.07963,0.04313 0.12608,0.03318 l 2.216327,-0.471133 c 0.554074,-0.116125 1.098226,0.12608 1.380215,0.617113 z m -10.042867,1.270732 c -3.025855,0 -5.481024,2.455169 -5.481024,5.481024 0,3.025855 2.455169,5.481024 5.481024,5.481024 3.025855,0 5.481024,-2.455169 5.481024,-5.481024 0,-3.025855 -2.451856,-5.481024 -5.481024,-5.481024 z M 60.182362,33.80798 c 4.999944,0 9.054208,4.054349 9.054208,9.054209 0,4.999944 -4.054349,9.054208 -9.054208,9.054208 -4.99986,0 -9.054209,-4.054349 -9.054209,-9.054208 0,-5.003257 4.054349,-9.054209 9.054209,-9.054209 z m -4.220315,10.82598 2.674134,2.674134 c 0.481088,0.481087 1.333755,0.428002 1.715289,-0.305244 0,-0.0033 0.0033,-0.0033 0.0033,-0.0066 l 4.216917,-7.30588 c 0.291969,-0.50763 0.116125,-1.151312 -0.388184,-1.443238 -0.50763,-0.291968 -1.151312,-0.116124 -1.443238,0.388185 l -3.483746,6.035148 c -0.02322,0.03981 -0.05972,0.06304 -0.10285,0.06967 -0.04645,0.0066 -0.08626,-0.0066 -0.119437,-0.03981 l -1.569368,-1.569367 c -0.414727,-0.414727 -1.084891,-0.414727 -1.499635,0 -0.418048,0.414726 -0.418048,1.088203 -0.0033,1.502947 z M 43.503592,15.95777 c 3.599855,0 6.51954,2.919685 6.51954,6.519539 0,3.599855 -2.919685,6.51954 -6.51954,6.51954 -3.599854,0 -6.519539,-2.919685 -6.519539,-6.51954 0,-3.603167 2.919685,-6.519539 6.519539,-6.519539 z"
     fill-rule="evenodd"
     id="path1"
     style="stroke-width:0.849363" />
</svg>
