<?xml version="1.0" encoding="UTF-8" standalone="no"?>
<svg
   viewBox="0 0 100 100"
   x="0px"
   y="0px"
   version="1.1"
   id="svg5"
   sodipodi:docname="others.svg"
   width="100"
   height="100"
   inkscape:version="1.4.2 (1:1.4.2+202505120738+ebf0e940d0)"
   xmlns:inkscape="http://www.inkscape.org/namespaces/inkscape"
   xmlns:sodipodi="http://sodipodi.sourceforge.net/DTD/sodipodi-0.dtd"
   xmlns="http://www.w3.org/2000/svg"
   xmlns:svg="http://www.w3.org/2000/svg">
  <defs
     id="defs5" />
  <sodipodi:namedview
     id="namedview5"
     pagecolor="#ffffff"
     bordercolor="#000000"
     borderopacity="0.25"
     inkscape:showpageshadow="2"
     inkscape:pageopacity="0.0"
     inkscape:pagecheckerboard="0"
     inkscape:deskcolor="#d1d1d1"
     inkscape:zoom="4.5947749"
     inkscape:cx="-4.3527704"
     inkscape:cy="30.251754"
     inkscape:window-width="1920"
     inkscape:window-height="1003"
     inkscape:window-x="0"
     inkscape:window-y="0"
     inkscape:window-maximized="1"
     inkscape:current-layer="svg5" />
  <rect
     style="fill:#cbffd2;stroke-width:8.89571;stroke-linecap:square;fill-opacity:1"
     id="rect2"
     width="100"
     height="100"
     x="0"
     y="0"
     ry="11.853659" />
  <g
     id="g4"
     transform="matrix(3.3214775,0,0,3.3214775,10.37128,9.1479556)">
    <path
       d="M 19,11.75 H 15 A 2.75,2.75 0 0 1 12.25,9 V 5 A 2.75,2.75 0 0 1 15,2.25 h 4 A 2.75,2.75 0 0 1 21.75,5 V 9 A 2.75,2.75 0 0 1 19,11.75 Z m -4,-8 A 1.25,1.25 0 0 0 13.75,5 V 9 A 1.25,1.25 0 0 0 15,10.25 h 4 A 1.25,1.25 0 0 0 20.25,9 V 5 A 1.25,1.25 0 0 0 19,3.75 Z"
       id="path1" />
    <path
       d="M 8,11.75 H 5 A 2.75,2.75 0 0 1 2.25,9 V 6 A 2.75,2.75 0 0 1 5,3.25 H 8 A 2.75,2.75 0 0 1 10.75,6 V 9 A 2.75,2.75 0 0 1 8,11.75 Z m -3,-7 A 1.25,1.25 0 0 0 3.75,6 V 9 A 1.25,1.25 0 0 0 5,10.25 H 8 A 1.25,1.25 0 0 0 9.25,9 V 6 A 1.25,1.25 0 0 0 8,4.75 Z"
       id="path2" />
    <path
       d="M 18,21.75 H 15 A 2.75,2.75 0 0 1 12.25,19 V 16 A 2.75,2.75 0 0 1 15,13.25 h 3 A 2.75,2.75 0 0 1 20.75,16 v 3 A 2.75,2.75 0 0 1 18,21.75 Z m -3,-7 A 1.25,1.25 0 0 0 13.75,16 v 3 A 1.25,1.25 0 0 0 15,20.25 h 3 A 1.25,1.25 0 0 0 19.25,19 V 16 A 1.25,1.25 0 0 0 18,14.75 Z"
       id="path3" />
    <path
       d="M 8,21.75 H 5 A 2.75,2.75 0 0 1 2.25,19 V 16 A 2.75,2.75 0 0 1 5,13.25 H 8 A 2.75,2.75 0 0 1 10.75,16 v 3 A 2.75,2.75 0 0 1 8,21.75 Z m -3,-7 A 1.25,1.25 0 0 0 3.75,16 v 3 A 1.25,1.25 0 0 0 5,20.25 H 8 A 1.25,1.25 0 0 0 9.25,19 V 16 A 1.25,1.25 0 0 0 8,14.75 Z"
       id="path4" />
  </g>
</svg>
