<?xml version="1.0" encoding="UTF-8" standalone="no"?>
<svg
   version="1.1"
   viewBox="-5 -10 100 100"
   id="svg7"
   sodipodi:docname="transport.svg"
   width="100"
   height="100"
   inkscape:version="1.4.2 (1:1.4.2+202505120738+ebf0e940d0)"
   xmlns:inkscape="http://www.inkscape.org/namespaces/inkscape"
   xmlns:sodipodi="http://sodipodi.sourceforge.net/DTD/sodipodi-0.dtd"
   xmlns="http://www.w3.org/2000/svg"
   xmlns:svg="http://www.w3.org/2000/svg">
  <defs
     id="defs7" />
  <sodipodi:namedview
     id="namedview7"
     pagecolor="#ffffff"
     bordercolor="#000000"
     borderopacity="0.25"
     inkscape:showpageshadow="2"
     inkscape:pageopacity="0.0"
     inkscape:pagecheckerboard="0"
     inkscape:deskcolor="#d1d1d1"
     inkscape:zoom="6.0740741"
     inkscape:cx="50.542683"
     inkscape:cy="55.810976"
     inkscape:window-width="1920"
     inkscape:window-height="1003"
     inkscape:window-x="0"
     inkscape:window-y="0"
     inkscape:window-maximized="1"
     inkscape:current-layer="svg7" />
  <rect
     style="fill:#fffeac;stroke-width:8.89571;stroke-linecap:square;fill-opacity:1"
     id="rect2"
     width="100"
     height="100"
     x="-5"
     y="-10"
     ry="11.853659" />
  <g
     id="g6"
     transform="matrix(0.76953948,0,0,0.76953948,5.0175264,0.83459203)">
    <path
       d="m 45.52,70.801 c -0.71484,0 -1.3789,-0.37891 -1.7383,-1 L 18.1797,25.254 7.9997,31.1602 C 7.53876,31.45317 6.9802,31.55082 6.4489,31.42192 5.9176,31.29302 5.46062,30.94926 5.1872,30.47661 4.91376,30.00395 4.84345,29.44141 4.9997,28.91411 c 0.15234,-0.52344 0.51562,-0.96484 1,-1.2148 l 11.914,-6.9102 c 0.46094,-0.26562 1.0078,-0.33984 1.5234,-0.20312 0.51172,0.14062 0.94922,0.47656 1.2148,0.9375 l 26.602,46.285 c 0.35547,0.61719 0.35547,1.3789 0,2 -0.35938,0.61719 -1.0156,1 -1.7305,1 z"
       id="path1" />
    <path
       d="m 58.051,74.176 c -0.90625,0.0039 -1.7031,-0.60547 -1.9375,-1.4766 -0.23438,-0.875 0.14453,-1.8008 0.92969,-2.2539 l 34.957,-20.27 c 0.94922,-0.5 2.1211,-0.16016 2.6602,0.76953 0.53516,0.92969 0.24609,2.1133 -0.66016,2.6875 l -34.949,20.273 c -0.30469,0.17578 -0.64844,0.26953 -1,0.26953 z"
       id="path2" />
    <path
       d="m 50.121,88 c -5.0703,-0.01172 -9.5039,-3.4219 -10.816,-8.3164 -1.3125,-4.8984 0.82422,-10.07 5.207,-12.613 2.5703,-1.4883 5.625,-1.8906 8.4883,-1.1211 2.8672,0.77344 5.3086,2.6562 6.7812,5.2305 3.0742,5.3633 1.2461,12.199 -4.0898,15.312 -1.6914,0.98828 -3.6133,1.5078 -5.5703,1.5078 z M 50.09366,69.562 c -1.2578,0 -2.4883,0.33594 -3.5742,0.96875 -3.4375,2.0078 -4.6133,6.4141 -2.625,9.8672 0.94531,1.6523 2.5078,2.8633 4.3477,3.3555 1.8359,0.49609 3.7969,0.23828 5.4453,-0.71484 3.4336,-2.0078 4.6055,-6.4102 2.625,-9.8594 -1.2773,-2.2305 -3.6523,-3.6055 -6.2188,-3.6094 z"
       id="path3" />
    <path
       d="m 55.559,61.93 c -0.70312,0 -1.4062,-0.09375 -2.0859,-0.27734 -2.0586,-0.53906 -3.8164,-1.8867 -4.8711,-3.7383 l -12.344,-21.484 c -2.1992,-3.8359 -0.89453,-8.7266 2.9258,-10.953 l 21.387,-12.398 -0.0039,-0.0039 c 1.8398,-1.0586 4.0234,-1.3477 6.0742,-0.79688 2.0508,0.55078 3.8008,1.8945 4.8594,3.7344 l 12.352,21.488 c 2.1953,3.8359 0.89063,8.7266 -2.9258,10.953 l -21.387,12.398 v 0.0039 c -1.207,0.70312 -2.582,1.0742 -3.9805,1.0742 z M 41.188,28.938 c -1.9141,1.1172 -2.5664,3.5742 -1.4648,5.5 l 12.348,21.484 c 1.1016,1.9141 3.5469,2.5742 5.4609,1.4727 l 21.387,-12.398 h -0.0039 c 1.918,-1.1211 2.5703,-3.5742 1.4688,-5.5 L 68.032,18.0047 C 66.9304,16.0945 64.489,15.4344 62.575,16.532 Z"
       id="path4" />
    <path
       d="m 53.699,42.648 h -0.05859 c -0.69531,-0.01953 -1.3281,-0.39844 -1.6758,-1 l -9.1719,-15.961 v 0.0039 c -0.54688,-0.95703 -0.22266,-2.1758 0.73047,-2.7266 l 12.711,-7.3711 v -0.0039 c 0.46094,-0.26562 1.0078,-0.33984 1.5234,-0.19922 0.51172,0.13672 0.94922,0.47266 1.2148,0.93359 l 9.1719,15.961 c 0.34766,0.60156 0.35547,1.3359 0.02734,1.9453 -0.328126,0.6094 -0.94922,1.0078 -1.6406,1.0469 l -7.1875,0.43359 -3.9727,6.0391 v 0.0039 c -0.37109,0.55859 -1,0.89844 -1.6719,0.89453 z m -6.4492,-17.227 6.5625,11.414 2.7344,-4.1602 v -0.0039 c 0.34766,-0.52734 0.92188,-0.85938 1.5508,-0.89844 l 4.9688,-0.30078 -6.5664,-11.418 z"
       id="path5" />
    <path
       d="m 67.816,45.102 c -0.90234,-0.0039 -1.6953,-0.60937 -1.9297,-1.4844 -0.2344,-0.87503 0.14844,-1.7969 0.92969,-2.25 l 6.3555,-3.6836 h 0.0039 c 0.45703,-0.27734 1.0078,-0.35547 1.5273,-0.22266 0.51953,0.13281 0.96484,0.46875 1.2344,0.93359 0.26562,0.46484 0.33984,1.0156 0.19531,1.5312 -0.14062,0.51953 -0.48437,0.95703 -0.95312,1.2188 l -6.3555,3.6836 c -0.30469,0.17969 -0.65234,0.27344 -1.0078,0.27344 z"
       id="path6" />
  </g>
</svg>
