<svg width="67" height="67" viewBox="0 0 67 67" fill="none" xmlns="http://www.w3.org/2000/svg">
<circle cx="33.5" cy="33.5" r="31" stroke="white" stroke-width="5"/>
<path d="M23.5011 48C23.9189 48.0007 24.3327 47.9189 24.7188 47.7593C25.1049 47.5997 25.4557 47.3655 25.7511 47.07L31.4161 41.41C31.6019 41.2242 31.7493 41.0036 31.8499 40.7608C31.9505 40.518 32.0022 40.2578 32.0022 39.995C32.0022 39.7322 31.9505 39.472 31.8499 39.2292C31.7493 38.9865 31.6019 38.7658 31.4161 38.58C31.2303 38.3942 31.0097 38.2468 30.7669 38.1462C30.5241 38.0457 30.2639 37.9939 30.0011 37.9939C29.7383 37.9939 29.4781 38.0457 29.2353 38.1462C28.9925 38.2468 28.7719 38.3942 28.5861 38.58L23.5011 43.665L21.4161 41.58C21.0408 41.2048 20.5318 40.9939 20.0011 40.9939C19.4704 40.9939 18.9614 41.2048 18.5861 41.58C18.2108 41.9553 18 42.4643 18 42.995C18 43.5258 18.2108 44.0348 18.5861 44.41L21.2511 47.075C21.5469 47.3696 21.8979 47.6029 22.284 47.7616C22.6701 47.9203 23.0837 48.0013 23.5011 48Z" fill="white"/>
<path d="M48.796 31.31C48.113 30.2808 47.1833 29.4388 46.0917 28.8606C45.0001 28.2825 43.7812 27.9867 42.546 28H42.216L42.621 26.785C42.9899 25.7314 43.093 24.603 42.921 23.5C42.665 21.9617 41.871 20.5643 40.6805 19.5569C39.49 18.5496 37.9805 17.9978 36.421 18H35.001C34.6716 17.9998 34.3473 18.0809 34.0569 18.2362C33.7664 18.3914 33.5188 18.616 33.336 18.89L25.931 30H22.501C21.9705 30 21.4618 30.2107 21.0868 30.5858C20.7117 30.9609 20.501 31.4696 20.501 32C20.501 32.5305 20.7117 33.0392 21.0868 33.4142C21.4618 33.7893 21.9705 34 22.501 34H27.001C27.3303 34.0002 27.6546 33.9191 27.9451 33.7638C28.2356 33.6086 28.4832 33.384 28.666 33.11L36.071 22H36.431C36.8383 22.0007 37.2396 22.098 37.6019 22.2838C37.9643 22.4697 38.2774 22.7389 38.5156 23.0693C38.7537 23.3997 38.9101 23.7818 38.9719 24.1844C39.0337 24.5869 38.9991 24.9984 38.871 25.385L37.056 30.835C37.0116 30.9681 36.9995 31.1098 37.0207 31.2485C37.0418 31.3872 37.0956 31.5188 37.1777 31.6326C37.2597 31.7464 37.3676 31.8391 37.4925 31.9029C37.6174 31.9668 37.7557 32.0001 37.896 32H42.566C43.0824 31.9914 43.594 32.0998 44.0625 32.3172C44.531 32.5345 44.9441 32.8552 45.271 33.255C45.6417 33.7191 45.8832 34.2728 45.971 34.8603C46.0588 35.4477 45.9898 36.0479 45.771 36.6L42.381 45.055C42.2708 45.3318 42.0807 45.5694 41.8349 45.7377C41.5892 45.906 41.2989 45.9973 41.001 46H34.086C33.5768 45.9899 33.0819 46.1688 32.6969 46.5022C32.3118 46.8355 32.0639 47.2997 32.001 47.805C31.9737 48.0836 32.0052 48.3648 32.0934 48.6304C32.1816 48.896 32.3246 49.1402 32.5131 49.3471C32.7016 49.554 32.9314 49.719 33.1877 49.8315C33.444 49.9439 33.7211 50.0014 34.001 50H41.001C42.0997 49.9999 43.1731 49.6707 44.083 49.0549C44.9929 48.4391 45.6975 47.5649 46.106 46.545L49.501 38.085C49.936 36.9821 50.099 35.7906 49.9763 34.6114C49.8536 33.4321 49.4487 32.2998 48.796 31.31Z" fill="white"/>
</svg>
