<svg width="67" height="67" viewBox="0 0 67 67" fill="none" xmlns="http://www.w3.org/2000/svg">
<circle cx="33.5" cy="33.5" r="31" stroke="white" stroke-width="5"/>
<path fill-rule="evenodd" clip-rule="evenodd" d="M39.0657 13.08L39.9131 13V20.561L40.6057 20.9591C40.1442 23.2147 39.6813 25.4702 39.2193 27.7255C39.0139 28.0437 38.8088 28.3618 38.6035 28.6806L34.0586 31.2274C33.211 33.2968 32.3637 35.3662 31.5161 37.4364C33.9551 36.3219 36.3949 35.2076 38.8346 34.0932C41.5564 36.1626 44.2782 38.232 47 40.3022C46.5895 41.0444 46.1784 41.7873 45.7672 42.5309C43.5076 41.576 41.248 40.5683 38.989 39.187C37.4736 40.2087 35.9586 41.0844 34.4432 41.8933C35.8812 42.769 37.32 43.6445 38.7574 44.5209C39.4505 44.9977 39.9384 45.582 40.2211 46.2715C41.3254 47.8633 42.4299 49.4553 43.5335 51.0472C43.0971 51.7909 42.6608 52.5332 42.2239 53.2761C40.4263 51.6048 38.6288 49.9337 36.8321 48.2615L29.0512 45.0778C28.373 44.8536 27.7226 44.598 27.153 44.2519V54H26.4014V43.6911C25.5783 42.9285 25.0639 41.819 25.1217 40.0628C25.1475 39.1345 25.1733 38.2056 25.1993 37.2772C23.9155 35.7121 22.631 34.1468 21.3478 32.5812C20.8599 32.1036 20.8851 31.6261 21.4246 31.1487C23.3506 29.53 25.2767 27.9114 27.2018 26.293C28.1009 25.1483 28.9994 25.3091 29.8986 25.6561C30.9505 26.4263 32.004 27.1952 33.0566 27.9649C34.4179 27.2218 35.7785 26.4789 37.1396 25.7361L39.1424 20.3238L39.0657 13.08ZM28.5891 22.7906C27.4534 18.9678 32.1169 15.9715 34.8287 18.7311C35.2419 19.1511 35.5654 19.4727 35.9848 19.5266H36.4462C36.9755 19.4671 37.1148 19.6376 36.7547 19.9249C34.0329 20.8798 31.3109 21.8349 28.5891 22.7906ZM28.9235 23.0806C31.0757 22.3074 33.2274 21.5344 35.3791 20.7605C37.259 25.9937 30.1733 27.9213 28.9235 23.0806Z" fill="white"/>
</svg>
