<svg width="67" height="67" viewBox="0 0 67 67" fill="none" xmlns="http://www.w3.org/2000/svg">
<circle cx="33.5" cy="33.5" r="31" stroke="white" stroke-width="5"/>
<path d="M45.8278 22.4822H40.8966L38.1228 19.43H28.8768L26.103 22.4822H21.1718C19.4767 22.4822 18.0898 23.8557 18.0898 25.5344V43.8478C18.0898 45.5265 19.4767 46.9 21.1718 46.9H45.8278C47.5229 46.9 48.9098 45.5265 48.9098 43.8478V25.5344C48.9098 23.8557 47.5229 22.4822 45.8278 22.4822ZM45.8278 43.8478H33.4998V42.3217C29.185 42.3217 25.7948 38.9642 25.7948 34.6911C25.7948 30.418 29.185 27.0606 33.4998 27.0606V25.5344H45.8278V43.8478ZM41.2048 34.6911C41.2048 30.418 37.8146 27.0606 33.4998 27.0606V29.8076C36.2736 29.8076 38.431 31.9441 38.431 34.6911C38.431 37.4381 36.2736 39.5747 33.4998 39.5747V42.3217C37.8146 42.3217 41.2048 38.9642 41.2048 34.6911ZM28.5686 34.6911C28.5686 37.4381 30.726 39.5747 33.4998 39.5747V29.8076C30.726 29.8076 28.5686 31.9441 28.5686 34.6911Z" fill="white"/>
</svg>
