<svg width="48" height="41" viewBox="0 0 48 41" fill="none" xmlns="http://www.w3.org/2000/svg">
<path d="M34.3053 25.7862H32.1372L31.3688 25.1532C34.0583 22.4808 35.6775 19.0114 35.6775 15.2373C35.6775 6.82161 27.6913 0 17.8388 0C7.98628 0 0 6.82161 0 15.2373C0 23.6529 7.98628 30.4746 17.8388 30.4746C22.2573 30.4746 26.319 29.0915 29.4477 26.7942L30.1887 27.4505V29.3025L43.9108 41L48 37.5071L34.3053 25.7862ZM17.8388 25.7862C11.0051 25.7862 5.48885 21.0743 5.48885 15.2373C5.48885 9.40023 11.0051 4.68839 17.8388 4.68839C24.6724 4.68839 30.1887 9.40023 30.1887 15.2373C30.1887 21.0743 24.6724 25.7862 17.8388 25.7862Z" fill="white"/>
</svg>
