<svg width="67" height="67" viewBox="0 0 67 67" fill="none" xmlns="http://www.w3.org/2000/svg">
<circle cx="33.5" cy="33.5" r="31" stroke="white" stroke-width="5"/>
<path d="M25.5714 40.5385C25.5714 39.8159 26.1628 39.2308 26.8929 39.2308H29.5357C30.2658 39.2308 30.8571 39.8159 30.8571 40.5385C30.8571 41.261 30.2658 41.8462 29.5357 41.8462H26.8929C26.1628 41.8462 25.5714 41.261 25.5714 40.5385ZM37.4643 41.8462H40.1071C40.8372 41.8462 41.4286 41.261 41.4286 40.5385C41.4286 39.8159 40.8372 39.2308 40.1071 39.2308H37.4643C36.7342 39.2308 36.1429 39.8159 36.1429 40.5385C36.1429 41.261 36.7342 41.8462 37.4643 41.8462ZM52 30.0769V31.3846C52 32.1071 51.4087 32.6923 50.6786 32.6923C49.9485 32.6923 49.3571 32.1071 49.3571 31.3846V30.0769C49.3571 29.356 48.7642 28.7692 48.0357 28.7692H46.7143V41.8462C46.7143 43.5494 45.6059 44.9862 44.0714 45.5289V48.3846C44.0714 49.8263 42.8854 51 41.4286 51H38.7857C37.3288 51 36.1429 49.8263 36.1429 48.3846V45.7692H30.8571V48.3846C30.8571 49.8263 29.6712 51 28.2143 51H25.5714C24.1146 51 22.9286 49.8263 22.9286 48.3846V45.5289C21.3941 44.9862 20.2857 43.5494 20.2857 41.8462V28.7692H18.9643C18.2358 28.7692 17.6429 29.356 17.6429 30.0769V31.3846C17.6429 32.1071 17.0515 32.6923 16.3214 32.6923C15.5913 32.6923 15 32.1071 15 31.3846V30.0769C15 27.9143 16.779 26.1538 18.9643 26.1538H20.2857V20.9231C20.2857 18.7605 22.0647 17 24.25 17H42.75C44.9353 17 46.7143 18.7605 46.7143 20.9231V26.1538H48.0357C50.221 26.1538 52 27.9143 52 30.0769ZM28.2177 48.3846L28.216 45.7692H25.5715V48.3846H28.2177ZM41.432 48.3846L41.4303 45.7692H38.7858V48.3846H41.432ZM44.0715 37.9231H22.9287V41.8462C22.9287 42.567 23.5216 43.1538 24.2501 43.1538H42.7501C43.4785 43.1538 44.0715 42.567 44.0715 41.8462V37.9231ZM44.0715 20.9231C44.0715 20.2022 43.4785 19.6154 42.7501 19.6154H24.2501C23.5216 19.6154 22.9287 20.2022 22.9287 20.9231V23.5385H36.1429C36.873 23.5385 37.4644 24.1236 37.4644 24.8462C37.4644 25.5687 36.873 26.1538 36.1429 26.1538H22.9287V35.3077H44.0715V26.1538H41.4287C40.6985 26.1538 40.1072 25.5687 40.1072 24.8462C40.1072 24.1236 40.6985 23.5385 41.4287 23.5385H44.0715V20.9231Z" fill="white"/>
</svg>
