<svg id="Layer_1" data-name="Layer 1" xmlns="http://www.w3.org/2000/svg" viewBox="0 0 458.21 389.42"><defs><style>.cls-1,.cls-6{fill:none;}.cls-2{fill:#fff;}.cls-3{fill:#c86c15;}.cls-4{fill:#d3ecfb;}.cls-5{fill:#2d2823;}.cls-6{stroke:#8ec5e0;stroke-miterlimit:10;stroke-width:2.33px;}</style></defs><title>FastRope_logo_branco e laranja</title><path class="cls-1" d="M525.94,401.77" transform="translate(-191.84 -102.93)"/><path class="cls-2" d="M234.6,371.53h-6.06l-6.91,0-6.82,0h-6.09c0,.61,0,1.33,0,2.16s0,1.57,0,2.22h25.19v10.27l-6.39,0-7.09,0-5.92,0-5,0q0,6.45,0,9.07c0,1.74,0,3.58,0,5.51H191.84c0-.47,0-2.74,0-6.83s0-9.4,0-15.91q0-4.08,0-10.7t0-8.73l7.45,0,12.33,0,12.06,0,10.92,0Z" transform="translate(-191.84 -102.93)"/><path class="cls-2" d="M296.33,395.7l-16.43,6.47q-.84-2-2.1-4.52c-.85-1.69-1.49-3-1.93-3.89H253.94q-.48,1.26-2.05,4.47L250,402.1l-15.41-6.75q1.2-2.18,8.88-15.41t12.34-21.38H275q5.13,8.9,12.75,22.33T296.33,395.7ZM271,383.59q-1.2-2.26-3.1-6.38c-1.27-2.74-2.26-4.84-3-6.28h-.19c-.75,1.57-1.81,3.82-3.18,6.73s-2.33,4.89-2.85,5.94l0,0H271Z" transform="translate(-191.84 -102.93)"/><path class="cls-2" d="M343,387.78a8.7,8.7,0,0,1-2.6,6.34,20.55,20.55,0,0,1-7.2,4.43,39.56,39.56,0,0,1-10.47,2.18q-6.28.58-11.6.59c-3.86,0-6.79,0-8.77-.1l-3.92-.12-1.95-13.67c.63,0,2,0,4.23.1s4.18.09,6,.09,3.21,0,4.66,0,2.86-.05,4.25-.14A10.52,10.52,0,0,0,319,387c.53-.25.8-.59.8-1a1.48,1.48,0,0,0-.85-1.21,13.88,13.88,0,0,0-3.65-1.12c-1.33-.27-2.89-.67-4.7-1.21a37.58,37.58,0,0,1-4.72-1.72,17.16,17.16,0,0,1-5.4-3.77,7.7,7.7,0,0,1-2.22-5.48,7.54,7.54,0,0,1,.83-3.28,10.24,10.24,0,0,1,2.82-3.3A27.62,27.62,0,0,1,313,359.61,71.85,71.85,0,0,1,329.57,358c2.31,0,4.56,0,6.77.08s3.48.09,3.84.11l2,13.41c-.77,0-1.82,0-3.14,0l-5.2,0c-1.57,0-3,0-4.36,0s-2.8.1-4.39.22a16.22,16.22,0,0,0-2.63.44c-.92.24-1.37.63-1.37,1.2s.56,1.12,1.68,1.46,2.18.64,3.17.87q2.81.66,5.52,1.51c1.82.57,3.13,1,3.92,1.26a13,13,0,0,1,5.89,3.91A8.56,8.56,0,0,1,343,387.78Z" transform="translate(-191.84 -102.93)"/><path class="cls-2" d="M396,372.79c-1.26,0-3.4,0-6.42,0s-6.3,0-9.82,0v10.84q0,5.34,0,10.5t0,6.47H362.24c0-.72,0-2.57,0-5.56s.05-6.61.09-10.85c0-1.82,0-3.56,0-5.19s0-3.71,0-6.21H346.18V358.52l9.21,0,15.66,0,13.4,0,11.54,0Z" transform="translate(-191.84 -102.93)"/><path class="cls-2" d="M477.67,394.89l-15.35,6.84q-1.79-2.12-7.28-8t-10.21-10.83l.38-1.14a15,15,0,0,0,3.4-.31,10,10,0,0,0,3.24-1.39,4.23,4.23,0,0,0,1.92-2.16,6.44,6.44,0,0,0,.41-2.09,3.92,3.92,0,0,0-1.08-2.55,7.09,7.09,0,0,0-3.42-2,20.24,20.24,0,0,0-3.17-.62,36.05,36.05,0,0,0-4-.2c-.21,0-.48,0-.8,0h-1.09c0,1.51,0,3.47,0,5.87s0,5.26,0,8.55q0,6,0,9.94c0,2.63,0,4.58,0,5.84H422.92v-7.42q0-6,0-15.32,0-8.37,0-13.17t0-6.26l6.1,0,6.33-.05q8.25,0,13.78.19a54.15,54.15,0,0,1,9.87,1.16q6.48,1.49,9.79,4.43a9.48,9.48,0,0,1,3.31,7.41,12.29,12.29,0,0,1-1.4,5.91,9.77,9.77,0,0,1-5.12,4.14v.12q1.47,1.36,4.59,4.66T477.67,394.89Z" transform="translate(-191.84 -102.93)"/><path class="cls-2" d="M543.24,379.81a18.05,18.05,0,0,1-2.36,9,23.78,23.78,0,0,1-7.52,7.79,28.52,28.52,0,0,1-9.18,4,52.86,52.86,0,0,1-23.82.12,29.45,29.45,0,0,1-9.54-4.06,25.8,25.8,0,0,1-7.64-7.74,17.2,17.2,0,0,1-2.53-9,18.41,18.41,0,0,1,2.34-9.13,22.65,22.65,0,0,1,6.69-7.3,30.44,30.44,0,0,1,9.72-4.6,46.66,46.66,0,0,1,12.39-1.48A49,49,0,0,1,524,358.76a31.93,31.93,0,0,1,9.82,4.33,21.43,21.43,0,0,1,7.18,7.43A19.29,19.29,0,0,1,543.24,379.81Zm-18.16-.36a6.54,6.54,0,0,0-1.34-4.2,9.92,9.92,0,0,0-3.7-2.74,14.53,14.53,0,0,0-3.78-1.09,28.79,28.79,0,0,0-4.44-.33,20.57,20.57,0,0,0-4.64.46,16.08,16.08,0,0,0-3.64,1.27,9.2,9.2,0,0,0-3.55,2.95,6.89,6.89,0,0,0-1.18,3.9,7.4,7.4,0,0,0,1.08,3.75,8.51,8.51,0,0,0,3.93,3.22,15.16,15.16,0,0,0,3.91,1.22,29.11,29.11,0,0,0,8.47,0,18,18,0,0,0,4-1.23,7.09,7.09,0,0,0,3.76-3.28A8.82,8.82,0,0,0,525.08,379.45Z" transform="translate(-191.84 -102.93)"/><path class="cls-2" d="M598,374.33a12.68,12.68,0,0,1-3.54,8.68,23.61,23.61,0,0,1-9.78,6.15,39.16,39.16,0,0,1-8.2,1.91,75,75,0,0,1-9.62.58l.06,9H549.15q0-2.26,0-9.62t0-13.12q0-4,0-10.07c0-4.08,0-7.19,0-9.36l4.2,0q3.14,0,6.75,0,7.41,0,13.09.25a67.25,67.25,0,0,1,9.81,1.07A21.81,21.81,0,0,1,593.77,365,12.28,12.28,0,0,1,598,374.33Zm-18.26,1.45a3.53,3.53,0,0,0-1.31-2.49,9.34,9.34,0,0,0-4-2,21.87,21.87,0,0,0-3-.54,34.89,34.89,0,0,0-3.68-.19H566.5c0,.15,0,.91,0,2.27s0,2.39,0,3.09c0,1.53,0,2.6,0,3.21s0,1.21,0,1.79h1.32c1.22,0,2.44,0,3.65-.14a20,20,0,0,0,3.34-.52,8.88,8.88,0,0,0,3.51-1.57A3.5,3.5,0,0,0,579.69,375.78Z" transform="translate(-191.84 -102.93)"/><path class="cls-2" d="M650.05,400.69l-11,0-13,0-12.23,0-8.3,0q0-.63,0-9.43t0-13.34q0-4.16,0-10.59c0-4.3,0-7.23,0-8.81l8,0,11.85,0,13.12,0,11.1,0V371H643l-7.22,0-7.38,0h-6.09v4l7,0,5,0,7.51,0,7.17,0v9.1h-6.4l-8.09,0-6,0h-6.12v4.16q2.17,0,7.08,0l7.75,0,6.61,0h6.27Z" transform="translate(-191.84 -102.93)"/><path class="cls-1" d="M510.14,399.48" transform="translate(-191.84 -102.93)"/><path class="cls-2" d="M298.72,444.91l-3.37.38L289.82,427h0l-5.11,7q-4.25,5.83-6.44,9h-3.12q-2.78-3.85-6.6-9.08t-4.77-6.47l-.11,0q-4.71,13.88-5.91,17.8l-3.31-.34q2.13-5.7,7.21-20.66l3.31-.3q7.17,9.78,12,16.18h.09q3.26-4.53,11.84-16.21l3.08.17Q297,439.75,298.72,444.91Z" transform="translate(-191.84 -102.93)"/><path class="cls-2" d="M352.14,444.15l-2.93,1.39-2-2.76q-1.78-2.46-3.75-5.08H327.31q-2.46,3.35-3.73,5c-.85,1.1-1.54,2.05-2.07,2.84l-2.37-1.15q.63-.86,5.65-7.47t9.81-13.13H337q4.57,6.21,9.8,13.15T352.14,444.15Zm-10.24-8.61q-1.31-1.85-3.12-4.32t-3.31-4.46h-.07q-1.18,1.64-3.3,4.46t-3.2,4.32v0h13Z" transform="translate(-191.84 -102.93)"/><path class="cls-2" d="M403.25,434.73a6.7,6.7,0,0,1-2,4.71,14.72,14.72,0,0,1-5.72,3.51,33.7,33.7,0,0,1-6.7,1.7,54.85,54.85,0,0,1-8.14.55l-5.1-.07c.07-3.88.1-7.38.07-10.5q0-3.54-.05-6.14c0-1.73,0-3.2,0-4.4l4.1,0a62.79,62.79,0,0,1,9.11.61,34.56,34.56,0,0,1,7.32,1.79,13.89,13.89,0,0,1,5.33,3.51A7.13,7.13,0,0,1,403.25,434.73Zm-3.45,0a5.21,5.21,0,0,0-1.54-3.71,12.24,12.24,0,0,0-4.68-2.77,30.32,30.32,0,0,0-6-1.47,49,49,0,0,0-7.34-.51H379q0,4.9-.05,7.95c0,2,0,3.75,0,5.3s0,2.73,0,3.55h1.21a50.11,50.11,0,0,0,7.11-.43,29.75,29.75,0,0,0,5.74-1.34,14.06,14.06,0,0,0,5-2.75A5.06,5.06,0,0,0,399.8,434.7Z" transform="translate(-191.84 -102.93)"/><path class="cls-2" d="M450.06,445.1l-10.74,0h-5.63c-1.93,0-3.38,0-4.36,0q.09-4.83.09-10.29c0-1.32,0-2.93,0-4.83s0-3.84,0-5.84h4.08l5.61,0,10.72,0v2.26l-10.52,0h-6.52c0,.81,0,1.8,0,3s0,2.44,0,3.75l4.13,0h3.37l9.58,0v2.26l-9.23,0-3.14,0h-4.71q0,6.94,0,7.47h3.46l4.66,0,9.24,0Z" transform="translate(-191.84 -102.93)"/><path class="cls-2" d="M477.25,445.13q.11-5.78.1-10.31c0-1.19,0-2.76,0-4.7s0-3.95-.08-6h3.11c0,1.5-.05,3.24-.07,5.23s0,3.6,0,4.86c0,3.18,0,6.84.1,10.95Z" transform="translate(-191.84 -102.93)"/><path class="cls-2" d="M531.93,445.26q-9-6.39-14.22-9.89l.07-.19a14.33,14.33,0,0,0,2.61-.63,14.54,14.54,0,0,0,2.47-1.09,5.17,5.17,0,0,0,1.73-1.45,3,3,0,0,0,.53-2,2.78,2.78,0,0,0-1-2,7,7,0,0,0-3.09-1.34,18.11,18.11,0,0,0-3.12-.4c-1.17-.06-2.32-.09-3.46-.09l-2.15,0c0,2.49-.07,4.32-.06,5.5s0,2.13,0,2.83c0,1.35,0,4.86,0,10.53h-3.37q.06-7.39.08-10.46V424.09l6.28-.06c1.48,0,2.92.06,4.31.17a22.85,22.85,0,0,1,3.86.64,9.23,9.23,0,0,1,3.89,2,4.09,4.09,0,0,1,1.38,3.1,4.83,4.83,0,0,1-1.33,3.29,9.9,9.9,0,0,1-4.17,2.5v0q2.22,1.61,11,7.56Z" transform="translate(-191.84 -102.93)"/><path class="cls-2" d="M587.48,444.15l-2.93,1.39-2-2.76q-1.79-2.46-3.75-5.08H562.65q-2.46,3.35-3.73,5c-.85,1.1-1.54,2.05-2.07,2.84l-2.37-1.15q.63-.86,5.65-7.47t9.81-13.13h2.36q4.58,6.21,9.8,13.15T587.48,444.15Zm-10.24-8.61q-1.31-1.85-3.12-4.32t-3.31-4.46h-.07q-1.18,1.64-3.3,4.46t-3.2,4.32v0h13Z" transform="translate(-191.84 -102.93)"/><path class="cls-3" d="M328.86,485.25c-.25,1.09-.47,2.17-.67,3.24s-.39,2.25-.58,3.52h-1.13a43,43,0,0,1-8-.68,19.64,19.64,0,0,1-6.23-2.23,11.17,11.17,0,0,1-3.58-3.1,7.2,7.2,0,0,1,0-8.05,10.69,10.69,0,0,1,3.61-3.11,20.81,20.81,0,0,1,6.46-2.27,42.77,42.77,0,0,1,7.76-.68h.9c.12.76.27,1.75.47,3s.44,2.48.74,3.79h-1.07c-.38,0-1.16,0-2.36.1a26.35,26.35,0,0,0-3.17.34,11.8,11.8,0,0,0-3.3,1,1.93,1.93,0,0,0,0,3.63,11.9,11.9,0,0,0,3.29,1.05,26.62,26.62,0,0,0,3.15.34c1.27.06,2,.1,2.36.1h1.34Z" transform="translate(-191.84 -102.93)"/><path class="cls-3" d="M356.44,490.09l-9.69,2.17c-.18-.6-.4-1.28-.64-2s-.42-1.35-.55-1.75h-6.49l-.51,1.69c-.28.9-.5,1.6-.67,2.1l-9.38-2.17,3.52-7.34c2-4.21,3.71-7.77,5.06-10.66h10.83q2.35,5,5.26,11.15C355.12,487.32,356.2,489.6,356.44,490.09Zm-12.37-6.24c-.24-.74-.53-1.64-.85-2.7s-.62-2-.88-2.82h-.11c-.24.8-.55,1.78-.91,2.95s-.62,2-.8,2.58v0h3.57Z" transform="translate(-191.84 -102.93)"/><path class="cls-3" d="M383,472.08c0,1.92,0,3.57,0,4.94s0,2.64,0,3.77c0,1.48,0,3.17,0,5.1s0,3.37,0,4.33l-6.67,2q-3.33-3.54-6-6.12t-3.68-3.48l-.14.06c0,1.42,0,3.08,0,5s0,3.25,0,4.07h-9c0-.8,0-2.15,0-4s0-4,0-6.16c0-.93,0-2.07,0-3.4s0-2.81,0-4.4l7-2.17c.94.93,2.13,2.06,3.56,3.42s3.38,3.15,5.82,5.37l.1,0c0-1.16,0-2.46,0-3.91s0-2.9,0-4.35Z" transform="translate(-191.84 -102.93)"/><path class="cls-3" d="M409.76,473.76c-.52.74-1.66,2.36-3.44,4.84s-3.29,4.65-4.53,6.46c0,1.41,0,2.59,0,3.54s0,2,0,3.16h-9.67c0-.92,0-1.84,0-2.76s0-2.2,0-3.85q-1.77-2.64-4.28-6.16l-3.69-5.23,9.5-2.17,1.82,3.09c.56,1,1.13,1.92,1.72,2.88h0l2.09-3.59,1.37-2.38Z" transform="translate(-191.84 -102.93)"/><path class="cls-3" d="M437.46,481.93a9,9,0,0,1-1,4.29,10.48,10.48,0,0,1-3.26,3.57,12.72,12.72,0,0,1-4.19,1.9,20,20,0,0,1-5.23.66,20.4,20.4,0,0,1-5.17-.63,12.92,12.92,0,0,1-4.24-1.9,10.78,10.78,0,0,1-3.26-3.54,8.8,8.8,0,0,1-1.11-4.35,8.92,8.92,0,0,1,1-4.18,10.29,10.29,0,0,1,3-3.41,13.26,13.26,0,0,1,4.28-2.1,19.37,19.37,0,0,1,5.47-.72,20.71,20.71,0,0,1,5.31.65,13.19,13.19,0,0,1,4.37,2,10,10,0,0,1,3.12,3.48A9.1,9.1,0,0,1,437.46,481.93Zm-9.91.05a5.36,5.36,0,0,0-.36-1.89,3.15,3.15,0,0,0-1.19-1.54,3.91,3.91,0,0,0-1-.5,4.25,4.25,0,0,0-1.34-.19,3.5,3.5,0,0,0-2.39.82,3.61,3.61,0,0,0-1.06,1.46,4.58,4.58,0,0,0-.37,1.78,5,5,0,0,0,.35,1.83,3.54,3.54,0,0,0,2.19,2.06,4.08,4.08,0,0,0,1.35.2,3.7,3.7,0,0,0,1.26-.2,3.56,3.56,0,0,0,1.06-.55,3.34,3.34,0,0,0,1.12-1.51A4.9,4.9,0,0,0,427.55,482Z" transform="translate(-191.84 -102.93)"/><path class="cls-3" d="M465.64,472.08c0,1.92,0,3.57,0,4.94s0,2.64,0,3.77c0,1.48,0,3.17,0,5.1s0,3.37,0,4.33l-6.67,2q-3.33-3.54-6-6.12c-1.8-1.72-3-2.88-3.68-3.48l-.14.06c0,1.42,0,3.08,0,5s0,3.25,0,4.07h-9c0-.8,0-2.15,0-4s0-4,0-6.16c0-.93,0-2.07,0-3.4s0-2.81,0-4.4l7-2.17c.94.93,2.12,2.06,3.56,3.42s3.38,3.15,5.82,5.37l.1,0c0-1.16,0-2.46,0-3.91s0-2.9,0-4.35Z" transform="translate(-191.84 -102.93)"/><path class="cls-3" d="M479.1,491.76h-9.66c0-1.16,0-2.57,0-4.23s0-3.78,0-6.32c0-1.17,0-2.57,0-4.22s0-3.27,0-4.91h9.66c0,1.26,0,2.7,0,4.31s0,3.22,0,4.82c0,2.51,0,4.44,0,5.8S479.1,490,479.1,491.76Z" transform="translate(-191.84 -102.93)"/><path class="cls-3" d="M508.33,472.08c0,1.92,0,3.57,0,4.94s0,2.64,0,3.77c0,1.48,0,3.17,0,5.1s0,3.37,0,4.33l-6.67,2q-3.33-3.54-6-6.12T492,482.66l-.14.06c0,1.42,0,3.08,0,5s0,3.25,0,4.07h-9c0-.8,0-2.15,0-4s0-4,0-6.16c0-.93,0-2.07,0-3.4s0-2.81,0-4.4l7-2.17c.94.93,2.13,2.06,3.57,3.42s3.37,3.15,5.81,5.37l.11,0c0-1.16,0-2.46,0-3.91s0-2.9,0-4.35Z" transform="translate(-191.84 -102.93)"/><path class="cls-3" d="M534.43,481.41c0,.8,0,1.63,0,2.51s0,1.7,0,2.43,0,1.56,0,2.12,0,1.64,0,3.26a22.9,22.9,0,0,1-2.34.16c-1.36.06-2.42.09-3.19.09a36.26,36.26,0,0,1-6.82-.61,23,23,0,0,1-6.24-2.24,10.45,10.45,0,0,1-3.53-3,7.22,7.22,0,0,1-.12-8.15,10.68,10.68,0,0,1,3.64-3.13,21.57,21.57,0,0,1,6-2.17,39.82,39.82,0,0,1,8.38-.78h1.51l1.22,6.66H531.3c-.45,0-1.26,0-2.42.07a21.39,21.39,0,0,0-3.32.4,8.3,8.3,0,0,0-3.42,1.38,2.73,2.73,0,0,0-1.25,2.21,2.91,2.91,0,0,0,.59,1.81,4.19,4.19,0,0,0,1.4,1.22,7.17,7.17,0,0,0,1,.42,7,7,0,0,0,1.36.35v-1.57c0-.83,0-2,0-3.44Z" transform="translate(-191.84 -102.93)"/><path class="cls-3" d="M383.3,148.33l-3.42,5.06-3.77,11-5.72,12.38-5.16,11L359,193.59l-1.21,9.19-2.33,7.72,6.17,8,.23,8.46,2,4-2.3,2.78-1.2,8.48q-.42-.15-.9-.27c-.36-.12-.72-.21-1.1-.31s-.75-.21-1.15-.31c-.87-.21-1.8-.36-2.69-.57s-1.9-.3-2.86-.4l-1.47-.17-.86,1.82c-.18.38-.37.73-.55,1.1l-2,1.73-2.25-2.09L341.62,238l-7.54-.06-.11-1.26-.84-2.11-2-2.49-2.08,1.17-.2.12-2.29,1.16L325,235.8l-.08-.17h-1.06l-.12.29-2,3.94V240l-.72,3.75-1.56-.69-.1-.05h-.12l-4.9-.26-.66,0,0,.68-.05,3.9-1.13,5.06-2.92.56-.63.13v.67l-.05,2-1.45,2.41,0,.06-.05.1-1.21,3.16,0,.13v.2l-.12,5.64,0,.23a73.48,73.48,0,0,1-38.68-31.61L301,234.38,273,234.17l8.5-1.15-16.58-1.21a73.47,73.47,0,0,1,.53-67.59l35,.9-29.87-2.53,57.5-2.07L274.56,160l6.22-2-12,.52a73.57,73.57,0,0,1,18.3-19.18l20.5-1.26-18.53-.13a73.2,73.2,0,0,1,79.58-1.61c-9.11.69-33.93,2.56-33.93,2.58.18,0,36.53,2.79,42,3.21a70.2,70.2,0,0,1,6.5,6.05Z" transform="translate(-191.84 -102.93)"/><path class="cls-4" d="M384.86,248.83a144.29,144.29,0,0,0-3.48,18.84,110.35,110.35,0,0,1,2.6-19.05c1.38-6.27,3.25-12.42,5.21-18.53s4.33-12.07,6.82-18,5.17-11.74,8.13-17.42c-2.58,5.86-5,11.8-7.31,17.75s-4.57,11.94-6.54,18S386.4,242.63,384.86,248.83Z" transform="translate(-191.84 -102.93)"/><path class="cls-4" d="M401.29,216.66a129.77,129.77,0,0,1,4.42-14.72,80.75,80.75,0,0,1,6.55-13.88A145.37,145.37,0,0,0,407,202.37c-1.51,4.85-2.94,9.72-4,14.68S400.85,227,400.13,232s-1.31,10.07-1.9,15.16c-.05-2.56-.07-5.12,0-7.67s.26-5.12.55-7.66A134.36,134.36,0,0,1,401.29,216.66Z" transform="translate(-191.84 -102.93)"/><path class="cls-4" d="M410.6,217.65a112.15,112.15,0,0,1,4.16-15.29,83.75,83.75,0,0,1,6.74-14.3,102.91,102.91,0,0,0-9.59,29.84,116.8,116.8,0,0,0-1.18,31.24c.13,2.61.68,5.17,1,7.77l.56,3.88c.26,1.28.6,2.54.89,3.82l1.83,7.62,2.47,7.46,1.22,3.73,1.54,3.62,3.11,7.23c2.2,4.76,4.89,9.29,7.25,14l-4.08-6.76c-1.3-2.29-2.83-4.47-3.94-6.87l-3.35-7.17-1.67-3.6-1.34-3.73-2.65-7.48-1.94-7.7c-.31-1.29-.66-2.57-.94-3.86l-.61-3.93c-.35-2.62-.93-5.22-1.09-7.87l-.45-7.94c0-2.65.1-5.3.15-8l.05-2,.2-2,.41-3.95A72,72,0,0,1,410.6,217.65Z" transform="translate(-191.84 -102.93)"/><path class="cls-2" d="M423.35,294.27,420.24,287l-1.54-3.62-1.22-3.73L415,272.23l-1.83-7.62c-.29-1.28-.63-2.54-.89-3.82l-.56-3.88c-.32-2.6-.87-5.16-1-7.77a116.8,116.8,0,0,1,1.18-31.24,102.91,102.91,0,0,1,9.59-29.84,83.75,83.75,0,0,0-6.74,14.3,112.15,112.15,0,0,0-4.16,15.29,72,72,0,0,0-1.25,7.85l-.41,3.95-.2,2-.05,2c-.05,2.65-.19,5.3-.15,8l.45,7.94c.16,2.65.74,5.25,1.09,7.87l.61,3.93c.28,1.29.63,2.57.94,3.86l1.94,7.7,2.65,7.48,1.34,3.73,1.67,3.6,3.35,7.17c1.11,2.4,2.64,4.58,3.94,6.87l4.08,6.76C428.24,303.56,425.55,299,423.35,294.27Zm-4.82,28.87A76.31,76.31,0,0,1,413,316a64,64,0,0,1-4.64-7.75A58.11,58.11,0,0,1,403.05,291a49,49,0,0,1,.75-18.12,37,37,0,0,0-2.35,9,45.37,45.37,0,0,0-.3,4.66,34.8,34.8,0,0,0,.13,4.68,50.56,50.56,0,0,0,5,18,62.27,62.27,0,0,0,10.93,15.13,22,22,0,0,0,2.14,2.07,9.43,9.43,0,0,1,1-1.25C419.72,324.52,419.11,323.84,418.53,323.14Zm-12.82-121.2a129.77,129.77,0,0,0-4.42,14.72,134.36,134.36,0,0,0-2.5,15.17c-.29,2.54-.39,5.1-.55,7.66s-.06,5.11,0,7.67c.59-5.09,1.07-10.15,1.9-15.16s1.7-10,2.85-14.95,2.49-9.83,4-14.68a145.37,145.37,0,0,1,5.28-14.31A80.75,80.75,0,0,0,405.71,201.94ZM396,212.11q-3.74,8.87-6.82,18c-2,6.11-3.83,12.26-5.21,18.53a110.35,110.35,0,0,0-2.6,19.05,144.29,144.29,0,0,1,3.48-18.84c1.54-6.2,3.4-12.32,5.43-18.37s4.24-12.05,6.54-18,4.73-11.89,7.31-17.75C401.18,200.37,398.49,206.2,396,212.11ZM383.74,307a117.53,117.53,0,0,1-.83-14.17,105.61,105.61,0,0,1,.89-14.28,53.17,53.17,0,0,0-2.93,14.2,73.82,73.82,0,0,0,.25,14.56A86.16,86.16,0,0,0,383,317.58a21.16,21.16,0,0,1,2.24-.71C384.63,313.59,384.14,310.28,383.74,307Z" transform="translate(-191.84 -102.93)"/><path class="cls-5" d="M428.33,174l-.05.1.06-.1Zm0,0-.05.1.06-.1Zm0,0-.05.1.06-.1Zm0,0-.05.1.06-.1Zm0,0-.05.1.06-.1Zm0,0-.05.1.06-.1Zm0,0-.05.1.06-.1Zm0,0-.05.1.06-.1Zm0,0-.05.1.06-.1Zm0,0-.05.1.06-.1Zm0,0-.05.1.06-.1Zm0,0-.05.1.06-.1Zm0,0-.05.1.06-.1Zm0,0-.05.1.06-.1Zm0,0-.05.1.06-.1Zm0,0-.05.1.06-.1Zm0,0-.05.1.06-.1Z" transform="translate(-191.84 -102.93)"/><path class="cls-2" d="M640,254.45c-.4-3.32-.84-6.67-2.38-9.72-.65-1.33-1.14-2.73-1.88-4a39,39,0,0,0-6.87-8.87,8.21,8.21,0,0,0-4.84-2.51,6.75,6.75,0,0,0-6.42,3.07c-1.84,2.51-3.58,5.1-5.52,7.52-2.14,2.67-4.42,5.21-6.65,7.79a10.81,10.81,0,0,1-5.45,3.63c-3.93,1-8.52-.37-10.36-5.35-1.3-3.51-2.77-7-4-10.5a33.94,33.94,0,0,1-2-7.07,20.63,20.63,0,0,1,2-11.78c1.79-3.56,4.49-6.47,6.7-9.73,1.7-2.51,3.56-4.88,5.1-7.49a45.13,45.13,0,0,0,4.95-12.2,46.9,46.9,0,0,0,1.24-14.84c-.42-5.75-2.1-11.25-4-16.67a98.13,98.13,0,0,0-5-11.64,76.07,76.07,0,0,0-7.17-11.7c-2.75-3.66-5.73-7.15-8.8-10.54a82.14,82.14,0,0,0-14-11.94c-3-2.12-6.59-2.45-9.69-.38-2.35,1.56-2.32,4.22.05,5.71a13.9,13.9,0,0,1,2.49,1.9,33.29,33.29,0,0,1,3,3.31A8.82,8.82,0,0,1,562.2,125a8.33,8.33,0,0,1-9.17,9.26c-3.56-.32-7.1-.79-10.59-1.46a126.48,126.48,0,0,1-12.87-3c-5.05-1.54-10-3.52-15-5.29-2.52-.9-4.91-2-7.75-1.67a10.42,10.42,0,0,0-7.4,4,46,46,0,0,0-6.57,11.71,49.7,49.7,0,0,0-3.19,23.76A76.58,76.58,0,0,0,491,170.6h2.89l6.61,9.17,1,.23h0l0,.05,4.49,2.23h.09v.05c.28.42.54.93.77,1.35h-.09l2.44,3.61-2.09,1.65,1.11.84.52.39,1.41,1v0l1.82,1.28,2,1.47,1.88,2.65,3.75-.93,2,.26c-.8-.93-1.54-1.86-2.29-2.82a56.89,56.89,0,0,1-7-11.47,58.8,58.8,0,0,1-3.68-10.06,68.38,68.38,0,0,1-1.51-7.21,48.22,48.22,0,0,1-.54-7.08c0-4.58,2.17-8,6-10.45a12.91,12.91,0,0,1,5.47-1.72,102.24,102.24,0,0,1,15.75,0A98,98,0,0,1,554,148.12q7.68,2,15.26,4.4a23.56,23.56,0,0,1,16.06,15.1,25.1,25.1,0,0,1,1.26,9.47,30.63,30.63,0,0,1-5.33,15.53,106.92,106.92,0,0,1-9.36,12.61,27.84,27.84,0,0,1-6.16,5.66c-1.61,1-3.29,1.79-4.94,2.65a23.12,23.12,0,0,1-14.57-.21c-.37-.12-.74-.26-1.11-.4l2.44,2.82,5.05,7.7v6.8l-2,6.54-.58,5.49-.77,1.28c1,2.1,1.87,4.29,2.7,6.45,1.26,3.23,2.31,6.52,3.8,9.66a11.63,11.63,0,0,1,.53,1.14,9.75,9.75,0,0,1,.65,1.93v0l3.26,3.24,1.49,4.14-1.88,3.93,5.63,10.76c2.3-.28,4.58-.61,6.84-1.1a112.3,112.3,0,0,0,11.27-3.28,52.31,52.31,0,0,0,6.65-2.7c3.26-1.6,6.43-3.37,9.59-5.16a15.76,15.76,0,0,0,5.49-4.57,105.72,105.72,0,0,1,9.24-12.31c1.56-1.74,3.15-3.44,4.75-5.17a7.88,7.88,0,0,1,4.66-2,4.71,4.71,0,0,1,4.07,1.82c2.37,2.42,3.26,5.53,3.68,8.77a19.18,19.18,0,0,1-.82,8,2.85,2.85,0,0,0,3.4,3.86c2.91-.67,4.49-2.67,5.19-5.44A30.35,30.35,0,0,0,640,254.45ZM581.1,268c-.86.35-1.72.68-2.61,1s-1.81.58-2.72.81c-6.1,1.56-10-4.21-9-9a6.3,6.3,0,0,1,4.26-4.45,35,35,0,0,1,5.68-1.6,7,7,0,0,1,8.24,4.33A7.05,7.05,0,0,1,581.1,268Z" transform="translate(-191.84 -102.93)"/><path class="cls-1" d="M381.38,308.33" transform="translate(-191.84 -102.93)"/><path class="cls-1" d="M421.43,178.61" transform="translate(-191.84 -102.93)"/><path class="cls-6" d="M377.83,317" transform="translate(-191.84 -102.93)"/><path class="cls-2" d="M583.29,329.06a6.31,6.31,0,0,0-.09-.86c-.28-1.4-3.05-5.12-3.05-5.12l-1.65-5.63-2.26-4.26-4.77-2.59-5.56-9.37-1.21-6.08-1.24-6.33-7.05-13.71,1.89-3.91L556.85,267l-3.56-3.63-4.89-1.49-2.79-4-2.05,0-3.93-3.4,3.42-5.05,3.79-6.19.63-5.49,2.1-6.52,0-6.79-5-7.75-4.68-5.47-1.25-.68-2.87-1.42-1.51-3.3-1.65-3.52-8.8-4.93-7-1-3.75.89-1.86-2.66-2-1.49-1.79-1.28v0L506,190.82l-.51-.38-1.12-.84,2.12-1.65-2.42-3.63h.09a10.21,10.21,0,0,0-.76-1.35v0h-.07l-4.5-2.26v0h0l-1-.28-6.57-9.19-4.25,0-3.64-4.57L482,163.17l-2.21-5.36-7.59-4.58-3.07-3.4-3.12,0-4.75-5.4-3.86-9.92-6.5-1.74-3.67,1.67,0-3.12-5.33-3.67-2.23-4.54-4,2.79-3.17,3.66-1.95.51-7-6.82-5.31-3.54-1.42-2.42-3.72-1.56L406.41,113l-5.3-8.26-7-1.74-5.38,0-2.86,4.5-2.72,3.67-2.72,10.66-.05,5.94,5.28,8.24-4.28,5.88,1.86,6.28h0l.07.22h0l-1.38,2-2,3-1.42,4.14-.32.95-1.06,3.09-1,2.81-1.32,2.86-.86,1.85-3.55,7.67-3.11,6.63-.13.27-.48,1-1.42,3h0l-3,2.84-.86.8L359,193.58h0l-1.21,9.19-2.33,7.72,6.17,8,.23,8.45h0l1.94,4v0l-1.67,2-.23.27-.13.16-.14.17-.13.16h0l-1.21,8.46v0c-.13-.05-.26-.11-.39-.15a3.8,3.8,0,0,0-.51-.15l-1.07-.3h0l-1-.27-.18,0-.15,0-.5-.11c-.67-.16-1.36-.27-2.05-.43-.46-.08-.94-.16-1.41-.22l-1.43-.17-1.46-.19v0l0,0-.86,1.78c-.16.37-.37.72-.53,1.11l-2.05,1.7-2.26-2.07-2.79-4.7-3.75,0h-1.82l-1.95,0-.07-.66,0-.15-.05-.45-.34-.88-.06-.17-.41-1.06-2-2.49h0l-2.08,1.18-.21.12-2.26,1.14h0L325,235.8l-.07-.17h-1.07l-.11.28h0l-2,3.94V240l-.72,3.75h0l-1.55-.68-.09,0h-.05l-.09,0-2.79-.13-.47,0-1.63-.08-.66,0h0l0,.67-.05,3.91-1.11,5h0l-.47.09-2.46.47-.62.12v.67l0,2h0l-1.46,2.41,0,.07,0,.09-1.19,3.14h0l-.07.11v.21l-.11,5.63,0,.25v.21l.35.33,1.58,1.49-.76,2.86-3.08,2-.3.18-.14.33L302,278.35l0,.09-.07.16-1.21,5.24-.09.3.09.33,1.24,5.79-2.21,4.89-7.75,5.54-8,5.93-.72.52,0,.95-.16,6.28-1.35,4.68c-.51,1.61-.93,3.24-1.49,4.87l-1.53,3.35c-21.67,1.44-53.6,4-75.29,6.82l10.26.79,220.75,2.35,172.6.93,0-1.42C583,333.3,590.74,331.69,583.29,329.06ZM474.65,197.55h0v0l0,3.34,8.82-10.3a9,9,0,0,1,2.89-.56h.09a4.87,4.87,0,0,1,.54,0,2.58,2.58,0,0,1,.39,0l.25.05a2.33,2.33,0,0,1,.57.17l.18.08a.66.66,0,0,1,.19.09l.25.16c.2.14.4.27.61.39s.36.23.54.33.32.19.48.27c.37.21.72.39,1,.54l.48.23.64.3.22.1h.05a.36.36,0,0,0,.16,0l0-.08v-.06l.06-.11.11-.19a2.86,2.86,0,0,1,.32-.41,1,1,0,0,1,.41-.29l.11,0h0a.55.55,0,0,1,.33,0l.14,0h.11a3.09,3.09,0,0,0,.7-.06c.23,0,.47-.1.72-.16l.81-.23.72-.23.75-.25a.91.91,0,0,1,.26-.09l-1.7,3.85s-2.56,2.24-2.87,3.09c-.1.3-.3.78-.51,1.31-.09.22-.17.46-.24.69s-.14.47-.19.7,0,.23-.05.33a1.94,1.94,0,0,0,0,.64.78.78,0,0,0,.11.28,1.31,1.31,0,0,0,.27.31,9.16,9.16,0,0,0,1.32,1c.12.08.24.15.34.23l.09.07.17.14a.93.93,0,0,1,.14.14.89.89,0,0,1,.2.29.38.38,0,0,1,0,.13c0,.07,0,.11,0,.14a.05.05,0,0,1,0,0,.3.3,0,0,1-.08.07l-.09,0a.68.68,0,0,0-.25.32l-.06.18s0,0,0,.06a2.78,2.78,0,0,0-.07.39,3.3,3.3,0,0,0,0,.58.31.31,0,0,0,0,.1,2.69,2.69,0,0,0,0,.31s0,.07,0,.11a.59.59,0,0,0,0,.13.29.29,0,0,0,0,.09,1.05,1.05,0,0,0,.06.24.58.58,0,0,0,.05.14.61.61,0,0,0,.05.12,4.39,4.39,0,0,0,.64.92,2.22,2.22,0,0,1,.25.35l.09.18a.8.8,0,0,1,.07.2.27.27,0,0,1,0,.12.58.58,0,0,1,0,.19,1.72,1.72,0,0,1,0,.33,2.07,2.07,0,0,1-.12.65,6.49,6.49,0,0,1-1.1,1.74c-.34.42-.69.81-.94,1.18a2.55,2.55,0,0,0-.29.48,1.18,1.18,0,0,0-.11.46.26.26,0,0,1-.11.2,1.26,1.26,0,0,1-.27.2l0,0a8,8,0,0,1-1.24.47l-.15.05-.43.12-1.15.3-.86.21h-.06c-2.47.59-5.13,1.23-5.29,2a6.75,6.75,0,0,1-1.31,1.91l-.2.23-.59.66-1,1-.67.68c-.56.57-1.12,1.12-1.62,1.61-.09.1-.19.19-.28.28s-.37.35-.53.51l-.24.23c-.07.07-.15.13-.21.2l-.19.18-.46.43c-.66,1.09-1.35,2.23-2.09,3.42l-1.5,2.43L472,233.67l-1.63,2.59L469.25,238c-.65,1-1.31,2.06-2,3.1-1.09,1.69-2.18,3.4-3.28,5.1-.82,1.28-1.65,2.56-2.47,3.82l-1.23,1.89a.6.6,0,0,1-.09.15l-1.42,2.18-4.35,6.66-3.42,5.2c-.26.41-.53.81-.78,1.2l-2.12,3.19,0,0a34.83,34.83,0,0,1,0-6.57c0-.24,0-.47.05-.69,0-.37.06-.74.09-1.09.08-1.05.17-2,.22-2.75a.88.88,0,0,0,0-.23.09.09,0,0,0,0-.05.61.61,0,0,0,0-.15.18.18,0,0,0-.11-.17.27.27,0,0,0-.2,0h0a1.21,1.21,0,0,0-.4.26,9.57,9.57,0,0,0-.82.84l-.31.38-.44.55-.45.59c-.67.91-1.35,1.89-1.88,2.67l-.26.4a4.14,4.14,0,0,0-.23.35c-.08.12-.15.23-.22.32l-.27.42-.11-.12-1-1a.64.64,0,0,1-.1-.13,4.43,4.43,0,0,1-.4-.94c-.07-.21-.13-.43-.19-.67-.12-.49-.24-1.05-.35-1.65-.06-.3-.11-.62-.17-.94-.08-.48-.16-1-.24-1.48-.1-.67-.2-1.35-.29-2-.07-.49-.14-1-.2-1.43,0-.31-.09-.61-.13-.89s-.12-.81-.18-1.16-.08-.44-.11-.63l-.11-.5a3.49,3.49,0,0,1,0-1.18,3.71,3.71,0,0,1,.09-.62,2.21,2.21,0,0,1,.06-.34,5.87,5.87,0,0,1,.14-.68c.26-1.05.62-2.21,1-3.27l.15-.43c.59-1.65,1.16-3,1.21-3.11l-.86-.7-.17-.14-.58-.47,13.62-20.32,2.11-5.75.77-2.1h0l-.54-6.21,3.12-3.21h0l5.68-3.21s-.47-9.19.07-9.82,0-6.07,0-6.07l5.82-3.17.14-.07s.25.43.54,1c.05.09.09.18.13.27l.21.47.14.33q.14.33.24.66a2.54,2.54,0,0,1,.14,1.72h0a1.18,1.18,0,0,0-.1.27.75.75,0,0,0,0,.16,1.55,1.55,0,0,0-.05.23,6.18,6.18,0,0,0-.12.73c0,.18,0,.38-.06.58s0,.37,0,.56,0,.49,0,.75a17,17,0,0,0,.49,5.47,4.59,4.59,0,0,0,.24.5l.12.23a12.11,12.11,0,0,0,1.71,2.34ZM459,180.79c.26,1,.67,2.27,1.12,3.62l.69,2c.24.68.46,1.36.68,2a.66.66,0,0,1,0,.15c0,.15.09.32.15.49s.14.5.21.77.07.28.1.43.08.29.11.45c.14.61.27,1.27.38,2,.06.33.1.67.14,1v0c0,.34.08.69.1,1a11.07,11.07,0,0,1-.13,2.86,4.26,4.26,0,0,1-.14.54,3.54,3.54,0,0,1-.18.49,3.22,3.22,0,0,1-.2.37l-.12.17a.48.48,0,0,1-.13.16l-.08.1-.07.07a1.86,1.86,0,0,1-.27.22,4.23,4.23,0,0,1-.42.25,4.79,4.79,0,0,1-.45.25l-.36.18a2.64,2.64,0,0,1-.38.18l-.52.24c-.92.4-1.91.8-2.82,1.22l-.32.15c-.31.14-.61.29-.89.45l-.42.25-.32.21a3.55,3.55,0,0,0-.31.23l-.29.25c-.09.09-.18.17-.26.26a1.3,1.3,0,0,0-.15.2.71.71,0,0,0-.1.14c-.05.09-.09.17-.13.26a1.21,1.21,0,0,0-.13.42c0,.15,0,.31-.05.48,0,.33-.09.71-.15,1.1-.09.59-.19,1.24-.3,1.92-.38,2.26-.86,4.85-1.24,6.78a.65.65,0,0,1,0,.13.34.34,0,0,1-.06.12,1.87,1.87,0,0,1-.39.42,2.43,2.43,0,0,1-.29.21l-.42.24-.41.21c-.38.17-.82.35-1.31.53l-.76.26h0c-.8.26-1.7.52-2.66.78l-.75.19-.76.19h0l-1,.25c-2.14.49-4.47,1-6.73,1.37l-2.78.5-3.65.61-.55.09-.54.08-.65.1-.81.13-.65.1H426l-.66.1-.84.12-1.1-4.71.9-2.35.49-1.29h0V209.1l0-4.51,2.74-2.58,7.61-14.07h0l4.19-8,.1-.16h0l2.9,4.2.16.23,1.77-7.54,13.34.11H459a.59.59,0,0,0,0,.14c0,.06,0,.13,0,.21l0,.15a6.57,6.57,0,0,0-.11.82,2.11,2.11,0,0,0,0,.25,2.26,2.26,0,0,0,0,.26A7.05,7.05,0,0,0,459,180.79Zm-32.49-36a1.84,1.84,0,0,1,.09-.61,1,1,0,0,1,.07-.28.32.32,0,0,1,0-.09.6.6,0,0,1,.07-.14s0,0,0,0h0l.69-1.32h0s10.35-4.19,10.63-4.19l.11.23.08.16,0,.1a5.69,5.69,0,0,0,.45.57l.1.1.29.28c.26.23.49.44.72.61s.66.46.93.67l1.19,5.24,1.21,5.4,1.23-3.7h0l3.44,4,1,9.42.26,2.31L451,162.1l5.21-4,.14-.14.12-.14.62-.89h0c.14.3.28.58.46,1,.05.1.16.17.23.28a1.61,1.61,0,0,0,.4.28,1.34,1.34,0,0,0,1.19,0,1.24,1.24,0,0,0,.3-.21c.09-.07.19-.14.21-.21a1.34,1.34,0,0,0,.21-.3,4.33,4.33,0,0,0,.46-.86,9.18,9.18,0,0,0,.35-1.09h0l1.14-.46.86,2.3.28.65.7.05,5.68.12c.68.65,1.37,1.26,2.07,1.88.37.35.72.7,1.07,1.05l.27.28.12.14.1.14.19.18h0a2,2,0,0,0,.11.3.54.54,0,0,1,.05.11l-7.33-1-1.46-.77-.77-.41-.4-.26-.42.19c-2.77,1.07-5.49,2.14-8.24,3.35-.35.16-.72.32-1.09.51l-.3.19h0l-.14.11a.78.78,0,0,0-.16.15.94.94,0,0,0-.1.1l0,0h0a.91.91,0,0,0-.09.17l-.07.11a.33.33,0,0,1,0-.13.88.88,0,0,0,.12-.15l-.05,0,0,0-.42.2c-.46.2-1,.4-1.49.57-1.26.47-2.61.91-3.91,1.28-2.21-.09-4.35-.25-6.59-.28l-.88.05-.49,0-.3,0h-.17a2.88,2.88,0,0,0-.42.14,1.67,1.67,0,0,0-.27.14h0l-.32.32-.3.26-.63.58-2.49,2.26-2.47,2.28-1.17,1.1-.09.09-.32.35-.06.06a.27.27,0,0,1-.08.07h0v0l-.05.07v0a4.71,4.71,0,0,1-.49.28l-1.39.66-.89.41.35-.59.62-1.05.05-.1h0l.18-.31,2.32-3.94.63-1.09h0l-1.05-.74-3-5.4v0l.06,0h0a3.1,3.1,0,0,0,.42,0,.78.78,0,0,0,.3,0l.17,0,.17-.06s0,0,0,0l.21-.12a.24.24,0,0,0,.09-.08,1,1,0,0,0,.35-.32,1,1,0,0,0,.14-.24,1,1,0,0,0,.16-.55V161h0l0-.58-.26-2.07c-.05-.66-.07-1.31-.09-1.91,0-.35,0-.63,0-.89a2.15,2.15,0,0,1,.09-.42V155a2.26,2.26,0,0,0,.17-.35,1.64,1.64,0,0,0,.11-.58,3.33,3.33,0,0,0,0-.84,9.07,9.07,0,0,0-.25-1.28,17.24,17.24,0,0,0-.75-2.1,38.68,38.68,0,0,0-1.86-3.91,1,1,0,0,1-.16-.3c0-.09-.07-.16-.1-.25A1.79,1.79,0,0,1,426.5,144.81Zm.64,29.16a24.07,24.07,0,0,0-10.35,12c.31-.43,5.23-7.39,11.49-10.62h0c.22.1.37.22.33.35-.89,2.71.08,1-.81,3.73-2.91,8.78-5.65,17.62-8.81,26.32-3.08,8.5-5.64,17.24-5.61,26.32a93.69,93.69,0,0,0,.9,12.41,103,103,0,0,0,6.12,23c7,18,18.58,34.25,32.09,48.3q4,4.17,8.3,8.09a20.41,20.41,0,0,0-2,.4c-1.53-1.53-6.7-5.88-12.87-1.91a12.8,12.8,0,0,0-4.62-2.75c-3-1-7.92-1.43-14.2,2.5a7.88,7.88,0,0,0-7.48,2.36,11.07,11.07,0,0,0-.89,1.08,12.53,12.53,0,0,0-13.3-6.23c-8.95-4.88-16-4.57-20.41-3.44a20.91,20.91,0,0,0-2.35.74,18.93,18.93,0,0,0-4.84,2.67c-9.05-5.3-17.05.36-19,1.91a32.4,32.4,0,0,0-4.41-.77h-.09c.18-11.64,3.79-23.46,7.28-34.43q.75-2.34,1.52-4.67c5.06-15.16,11.18-30,17.6-44.62S393.32,207,401.34,193c3.19-5.6,6.71-12,11.84-16.07a7.07,7.07,0,0,1,4.8-2,28.85,28.85,0,0,0-11.88,15.57c1-2.49,4.62-10.33,14.75-15.87h0c.39-.22.8-.43,1.22-.64l-.61.49c-1.56,1.27-5.5,4.64-6.2,6.71,0,0,5.88-5.15,10.51-6.79C426.31,174.26,426.91,173.91,427.14,174Zm34.69,151.78c7.63-.83,11.08,4.88,12.25,7.54l-13.39-.15c-1-1.68-3.84-5.07-9.8-3.53,0,0-3.48-3.3-7.52-.74,0,0-4.07-3.88-10.94-.09a4.63,4.63,0,0,0-5.38,2.93c-.05.1-.09.2-.13.3a6.14,6.14,0,0,0-1.64-.57h0a4.52,4.52,0,0,0-2.5.15,11.2,11.2,0,0,0-3.49.41,8.2,8.2,0,0,0-1-.07c-2.34-2.13-5.47-.95-6.32-.56l-.22.1a.84.84,0,0,0-.06-.14,5.76,5.76,0,0,0-6.69-4c-8.42-4.87-13.56-.16-13.56-.16a7.29,7.29,0,0,0-4-1.29,7.37,7.37,0,0,0-1.59.18,8.59,8.59,0,0,0-3,1.33,6.28,6.28,0,0,0-.67.51,16.31,16.31,0,0,0-2.09-.44,6,6,0,0,0-4.11-.65c-.31-.17-.61-.34-.91-.48-4-2-7.15-1.89-9.32-1.27a8.67,8.67,0,0,0-3.33,1.7c-5-3.24-9.33.8-9.33.8-7.44-2-11,2.17-12.21,4.18l-5.6-.06c1.77-3.14,7.21-10.47,19.1-9.24a29.22,29.22,0,0,1,4.61.85l.54.13.4-.37c.34-.31,8.31-7.59,17.57-1.67l.66.42.56-.53a15.91,15.91,0,0,1,4.78-2.76,20.66,20.66,0,0,1,2.14-.67c4.08-1.06,10.74-1.32,19.26,3.43l.35.2.39-.1c.34-.1,8.31-2.1,12.21,6.65l.85,1.9,1-1.86a10.83,10.83,0,0,1,.64-1.08,8.33,8.33,0,0,1,.89-1.11,5.85,5.85,0,0,1,5.87-1.72l.46.16.41-.26c10.92-7.07,17,0,17.21.27l.61.74.76-.57c6.12-4.55,11.11,1.31,11.32,1.56l.41.51.64-.18A17.27,17.27,0,0,1,461.83,325.75ZM372,193.66a12,12,0,0,1,.91,1.14,1.82,1.82,0,0,1,.23.39,3,3,0,0,1,.16.36c.07.14.13.29.19.44a26.58,26.58,0,0,1,1,2.74l.51,1.42.25.7.1.35.05.12s0,0,0,.07a.61.61,0,0,0,.07.1l0,0,0,0a.15.15,0,0,0,.08.08l.1.07h0l.1,0,.22.08a3.39,3.39,0,0,0,.9.17c.18,0,.35,0,.54,0h.34a2.58,2.58,0,0,0,.47,0,2.5,2.5,0,0,0,.44-.07.42.42,0,0,0,.15,0l.08,0,.08,0a.3.3,0,0,0,.11-.07,1.31,1.31,0,0,0,.12-.13.72.72,0,0,0,.09-.4c0-.07,0-.16,0-.18v0l0-.09-.07-.17-.12-.37-.21-.72-.49-1.42c-.3-.95-.65-1.89-1-2.79s-.72-1.89-1.12-2.77-.77-1.82-1.07-2.73a5.79,5.79,0,0,1-.26-1.32,2.21,2.21,0,0,1,.26-1.17,13.09,13.09,0,0,0,1.07-2.84c.49-1.93,1-3.84,1.58-5.67a10.27,10.27,0,0,1,1.07-2.54.87.87,0,0,1,.26-.3l.11-.08a.7.7,0,0,1,.24-.14h0a.61.61,0,0,1,.14.14,1.51,1.51,0,0,1,.14.44l0,.16.1.12,3.91,5,1,1.37.19-1.74.65-7.89h0l0-.16,0-.14c-.12-.53-.37-1.14-.4-1.49a12.09,12.09,0,0,1-.07-1.6c0-1.14.1-2.28.17-3.42l.09-1.68,0-.89a1.94,1.94,0,0,1,.1-.76,13.42,13.42,0,0,1,.3-1.68,14.12,14.12,0,0,0,1.61,1.26l.12.07a2.6,2.6,0,0,0,.46.18.9.9,0,0,0,.6.07h.12a.6.6,0,0,0,.31-.1l.06,0,.16-.13a1.83,1.83,0,0,0,.13-.16l.08-.1.1-.21h0c0-.1.05-.19.07-.26a2.39,2.39,0,0,0,0-.36.22.22,0,0,1,0-.09,2.06,2.06,0,0,0,0-.36l0-.13c0-.61-.09-1.17-.14-1.72-.05-.33-.09-.67-.12-1-.11-1-.19-2-.2-2.93a16,16,0,0,1,.14-2.61,10,10,0,0,1,.28-1.54,1.05,1.05,0,0,1,.23-.51,3.44,3.44,0,0,1,.42-.58,8.07,8.07,0,0,0,.56-.83c.16-.28.31-.56.44-.85a6.36,6.36,0,0,0,.56-2,4.36,4.36,0,0,0-.4-2.24,11.68,11.68,0,0,0-.9-1.58c-.47-.72-.91-1.37-1.35-2,.56-.53,1.14-1.07,1.7-1.56l.28-.22a1.12,1.12,0,0,1,.18-.13h.07l.4-.08a7.93,7.93,0,0,1,.93-.09l.32,0,7.59,2.7c.32.13.67.24,1,.34l1,.24.25.07.08,0a1.72,1.72,0,0,0,.6,0,2,2,0,0,0,1-.35l.34-.19a4.69,4.69,0,0,0,.75-.6l.63-.61h0l.05,0,.51.16,1,.35,1.94.67,1.9.66c.6.21,1.17.42,1.69.66l.26.12.24.12a5.89,5.89,0,0,1,.7.42l.3.24a3.44,3.44,0,0,1,.27.27c.21.23.43.5.74.84l.34.36.67.67.17.18c.16.17.33.33.49.52a31.32,31.32,0,0,1,2.39,3.14,5.66,5.66,0,0,1,.44.64.83.83,0,0,1,.07.13l.1.17c.09.18.19.38.28.58.23.58.44,1.18.67,1.79s.38,1.23.54,1.84a4.1,4.1,0,0,1,.14.72,1.41,1.41,0,0,0,.09.39l.05.19c0,.12.07.14.09.21l.19.35.3.51c.37.61.74,1.17,1.12,1.72l-3.66,1.86-.72.23-12.75,4.17-.26.12-.21.14-8.26,6.65L396.34,174h0l-.46.41h0l-.09.63-.87,9.19h-.15l-.19,0L393,172.94l-.84-5.95-1.86,5.7-3,9.15,0,.15,0,.14h0l-.7,9.49c-.23,3.17-.39,6.36-.65,9.55l-.58,9.51,0,7.77-.07-.06h0l-9.12-7.28a27.37,27.37,0,0,0-.86-3.05c-.1-.25-.24-.55-.35-.83a1.75,1.75,0,0,0-.33-.47,1,1,0,0,0-.95-.37,1.17,1.17,0,0,0-.72.44h0l-.08.1a1.51,1.51,0,0,1-.19.22c-.12-.19-.21-.44-.33-.67-.19-.51-.39-1-.58-1.51-.33-1-.65-2.07-.93-3.12-.36-1.32-.7-2.64-1-4-.07-.4-.14-.8-.2-1.21,0-.21-.06-.41-.08-.61s0-.41-.07-.62c-.14-1.66-.23-3.35-.3-5C370.13,191.49,371.08,192.56,372,193.66Zm-35.31,117,6.29-4.46,1.06-.75.1-11.64,6.49-5.6h0l-3.49-10.31v0l4-9.17,3.26-7.56,6.68-17.92,24.1-24.83L383.56,221l-7.1,11.38-5.33,5.74h0L363,244.41h0l-1,4.93-1.74,8.41-4.84,9.29-.12.28-1.7,4.2-1.7,4.2,1.65,9.26.49,5.54-6.14,2.75-.82,16.15-7.79,3L337,321.24l-.53,3.07-2.86.12ZM288,316.4l-1.72,10.36c-.44,0-.89.06-1.33.09l-1.34.07h0l.24-.55.45-1.07h0l.12-.46c.13-.46.26-.92.37-1.37.29-1.07.57-2.13.84-3.2l1.32-5.06.05-.28v-.21l-.05-5.7h0l.42-.32,1-.8,1.12-.87h0Zm43.15-51.53-.54-.29L329.5,264c-.18-.1-.35-.22-.52-.33l-.37-.29h0c-.12-.09-.22-.17-.33-.27l-.2-.2a5.43,5.43,0,0,1-.62-1c-.35-.73-.67-1.48-1-2.25s-.62-1.54-.92-2.32-.58-1.58-.85-2.36-.54-1.56-.8-2.34l0-.07,0,0-4.21-4.2h0l0,6.79c0,.27,0,.54,0,.81s0,.5.06.75.05.54.08.81c.06.51.13,1,.2,1.54.05.3.09.59.14.89.07.47.15.93.22,1.39s.18,1,.28,1.52c.28,1.51.62,3,1,4.52.07.25.15.5.22.75l.12.38a8.93,8.93,0,0,0,.4,1.09,7,7,0,0,0,.35.73,3.29,3.29,0,0,0,.23.33,8.32,8.32,0,0,0,.75.9c.34.4.69.75,1,1.15s.76.85,1.13,1.28c.19.21.37.43.55.65s.37.43.54.65.49.62.72.94.29.41.43.62l.4.65.26.46a4.28,4.28,0,0,1,.23.55,2.76,2.76,0,0,1,.08.27,1.4,1.4,0,0,1,.06.28,2.19,2.19,0,0,1,0,.36h0a1.91,1.91,0,0,1-.14.74,3.79,3.79,0,0,1-.18.42,3.3,3.3,0,0,1-.23.41,2.71,2.71,0,0,1-.24.35c-.09.13-.18.26-.28.38-.23.3-.48.6-.73.91a7.45,7.45,0,0,0-.87,1.33,4.59,4.59,0,0,0-.31.77,3.87,3.87,0,0,0-.12.83c0,.27,0,.54,0,.81,0,0,0,0,0,0s0,0,0,0h0a.06.06,0,0,0,0,.06c0,.25,0,.5,0,.75s0,.42.05.63l0,.29.06.53c0,.52.09,1,.14,1.55.09,1,.2,2,.32,3.06.06.51.12,1,.19,1.51l.37,3.07.07.49.06.41.1.64,0,.31v0l-.3-.25-.3-.27-.59-.55-.39-.37-.71-.73c-.48-.47-.95-1-1.41-1.46l-1-1.13q-.51-.57-1-1.17a13.24,13.24,0,0,1-1.23-1.72l-.29-.52-.12-.21a2.52,2.52,0,0,1-.14-.51s0,0,0,0,0,0,.05-.15.1-.28.14-.44.11-.52.16-.78.09-.54.12-.8a3.42,3.42,0,0,0,0-.46s0-.05,0-.07,0-.29,0-.43c.05-.67.08-1.35.1-2a.76.76,0,0,0,0-.15c0-.17,0-.33,0-.5,0-.43,0-.86,0-1.29s0-.87-.06-1.31c0-.27,0-.53,0-.79s-.06-.78-.11-1.18-.09-.53-.15-.81c0-.13-.06-.27-.1-.41-.14-.47-.25-.94-.35-1.43s-.13-.73-.18-1.1-.11-.75-.15-1.13-.13-1-.19-1.51h0c0-.25-.07-.5-.11-.75,0-.09,0-.18,0-.26,0-.35-.07-.69-.12-1a.13.13,0,0,0,0-.06c0-.32-.09-.65-.15-1a.13.13,0,0,0,0-.06c0-.12,0-.24,0-.36s0-.25-.07-.38-.07-.45-.12-.67-.1-.43-.16-.65c-.09-.4-.21-.8-.33-1.19L318,267c-.62-2-1.33-3.86-2-5.82v0l-1.38-3.6v0h0l-.05,3.91-.14,8.64,0,2.79v.95l0,1.79h0l-2.18,2.54-.28.35c0,.05-.09.13-.14.22l-.2.31-.12.22-.11.22c-.08.15-.15.29-.22.44l-.18.44c-.06.14-.13.29-.18.43s-.24.58-.34.87c-.43,1.14-.83,2.3-1.21,3.51-.15.58-.32,1.18-.46,1.79a8,8,0,0,0-.29,1.94.61.61,0,0,0,0,.14c0,.14,0,.28,0,.4l.07.25h0l.16.47.32.87.15.43c.14.42.27.82.39,1.24a8,8,0,0,1,.25.89,4.67,4.67,0,0,1,.12.7,2.75,2.75,0,0,1,0,.43l0,.11s0,0-.07.09a.25.25,0,0,0,0,.07.8.8,0,0,1-.15.18l-.26.3-.28.29c-.2.2-.4.38-.61.57s-.67.56-1,.83l-.33.28-.44.32,0,0c-.16.13-.33.25-.49.36-.4.3-.8.59-1.21.87l-.74.5-.77.53.39.86,5.92,12.52h0l-6.07,1.87h0l-1.44-1.76L299,309.6l-.38-.46-2.53,0-1.33,0-.05,1.37-.08,6.29,0,1.63-.06,4.65v.35l.14.25c.21.44.42.88.64,1.3l.64,1.26-1,.07-.82.05-1,0h0a.81.81,0,0,1,0-.16c0-.12,0-.24,0-.33a.37.37,0,0,0,0-.12c0-.17-.05-.33-.08-.49-.05-.35-.09-.68-.15-1,0-.14-.05-.28-.08-.43-.22-1.27-.45-2.51-.69-3.75-.12-.62-.24-1.24-.35-1.86s-.23-1.24-.35-1.86L289.53,307l4.44-3.47,3.42-2.63,4.45-3.42.37-.27.17-.35,2.39-5.82.19-.44-.11-.45-1.49-6h0l1-4.82,1.31-3,3.07-2.05.37-.3.09-.42.24-1,.23-1,.47-2,.11-.58v-.1l-.44-.39-.58-.53L308,267h0l0-5,1-2.95h0l2-1.25.53-.55.95-1h0l.06-.32.1-.48v0l-1.43-.65-.32-.14-.35-.16h0l.75-.18,2-.47.48-.1h0l.12-.48,2.31-.77.71-.24-.25-3.65.79-.63.16-1.46L319,245.3l2.24-.16.77,1.15,1,1.51h0l.19-2.53h0l.93-4,.19-.68.1-.37.38-1.35h0l2.13,2.35,1.33,2.41c.12.19.23.39.34.6l.3.62c.1.21.19.42.28.63s.19.43.29.64l4.72,10,1.07,10.44-.19-.07-.15,0a1.4,1.4,0,0,1-.29-.09l-.13-.05c-.38-.11-.75-.28-1.14-.42s-.76-.33-1.13-.51-.51-.24-.76-.37ZM570,316.52l0,0-.2.23-.26.3c-.23.26-.5.59-.78.95-.15.2-.31.4-.46.61h0c-.15.2-.28.4-.41.59a3.32,3.32,0,0,0-.33.65,1.54,1.54,0,0,0,0,.17.45.45,0,0,0,0,.11c0,.11,0,.35-.06.68v0c0,.14,0,.3,0,.47s0,.39-.07.62,0,.25,0,.38l0,.26c0,.13,0,.27-.05.41s0,.09,0,.14c0,.3-.07.62-.11.95s-.09.75-.14,1.13c-.12.92-.24,1.82-.34,2.61l-6.14-.4-6.15-.36-.21-1.3c-.17-1-.36-2-.56-2.95-.17-.81-.34-1.59-.52-2.33-.08-.34-.16-.67-.23-1s-.15-.63-.23-.93-.12-.46-.17-.67a1.08,1.08,0,0,0-.05-.21c0-.18-.09-.35-.13-.51-.14-.57-.27-1.05-.37-1.41a1.17,1.17,0,0,0,0-.2,2.69,2.69,0,0,0-.09-.32.73.73,0,0,1,0-.16l0-.08-1.33-.48-3.72-1.34h0l-4.63,13.12L531,325.73l-1.45-.07-.38,0-1.46-.07a247.36,247.36,0,0,0-27.58-5.8c-.06-.17-.12-.33-.19-.49l-.56-1.46c-.13-.32-.25-.62-.36-.92-.57-1.46-1-2.63-1.27-3.16a3.53,3.53,0,0,1-.1-.41,8.32,8.32,0,0,1-.1-1.07c0-.21,0-.45,0-.71,0-1.34,0-3.15.09-5.16,0-.38,0-.78.05-1.18l0-.64,0-.79c0-.81.08-1.64.11-2.47s.07-1.56.11-2.33c0-.41,0-.81.05-1.2s0-.63,0-.93c0,0,0,0,0,0s0,0,0,0,0,0,0,0l0-.65c0-.65,0-1.27.06-1.85.06-2.6,0-4.48-.21-4.8a10.81,10.81,0,0,1,0-3.59c0-.16,0-.32,0-.48s.05-.58.08-.88,0-.31,0-.47c0-.45.08-.92.14-1.4a.17.17,0,0,0,0-.07c.08-.83.18-1.71.29-2.61a.17.17,0,0,0,0-.07c.14-1.28.31-2.62.48-4a.13.13,0,0,0,0-.06c0-.37.09-.74.14-1.12l.09-.65c0-.37.09-.75.14-1.12l.09-.64c0-.37.09-.74.14-1.11s.12-.86.17-1.28.09-.68.14-1l0-.23c0-.27.08-.54.11-.81.08-.54.15-1.06.22-1.57,0-.33.09-.65.13-.95.07-.47.13-.91.19-1.33,0-.18.05-.35.07-.52l.32-2.27c0-.14,0-.26.06-.37s0-.31.06-.42,0-.07,0-.1,0-.05,0-.07,0,0,0,0h0l-.24.4v0l-10.22,18.58-2.89,21.62-.39,2.89L484,311.84l-.11,0c-.09,0-.23.05-.41.09l-1,.22h-.07l-.62.13-1.46.28-.27,0-1,.18-.41.07-1.32.22-.65.1c-.64.09-1.26.17-1.83.23l-1.06.09c-.28,0-.54,0-.77,0l-.32,0-.14,0a1.33,1.33,0,0,1-.3-.06l-.14-.06a.46.46,0,0,1-.17-.17,5.64,5.64,0,0,1-.14-1q0-.17,0-.36c0-.29,0-.61-.07-1,0-.15,0-.32,0-.49,0-.39,0-.81-.07-1.26l0-.61c0-.14,0-.27,0-.41l0-.61,0-.7,0-.69c0-.48,0-1-.07-1.47,0-.14,0-.29,0-.44,0-.41,0-.84-.05-1.27,0-1.26-.1-2.56-.15-3.86l0-.81c0-.41,0-.81,0-1.21s0-.55,0-.82,0-.8,0-1.19c0-.89-.07-1.75-.09-2.59,0-.42,0-.84,0-1.24-.15-4.33-.24-7.7-.24-8.17a18.83,18.83,0,0,0-1.8-4.19c-.47-.91-1-1.89-1.52-2.86l-.61-1.13-1.17-2.11c-.17-.32-.34-.62-.49-.89l-.23-.4-.38-.67c-.11-.19-.2-.34-.26-.46l-.08-.14A1,1,0,0,1,464,270l0,.07h0a1.18,1.18,0,0,0,0,.22l0,.19,0,.24c0,.26-.07.58-.12.95s-.06.49-.1.77h0s0,0,0,0c-.07.57-.14,1.22-.22,1.91-.06.52-.13,1.07-.19,1.63,0,.3-.07.6-.1.9-.11.92-.21,1.86-.3,2.77l-.09.93c0,.2,0,.4-.05.6s-.06.69-.09,1,0,.45-.05.66,0,.39,0,.57,0,.23,0,.34c0,.56-.06,1.05-.06,1.46a3.44,3.44,0,0,0,.1,1.16.16.16,0,0,0,0,.07.05.05,0,0,0,0,0l0,0c0,.1-.06.31-.28.6-.11.14-.25.31-.41.49s-.31.33-.49.52l-.35.35c-1,.94-2.22,2.07-3.34,3l-.67.58-1.2,1-.24.2-.21.18-.17.14-.21.19,0,0h0l0-.06a.64.64,0,0,1,0-.07l-.07-.16a1.89,1.89,0,0,0-.1-.21c-.08-.16-.17-.36-.27-.58a.77.77,0,0,0-.07-.17c-.07-.15-.14-.3-.21-.47s-.11-.22-.16-.34-.11-.24-.17-.37c-.35-.77-.75-1.64-1.14-2.44-.09-.19-.19-.38-.27-.56l-.06-.11-.2-.41c-.08-.17-.17-.33-.25-.48-.16-.3-.3-.57-.42-.77l-.17-.26a1.45,1.45,0,0,1-.2-.46c0-.12-.08-.27-.13-.43s-.08-.3-.12-.47-.05-.2-.07-.3a2,2,0,0,1,0-.24c0-.11-.05-.22-.07-.33s-.06-.28-.09-.43l-.09-.47c-.07-.31-.13-.64-.19-1s-.14-.78-.21-1.19c-.21-1.23-.43-2.54-.64-3.79-.06-.38-.13-.74-.19-1.1l-.18-1L449,274c0-.08,0-.17,0-.25s-.07-.33-.1-.49-.08-.4-.13-.58-.07-.28-.1-.41c2.46-2.58,5.75-6.14,9.45-10.16l2.26-2.47.22-.24,1.77-1.94,2.72-3,1.83-2c4.05-4.45,8.15-9,11.86-13.1l1.5-1.67,2.37-2.64,7.83-8.72.74-.83,0,0,.46-.51.83-.92.08-.1L494,217.7l1.93,0,2.58,0,1.49-7.86-1.37-6-.82-2.49-.28-.83-.55-1.67,3.3-2.53,1.43-1.1.46-.05,4.37-.46.21,0,3.52,3.14h0l-.14.21-.13.23a4.57,4.57,0,0,0-.48,1,1.49,1.49,0,0,0,.17,1.59,1.29,1.29,0,0,0,.56.3.71.71,0,0,1,.18.08,1.26,1.26,0,0,1,.37.18,4.28,4.28,0,0,1,.38.26.73.73,0,0,1,.18.14,9.22,9.22,0,0,1,1.07,1.09l.33.41a.44.44,0,0,1,.08.11,2.56,2.56,0,0,1,.2.26,17.56,17.56,0,0,1,1,1.51l.12.21a3.1,3.1,0,0,1,.2.34.21.21,0,0,1,0,.09h0l-.22.3-.2.29c-.53.77-1.51,2.18-2.63,3.76l-.58.83-1.21,1.72c-.24.32-.46.64-.68.95l-.08.12c-.21.28-.41.56-.6.83-.32.46-.63.88-.91,1.26s-.68.9-.9,1.21l-.34.43a1.14,1.14,0,0,1-.18.19l-.08.07a2.75,2.75,0,0,0-.21.23c-.13.18-.28.42-.45.71q-.09.13-.18.3l-.26.47c-.07.12-.13.25-.2.38-.17.35-.35.71-.51,1.07s-.31.68-.44,1-.25.65-.34.93-.08.29-.12.41a2.65,2.65,0,0,0-.11.66,1.41,1.41,0,0,1,0,.2.76.76,0,0,1,0,.21,2.83,2.83,0,0,1-.07.36,3.45,3.45,0,0,1-.11.4c0,.15-.09.31-.14.47l-.28.81c-.19.55-.4,1.13-.57,1.67-.08.27-.16.53-.22.78a3.78,3.78,0,0,0-.13,1.22.78.78,0,0,0,0,.16,2.56,2.56,0,0,1,0,.72,8.15,8.15,0,0,1-.09.86c0,.17,0,.34-.07.52s-.06.42-.1.64-.05.32-.08.49,0,.31-.08.48l-.09.49c0,.23-.08.46-.13.69l-.06.34-.18.88a2.21,2.21,0,0,1-.05.25c0,.23-.09.47-.14.7s-.12.61-.19.91l-.18.85v0c-.06.26-.11.51-.16.76s-.15.72-.22,1-.09.4-.13.59-.11.51-.16.7c-.1.4-.15.63-.15.63L494.5,255.8v0l-.21.65a0,0,0,0,0,0,0c.13-.19.58-.87,1.21-1.84l.58-.89c1.24-1.9,2.89-4.46,4.21-6.64l.61-1,.56-1,.25-.45c.18-.32.33-.61.46-.86l.18-.38a2.87,2.87,0,0,0,.15-.37c0-.07,0-.13.05-.18s0-.11,0-.18,0-.14.05-.22l.06-.26c.05-.19.1-.41.16-.65.13-.52.29-1.14.48-1.83,0-.13.06-.26.1-.39a3.74,3.74,0,0,1,.12-.45l.12-.45c.08-.32.17-.64.26-1l.3-1.14c.1-.35.2-.71.28-1,.05-.17.1-.35.14-.52.09-.33.18-.66.26-1,.18-.63.33-1.22.46-1.73,0-.13.06-.26.09-.37s0-.22.08-.33.08-.39.12-.54.05-.26.06-.35a.92.92,0,0,0,0-.15,3.21,3.21,0,0,1,.05-.42c0-.32.11-.77.2-1.3,0-.13,0-.27.07-.41s0-.17,0-.26.07-.37.1-.56c.15-.84.31-1.76.47-2.6,0-.19.07-.37.1-.54h0q.09-.51.18-1h0c.16-.89.28-1.49.28-1.49l1.28-.86,1-.7,1.37-.93h0l1-2.37,2.37-5.35,3.17-4.91,0-7.63h0l.52.17.37.12,1,.34.45.17.94.38.41.17a10.47,10.47,0,0,1,1.3.66l.33.21.27.21a.68.68,0,0,1,.12.12.52.52,0,0,1,.1.11l.07.11,0,.11a1.19,1.19,0,0,0,.08.22,1.87,1.87,0,0,0,.12.25c.09.17.2.35.32.54a13.09,13.09,0,0,0,.86,1.14l.35.41c.4.46.73.81.81.89l-2.18,8.35-.45,1.72h0l-2.89,11-.12,1.49-.05.6-.15,1.94-4.56,7.08-.89,5.44.51,5.68-3.72,10.71-2.07,12.69-4,6.72-2.28,3.4,3.5,4.54.13.16,11.15-22.39-.74-11.83,4.58-9.63.25-2.18.34-3,.65-5.71,7.07-6.26,6.24-9.14.05-.11a29.88,29.88,0,0,1,2.58,2.15l.25.25a4.07,4.07,0,0,1,.3.35,1.3,1.3,0,0,1,.24.38s0,.06,0,.1l.09.36c0,.15.08.33.12.53.09.4.19.9.3,1.46l.09.42.18.92c.06.31.13.63.19.95s.1.49.14.74c.24,1.2.47,2.38.65,3.32.13.73.24,1.32.32,1.68,0,.08,0,.15,0,.2a.2.2,0,0,1,0,.07.08.08,0,0,1,0,0v0h0l.62.54,1.33,1.16-2,6.59-.88,2.89-5.68,6.44v0l-.93,8.55,3.68,2.49,7.3,1.74h0l0,.07a13.1,13.1,0,0,0-.31,1.29c0,.12-.05.25-.07.38-.18,1.1-.23,2.43.36,3.05h0l.22.21a24.74,24.74,0,0,0,3.16,2.3l2.78,4h0l-3.51.4-1.36.15-2.16.24h0l3.32,4.22h0a4.85,4.85,0,0,1,.58.22h0a2.31,2.31,0,0,1,.35.14l.19.08a4.34,4.34,0,0,1,.4.17l.93.45.47.25.47.28a5,5,0,0,1,.45.29,7.44,7.44,0,0,1,.73.58,2.28,2.28,0,0,1,.22.22l.14.16.17.24a1.74,1.74,0,0,1,.11.18l.06.14a.69.69,0,0,1,.05.13,1.61,1.61,0,0,0,.09.26c0,.09.07.19.11.28s.18.41.29.63a1.24,1.24,0,0,0,.1.2c.06.13.14.27.22.41a4.77,4.77,0,0,0,.24.44c.23.43.49.86.75,1.28l.38.61c.15.25.31.48.45.7l.3.47.15.23.26.38.16.23a.49.49,0,0,1,.07.11l.05.07.88,5.11h0l.19,1.21v-.07l.07-8.94,3.63,6.52-.09,11.54-2.24,6.8-.09.25h0l4.23-3.49,0,0h0l.12,0,.22.06a3.31,3.31,0,0,1,.42.11l.31.09.34.1h0l.43.13c.25.07.52.15.78.24l.5.17.22.08.26.09.32.13.52.23.24.12.17.11a.91.91,0,0,1,.16.11.69.69,0,0,1,.13.11l.1.12a.35.35,0,0,1,0,.13c0,.18.07.68.17,1.34a0,0,0,0,1,0,0c0,.37.11.79.19,1.24s.17,1,.26,1.52l.12.67c.07.45.15.88.22,1.28l.06.35c.06.32.11.61.16.86s0,.26.06.37a2.07,2.07,0,0,1,0,.22c0,.09,0,.16,0,.21a.13.13,0,0,1,0,.06.1.1,0,0,1,0,0Z" transform="translate(-191.84 -102.93)"/></svg>