<?xml version="1.0" standalone="no"?>
<!DOCTYPE svg PUBLIC "-//W3C//DTD SVG 20010904//EN"
 "http://www.w3.org/TR/2001/REC-SVG-20010904/DTD/svg10.dtd">
<svg version="1.0" xmlns="http://www.w3.org/2000/svg"
 width="395.000000pt" height="395.000000pt" viewBox="0 0 395.000000 395.000000"
 preserveAspectRatio="xMidYMid meet">
<metadata>
Created by potrace 1.14, written by Peter Selinger 2001-2017
</metadata>
<g transform="translate(0.000000,395.000000) scale(0.100000,-0.100000)"
fill="#000000" stroke="none">
<path d="M3452 2821 c-8 -22 -25 -36 -70 -56 -58 -26 -60 -29 -81 -88 -12 -34
-28 -116 -37 -182 -31 -226 -38 -236 -196 -280 -49 -13 -60 -20 -74 -50 -21
-44 -36 -56 -76 -59 -66 -6 -73 2 -74 91 -2 106 -11 161 -30 191 -22 34 -112
128 -117 122 -2 -3 -22 -50 -44 -105 -28 -68 -42 -122 -47 -170 -7 -87 -16
-147 -25 -183 -7 -26 -10 -27 -72 -27 l-64 -1 -60 62 c-71 73 -106 85 -156 55
-20 -12 -51 -21 -75 -21 -34 0 -46 6 -76 38 -20 20 -46 44 -59 53 -22 15 -24
24 -25 105 -1 99 -18 147 -56 157 -13 4 -33 0 -46 -9 -21 -14 -23 -22 -21 -80
2 -66 -6 -83 -38 -84 -7 0 -13 -5 -13 -10 0 -15 59 -8 72 8 8 9 9 27 2 60 -5
26 -8 55 -6 65 4 21 45 23 62 2 13 -16 16 -86 5 -126 -6 -22 3 -40 54 -109 34
-45 61 -86 61 -92 0 -19 123 -6 167 18 l42 23 33 -33 c18 -18 47 -49 65 -68
l32 -36 95 -1 c113 -2 99 -25 122 209 5 50 52 211 73 247 6 11 19 1 54 -43 47
-60 52 -73 63 -199 3 -38 13 -85 22 -104 15 -33 16 -33 75 -29 57 4 62 7 108
56 38 40 55 52 79 52 39 0 118 37 135 64 15 23 30 81 76 301 17 83 35 155 40
161 5 6 33 23 64 38 30 14 62 38 71 52 14 21 24 24 59 23 33 -2 42 -6 40 -19
-5 -25 40 -125 76 -170 33 -40 33 -42 35 -158 1 -64 5 -130 9 -147 38 -173 61
-247 112 -362 4 -10 -28 -13 -141 -13 -80 0 -146 -2 -146 -5 0 -16 32 -65 43
-66 6 -1 87 -2 179 -3 121 -1 172 2 185 11 10 8 12 13 4 13 -6 0 -11 6 -10 13
4 30 -3 36 -43 39 -49 4 -63 22 -103 136 -46 131 -76 377 -52 429 12 26 -7 68
-69 154 -31 42 -37 64 -43 157 -1 8 -24 12 -80 12 -78 0 -79 0 -89 -29z"/>
<path d="M1379 2636 c-2 -2 -40 -7 -84 -10 -44 -4 -96 -9 -115 -11 -19 -3 -51
-6 -70 -7 -51 -2 -58 -11 -50 -62 9 -62 -1 -71 -34 -30 l-28 36 -81 -7 c-44
-4 -88 -8 -96 -10 -45 -8 -174 -18 -228 -17 -69 1 -65 5 -103 -95 -13 -33 -16
-35 -89 -36 -31 -1 -137 -127 -152 -181 -12 -44 -47 -103 -75 -127 -11 -9 -44
-31 -74 -48 l-55 -31 35 0 c31 0 45 10 107 73 40 41 84 98 102 132 46 90 90
136 136 142 56 8 82 28 90 71 3 21 9 42 13 49 4 6 45 14 92 17 82 6 149 13
198 21 13 2 52 7 87 10 70 8 58 15 143 -85 26 -30 32 -33 46 -21 10 9 14 21
10 33 -3 11 -9 44 -13 74 -9 61 -12 58 84 69 33 3 71 8 85 10 14 2 46 6 71 9
l47 6 69 -93 c38 -50 82 -113 97 -138 28 -43 80 -89 103 -89 5 0 13 21 16 48
10 77 36 192 44 192 2 0 12 -4 22 -10 17 -8 18 -21 15 -120 -3 -83 -1 -110 8
-111 7 0 23 -2 36 -5 12 -2 22 1 22 6 0 6 -4 10 -9 10 -21 0 -39 64 -35 127 5
72 -14 128 -48 139 -35 11 -56 -23 -73 -120 -8 -49 -17 -91 -19 -93 -2 -2 -56
62 -120 142 -64 80 -118 145 -120 145 -1 0 -5 -2 -7 -4z"/>
<path d="M2699 1969 c-64 -10 -111 -34 -160 -83 -112 -110 -111 -270 1 -384
101 -103 294 -109 410 -13 80 66 117 191 85 286 -48 140 -181 217 -336 194z
m163 -95 c65 -34 108 -104 108 -177 0 -61 -21 -107 -69 -150 -84 -76 -210 -77
-300 -1 -85 71 -93 196 -18 280 69 79 181 98 279 48z"/>
<path d="M592 1909 c-97 -208 -200 -440 -204 -458 -2 -9 8 -15 28 -16 36 -4
30 -13 130 210 32 72 63 137 68 146 9 13 28 -21 97 -170 82 -179 86 -186 115
-186 16 0 32 1 35 2 6 2 -225 520 -236 532 -2 1 -17 -26 -33 -60z"/>
<path d="M7 1941 c3 -11 13 -28 22 -38 16 -17 35 -18 197 -18 l179 0 0 35 0
35 -202 3 c-195 2 -201 2 -196 -17z"/>
<path d="M1003 1935 c-124 -57 -125 -236 -1 -301 16 -8 67 -15 123 -17 52 -2
97 -6 99 -8 10 -9 -24 -69 -48 -84 -21 -14 -50 -17 -146 -17 -66 0 -120 -4
-121 -9 -1 -5 -1 -18 -1 -29 0 -11 0 -24 1 -28 1 -4 58 -7 129 -7 135 1 168
10 213 58 29 31 40 62 46 135 l5 62 -127 0 c-69 0 -135 5 -146 10 -24 13 -49
61 -49 94 0 14 13 40 29 58 l28 32 132 1 131 0 0 38 0 38 -124 -2 c-106 -1
-132 -4 -173 -24z"/>
<path d="M1332 1925 c0 -19 3 -36 7 -36 3 -1 32 -2 64 -3 l57 -2 0 38 0 38
-64 0 -64 0 0 -35z"/>
<path d="M1502 1698 l3 -263 32 -1 c21 0 33 5 35 15 2 9 3 109 3 223 -1 136 3
209 10 211 5 2 43 3 83 2 l72 -1 0 38 0 38 -120 0 -120 0 2 -262z"/>
<path d="M2029 1958 c-4 -13 -4 -68 0 -69 3 0 60 -2 126 -3 134 -3 160 -11
180 -59 18 -43 9 -82 -27 -112 -28 -24 -36 -25 -156 -25 l-127 0 1 -113 c2
-151 0 -144 27 -141 12 1 27 3 34 3 8 1 13 29 15 89 l3 87 73 1 72 1 49 -91
c47 -88 49 -91 83 -91 l36 0 -48 96 -48 95 38 37 c59 55 73 122 41 192 -39 85
-87 105 -252 105 -66 0 -119 -1 -120 -2z"/>
<path d="M3122 1700 c0 -191 3 -260 11 -261 7 0 22 -2 33 -5 15 -2 23 2 26 14
2 9 3 112 3 228 l-1 211 91 -2 c97 -2 126 -13 144 -52 20 -44 13 -83 -20 -114
-27 -26 -39 -29 -93 -29 l-62 0 0 -35 c0 -39 3 -40 91 -36 99 5 167 72 167
164 0 52 -13 84 -46 120 -44 47 -83 57 -220 57 l-124 0 0 -260z"/>
<path d="M43 1726 c-10 -16 -8 -278 2 -284 6 -4 22 -7 38 -8 l27 -1 0 113 0
114 149 0 149 0 -2 30 c-1 16 -5 32 -9 36 -10 10 -348 10 -354 0z"/>
<path d="M3570 1725 c-5 -6 -7 -20 -5 -30 2 -11 4 -23 4 -28 1 -4 83 -6 183
-5 l181 3 1 33 c1 17 -3 33 -9 33 -57 7 -348 2 -355 -6z"/>
<path d="M3548 1475 c-10 -16 -18 -32 -18 -35 0 -3 90 -5 199 -5 194 0 200 0
204 21 9 48 4 49 -187 49 l-179 0 -19 -30z"/>
<path d="M2197 1373 c-4 -3 -7 -66 -7 -140 l0 -133 24 0 c31 0 32 6 30 123 0
53 0 96 2 95 3 -4 31 -81 55 -155 19 -57 23 -63 49 -63 26 0 29 5 66 111 l39
112 3 -112 c3 -109 3 -111 26 -111 13 0 26 6 28 13 3 10 3 212 -1 255 -1 12
-47 17 -74 6 -8 -3 -30 -46 -47 -95 -18 -50 -36 -87 -40 -82 -4 4 -17 37 -30
73 -34 95 -45 110 -84 110 -18 0 -36 -3 -39 -7z"/>
<path d="M2596 1248 c-25 -73 -46 -136 -46 -140 0 -5 11 -8 26 -8 19 0 28 7
35 30 6 17 14 30 17 31 34 4 79 5 89 2 6 -3 16 -18 22 -34 7 -22 16 -29 35
-29 34 0 33 11 -17 155 l-42 120 -36 3 -36 3 -47 -133z m108 -15 c7 -21 4 -23
-28 -23 -41 0 -41 0 -19 65 l16 49 12 -34 c7 -19 15 -45 19 -57z"/>
<path d="M2845 1368 c-3 -8 -4 -70 -3 -139 l3 -124 50 -3 c66 -4 126 14 149
46 24 32 33 121 16 161 -18 45 -55 64 -137 69 -57 4 -74 2 -78 -10z m113 -37
c29 -2 52 -41 52 -89 0 -56 -14 -79 -55 -90 -51 -15 -55 -9 -55 92 0 90 1 93
23 90 12 -1 28 -3 35 -3z"/>
<path d="M3119 1330 c0 -27 -1 -68 -1 -90 0 -22 1 -62 1 -90 l1 -50 79 0 c60
0 80 3 84 15 8 19 -10 30 -53 30 -53 0 -60 11 -51 76 1 3 19 4 42 3 27 -1 42
3 46 13 9 23 -6 29 -73 32 -20 1 -23 15 -15 62 1 3 24 5 51 4 46 -1 50 0 50
22 0 22 -3 23 -80 23 l-80 0 -1 -50z"/>
<path d="M3332 1240 l-1 -140 30 0 29 0 0 140 0 140 -29 0 -29 0 0 -140z"/>
<path d="M3458 1374 c-5 -4 -8 -68 -8 -141 l0 -134 28 3 c25 3 27 7 30 56 3
44 6 52 23 52 15 0 27 -15 45 -55 22 -48 29 -55 55 -55 16 0 29 3 29 8 0 4
-13 33 -29 66 -28 57 -28 59 -10 77 26 26 25 81 -2 105 -14 13 -40 20 -87 22
-37 2 -70 0 -74 -4z m114 -52 c6 -6 8 -20 6 -33 -2 -19 -10 -25 -35 -27 -32
-3 -33 -2 -33 38 0 38 1 40 27 36 14 -3 30 -9 35 -14z"/>
<path d="M3766 1371 c-15 -24 -94 -260 -89 -265 4 -3 16 -6 29 -6 17 0 24 7
29 30 4 17 12 30 18 31 92 9 96 8 107 -27 10 -28 16 -34 41 -34 16 0 29 3 29
8 0 4 -11 36 -23 72 -13 36 -34 95 -46 133 -22 65 -24 67 -56 67 -19 0 -36 -4
-39 -9z m55 -111 l18 -50 -38 0 -38 0 16 54 c9 30 18 53 20 50 2 -2 12 -26 22
-54z"/>
<path d="M40 1240 c-23 -23 -27 -77 -6 -105 18 -24 80 -26 103 -2 23 23 21 96
-3 114 -26 19 -71 16 -94 -7z m75 -24 c30 -45 -16 -101 -53 -64 -15 15 -15 43
-2 69 14 26 36 24 55 -5z"/>
<path d="M180 1201 c0 -67 13 -84 62 -84 42 0 58 25 58 90 0 40 -4 53 -15 53
-10 0 -15 -15 -17 -57 -3 -54 -5 -58 -28 -58 -23 0 -25 4 -28 58 -2 42 -7 57
-17 57 -12 0 -15 -14 -15 -59z"/>
<path d="M315 1250 c-3 -5 -1 -11 4 -11 6 -1 17 -2 23 -3 9 -1 12 -20 12 -58
0 -39 4 -59 13 -62 14 -6 14 -4 18 59 3 60 4 65 13 64 19 -3 33 2 27 11 -3 6
-28 10 -55 10 -27 0 -52 -4 -55 -10z"/>
<path d="M440 1191 c0 -75 -1 -74 55 -73 36 1 65 33 65 71 0 43 -21 62 -73 68
l-47 6 0 -72z m82 25 c21 -31 1 -76 -34 -76 -15 0 -18 9 -18 51 0 48 1 50 23
43 12 -4 25 -12 29 -18z"/>
<path d="M597 1243 c-23 -27 -26 -77 -4 -106 23 -32 86 -28 109 7 14 20 8 84
-8 100 -21 21 -77 20 -97 -1z m71 -15 c13 -13 16 -47 6 -72 -8 -21 -50 -21
-58 0 -15 39 0 84 29 84 6 0 16 -5 23 -12z"/>
<path d="M754 1246 c-27 -20 -27 -99 0 -119 24 -17 73 -14 93 6 21 20 24 81 7
106 -18 25 -70 28 -100 7z m74 -23 c18 -38 3 -83 -28 -83 -36 0 -52 57 -24 84
20 21 41 20 52 -1z"/>
<path d="M892 1188 c3 -70 19 -98 26 -43 4 32 30 33 38 1 3 -13 14 -26 25 -29
16 -4 19 -2 13 16 -3 12 -11 27 -16 34 -6 7 -4 19 4 32 20 32 0 55 -51 59
l-42 3 3 -73z m66 29 c2 -12 -3 -17 -17 -17 -14 0 -21 6 -21 19 0 24 34 22 38
-2z"/>
<path d="M1085 1203 c-11 -32 -21 -64 -23 -70 -5 -18 25 -16 32 2 8 22 51 19
62 -5 6 -13 13 -17 22 -11 20 12 -28 135 -54 139 -16 2 -24 -8 -39 -55z m51
-30 c-2 -3 -11 -3 -19 -1 -11 2 -12 9 -5 28 l10 25 9 -24 c5 -13 7 -26 5 -28z"/>
<path d="M1216 1238 c-19 -27 -21 -78 -3 -101 17 -23 64 -29 82 -11 20 21 19
22 -16 20 -40 -1 -57 22 -44 60 9 25 15 28 63 29 57 2 57 2 52 -81 -1 -34 14
-52 26 -32 4 7 8 35 8 62 1 33 5 51 14 52 6 1 17 2 23 3 5 0 7 6 4 11 -9 15
-115 13 -115 -2 0 -9 -3 -9 -12 0 -20 20 -65 14 -82 -10z"/>
<path d="M1442 1188 c2 -40 8 -73 13 -73 6 0 11 33 13 73 2 60 0 72 -13 72
-13 0 -15 -12 -13 -72z"/>
<path d="M1490 1252 c0 -15 40 -126 48 -134 15 -15 40 17 60 80 19 57 19 63 5
60 -11 -2 -23 -24 -33 -58 l-17 -55 -18 58 c-10 31 -25 57 -32 57 -7 0 -13 -4
-13 -8z"/>
<path d="M1636 1248 c-10 -31 -2 -127 11 -132 15 -6 15 -7 16 76 0 40 -3 63
-11 66 -7 2 -14 -2 -16 -10z"/>
<path d="M1680 1250 c0 -9 4 -10 28 -10 4 0 9 -27 12 -60 7 -81 24 -81 28 -1
3 57 5 63 23 58 12 -3 19 0 19 9 0 10 -14 14 -55 14 -30 0 -55 -4 -55 -10z"/>
<path d="M1809 1223 c-1 -21 -2 -47 -3 -58 -1 -25 13 -57 23 -51 13 8 7 139
-6 143 -9 3 -13 -8 -14 -34z"/>
<path d="M1868 1244 c-2 -9 -2 -42 0 -73 l4 -57 36 2 c54 3 54 3 47 14 -3 6
-17 10 -31 10 -17 0 -24 5 -24 20 0 13 7 20 20 20 11 0 20 6 20 14 0 9 -7 12
-20 9 -15 -4 -20 0 -20 16 0 17 5 22 22 19 11 -2 23 3 25 10 3 8 -8 12 -35 12
-29 0 -41 -4 -44 -16z"/>
<path d="M1982 1248 c-21 -21 -13 -48 18 -66 40 -23 40 -46 0 -40 -32 5 -43
-15 -14 -26 28 -11 64 5 71 32 5 20 0 30 -28 53 -29 23 -31 29 -17 34 9 4 22
4 28 0 5 -3 10 1 10 9 0 19 -50 22 -68 4z"/>
</g>
</svg>
