<?xml version="1.0" standalone="no"?>
<!DOCTYPE svg PUBLIC "-//W3C//DTD SVG 20010904//EN"
 "http://www.w3.org/TR/2001/REC-SVG-20010904/DTD/svg10.dtd">
<svg version="1.0" xmlns="http://www.w3.org/2000/svg"
 width="916.000000pt" height="916.000000pt" viewBox="0 0 916.000000 916.000000"
 preserveAspectRatio="xMidYMid meet">
<metadata>
Created by potrace 1.14, written by Peter Selinger 2001-2017
</metadata>
<g transform="translate(0.000000,916.000000) scale(0.100000,-0.100000)"
fill="#000000" stroke="none">
<path d="M3916 8439 c-11 -19 -36 -56 -56 -84 -43 -59 -90 -228 -90 -323 0
-55 4 -66 51 -138 l51 -78 -18 -30 c-9 -17 -20 -33 -23 -36 -4 -3 -14 -17 -24
-33 -16 -25 -16 -31 -2 -73 24 -72 19 -73 -46 -12 -54 51 -67 58 -103 59 -22
1 -52 2 -66 4 -14 1 -68 6 -120 10 -52 3 -120 8 -150 11 -67 6 -115 9 -245 18
-129 9 -154 12 -161 19 -3 2 12 5 33 5 21 0 58 3 83 5 61 7 214 19 270 22 96
5 225 17 229 20 2 3 -7 9 -20 15 -13 6 -43 21 -66 34 -80 45 -255 112 -348
131 -198 43 -442 47 -605 10 -14 -3 -38 -8 -55 -10 -78 -14 -221 -67 -330
-123 -38 -19 -84 -43 -102 -51 -65 -32 -50 -41 69 -41 131 0 138 -9 12 -15
-161 -8 -186 -13 -228 -48 -54 -44 -205 -196 -236 -236 -14 -18 -31 -39 -37
-46 -7 -8 -13 -17 -13 -21 0 -4 -8 -16 -17 -26 -16 -18 -13 -18 98 -14 l114 4
-50 -18 -50 -18 110 -2 c61 -1 255 -3 433 -5 178 -1 326 -5 329 -9 4 -3 -29
-6 -73 -7 -43 -1 -110 -2 -149 -4 -111 -5 -439 -16 -563 -20 -63 -2 -116 -6
-119 -9 -4 -3 7 -6 23 -7 16 0 45 -2 64 -4 77 -7 207 -17 248 -19 23 -2 45 -5
48 -8 5 -5 -143 -3 -459 6 l-88 2 -23 -50 c-63 -138 -134 -365 -120 -387 2 -4
1 -10 -4 -13 -11 -7 -16 -83 -16 -241 0 -178 5 -213 59 -425 9 -36 77 -207 91
-228 4 -7 154 -21 266 -25 56 -2 54 -10 -4 -14 -23 -2 -44 -6 -47 -8 -5 -6 14
-6 217 -8 78 -1 142 -4 142 -7 0 -4 -17 -6 -37 -7 -21 0 -99 -3 -173 -7 -74
-4 -173 -9 -219 -11 -46 -2 -85 -5 -87 -7 -2 -2 18 -35 44 -72 26 -38 52 -76
57 -84 23 -35 195 -202 255 -249 112 -86 300 -190 395 -218 29 -8 54 -47 48
-76 -2 -13 -20 -35 -39 -49 -20 -13 -42 -37 -51 -53 -27 -52 -50 -151 -42
-180 20 -73 19 -112 -5 -157 -12 -25 -38 -55 -57 -68 -19 -13 -45 -32 -59 -42
-26 -19 -223 -162 -228 -165 -1 -1 -4 -38 -6 -81 -5 -112 -69 -322 -99 -325
-7 -1 -28 -3 -47 -4 -19 -1 -70 -6 -112 -10 -42 -3 -105 -8 -140 -10 -35 -2
-63 -4 -63 -5 0 0 -29 -3 -65 -5 -36 -2 -94 -6 -130 -9 -68 -6 -133 -12 -240
-21 -60 -5 -86 -7 -205 -20 -22 -3 -67 -7 -100 -10 -33 -3 -76 -7 -95 -9 -19
-3 -63 -7 -98 -11 -35 -4 -71 -8 -80 -10 -9 -2 -32 -4 -51 -4 -19 -1 -32 -4
-28 -7 14 -14 153 -18 1102 -28 292 -4 753 -9 1025 -12 272 -3 651 -7 841 -8
190 -1 351 -6 357 -10 7 -4 12 -4 12 1 0 4 26 7 57 6 107 -4 993 -13 1853 -18
2766 -16 2780 -16 2780 0 0 8 -6 16 -12 16 -53 5 -104 14 -198 35 -14 3 -32 6
-40 7 -83 12 -211 97 -247 164 -47 87 -54 102 -59 130 -3 16 -17 51 -31 80
-20 39 -38 58 -72 77 -40 21 -91 73 -91 92 0 3 -16 32 -35 63 -32 52 -61 152
-80 276 -3 20 -18 57 -33 85 -5 8 -14 24 -20 36 -6 12 -29 58 -52 104 l-43 82
20 37 c18 33 18 40 6 77 -20 59 -81 118 -138 134 -36 10 -53 22 -72 52 -22 33
-38 43 -64 40 -3 -1 -26 17 -50 38 -24 22 -38 40 -31 40 6 0 12 5 12 10 0 10
36 67 50 80 3 3 22 32 41 66 25 42 38 79 42 117 4 31 15 81 26 112 11 32 21
87 22 130 2 68 0 77 -31 127 -63 99 -153 208 -184 224 -52 25 -63 37 -95 106
-23 48 -40 70 -64 82 -17 9 -57 31 -87 48 -30 17 -71 33 -90 35 -91 9 -129 21
-79 25 13 1 31 2 39 4 8 1 20 2 25 3 7 1 7 4 0 9 -53 38 -215 314 -215 365 0
7 -4 17 -9 22 -9 11 -34 101 -51 190 -19 91 -19 223 -2 268 31 77 119 144 206
154 90 11 438 2 478 -12 7 -2 31 -7 53 -9 37 -5 56 -8 118 -20 170 -35 456
-128 516 -169 142 -98 221 -260 208 -428 -13 -163 -48 -242 -199 -447 -117
-159 -226 -253 -328 -284 -22 -7 -108 -20 -135 -20 -27 -1 -112 15 -128 24
-32 16 -31 1 2 -34 17 -18 34 -42 37 -53 4 -10 12 -25 18 -32 46 -52 56 -79
56 -151 0 -61 -6 -96 -27 -152 -8 -21 -10 -30 -18 -96 -3 -32 -11 -64 -15 -70
-6 -6 -2 -25 10 -47 11 -20 17 -37 14 -37 -4 0 -2 -6 3 -12 5 -7 27 -60 48
-118 21 -58 44 -114 52 -125 7 -11 13 -27 13 -36 0 -8 12 -27 28 -42 42 -40
50 -51 62 -94 10 -34 9 -43 -7 -73 l-20 -35 47 -90 c71 -138 67 -133 109 -124
20 4 54 10 76 13 22 4 78 18 125 32 46 14 91 27 100 29 8 2 26 8 40 13 14 5
27 10 30 9 11 0 267 137 307 164 45 31 47 34 166 194 202 271 297 323 382 207
19 -26 35 -54 35 -63 0 -9 3 -19 7 -23 10 -10 14 -34 14 -106 0 -65 -1 -71
-15 -122 -26 -91 97 -103 149 -14 36 61 49 185 30 296 -4 25 -9 58 -11 73 -2
16 -14 53 -28 82 -13 29 -22 55 -20 58 3 2 -2 10 -11 17 -8 7 -15 19 -15 26 0
8 -4 14 -10 14 -5 0 -10 5 -10 11 0 6 -15 30 -32 52 -106 134 -163 162 -250
125 -26 -11 -48 -25 -48 -30 0 -5 -5 -14 -10 -21 -6 -7 -34 -43 -62 -82 -60
-82 -158 -198 -202 -239 -54 -50 -124 -68 -194 -48 -40 12 -88 67 -107 122 -1
3 -5 14 -9 25 -95 245 -98 253 -102 352 -3 73 10 133 42 194 15 30 106 163
135 197 70 83 161 252 184 342 3 8 9 33 15 55 23 86 32 273 16 353 -3 17 -9
47 -12 65 -3 17 -10 40 -15 50 -5 9 -7 17 -5 17 10 0 -66 205 -110 299 -24 51
-44 97 -44 102 0 5 -4 9 -10 9 -5 0 -10 6 -10 13 0 11 -98 164 -124 194 -6 7
-15 18 -21 25 -132 172 -347 373 -453 424 -65 31 -128 23 -176 -21 -32 -29
-27 -72 12 -100 72 -52 151 -153 137 -175 -3 -5 -1 -11 4 -14 11 -7 3 -73 -14
-106 -30 -57 -94 -90 -170 -85 -71 5 -184 22 -267 40 -13 3 -32 7 -43 9 -74
16 -121 29 -200 56 -49 17 -97 33 -105 35 -8 2 -53 18 -100 35 -127 47 -141
51 -186 51 -94 -1 -152 -45 -229 -176 -41 -69 -101 -217 -111 -275 -3 -14 -9
-52 -15 -85 -10 -56 -12 -193 -4 -260 19 -158 16 -152 56 -157 18 -3 39 -20
63 -51 20 -26 36 -52 36 -57 0 -6 4 -10 8 -10 4 0 16 -13 25 -30 12 -19 40
-40 82 -59 37 -17 66 -38 69 -49 4 -11 15 -30 26 -42 18 -21 18 -50 -1 -50
-28 0 30 -69 59 -70 6 0 12 -4 12 -8 0 -4 14 -16 30 -25 17 -10 30 -24 30 -31
0 -8 8 -17 17 -20 15 -6 15 -8 3 -16 -26 -17 -55 -11 -70 14 -8 14 -45 47 -83
74 -66 48 -67 49 -48 66 21 19 16 38 -16 74 -7 7 -13 17 -13 21 0 5 -18 20
-40 35 -22 14 -40 24 -40 20 0 -19 -65 47 -115 119 -59 83 -61 85 -98 82 -23
-1 -45 4 -53 12 -38 39 -70 92 -101 166 -31 78 -70 127 -100 127 -7 0 -13 3
-13 8 0 4 -13 13 -30 20 -16 8 -48 33 -71 56 -32 35 -47 43 -70 41 -27 -2 -38
6 -85 63 -30 36 -54 72 -54 79 0 7 -4 21 -10 31 -5 9 -19 42 -30 74 -17 45
-27 58 -50 67 -17 5 -30 8 -30 6 0 -2 -17 2 -38 9 -32 12 -41 12 -57 0 -31
-23 -54 -18 -50 12 2 18 -5 30 -24 42 -14 9 -28 19 -31 23 -3 3 -15 11 -27 17
-12 7 -32 32 -44 57 -12 25 -26 45 -29 45 -14 0 -90 -61 -111 -89 -39 -53 -61
-50 -137 25 -37 36 -91 82 -120 101 -29 20 -61 47 -69 60 -15 22 -80 63 -101
63 -5 0 -29 9 -53 19 -24 11 -48 20 -52 20 -8 0 -97 126 -97 137 0 14 -40 45
-62 48 -13 1 -29 6 -36 10 -6 4 -49 10 -94 13 l-83 5 -19 -33z m-1686 -673 c0
-3 -4 -8 -10 -11 -5 -3 -10 -1 -10 4 0 6 5 11 10 11 6 0 10 -2 10 -4z m344
-444 c3 -5 -1 -9 -9 -9 -8 0 -15 4 -15 9 0 4 4 8 9 8 6 0 12 -4 15 -8z m1443
-234 c-3 -8 -6 -5 -6 6 -1 11 2 17 5 13 3 -3 4 -12 1 -19z m11 -69 c-3 -8 -7
-3 -11 10 -4 17 -3 21 5 13 5 -5 8 -16 6 -23z m10 -74 c-3 -3 -9 2 -12 12 -6
14 -5 15 5 6 7 -7 10 -15 7 -18z m-490 -270 c-3 -3 -9 2 -12 12 -6 14 -5 15 5
6 7 -7 10 -15 7 -18z m-1 -47 c-3 -8 -6 -5 -6 6 -1 11 2 17 5 13 3 -3 4 -12 1
-19z m2811 -36 c9 -8 11 -22 7 -41 -5 -23 -1 -31 19 -44 14 -9 37 -32 52 -52
l27 -35 -28 -40 c-15 -22 -30 -40 -32 -40 -5 0 4 16 30 52 17 22 18 29 6 43
-31 36 -73 75 -82 75 -5 0 -7 15 -4 35 5 28 1 38 -17 52 -12 10 -26 25 -31 33
-8 14 15 -2 53 -38z m-2801 -34 c-3 -8 -6 -5 -6 6 -1 11 2 17 5 13 3 -3 4 -12
1 -19z m3025 -22 c19 -8 51 -35 71 -60 44 -53 50 -76 7 -26 -16 19 -30 38 -30
42 0 4 -21 19 -47 32 -53 28 -54 34 -1 12z m-2974 -141 c-3 -3 -9 2 -12 12 -6
14 -5 15 5 6 7 -7 10 -15 7 -18z m56 -21 c3 -8 2 -12 -4 -9 -6 3 -10 10 -10
16 0 14 7 11 14 -7z m3010 -19 c-4 -8 -8 -15 -10 -15 -2 0 -4 7 -4 15 0 8 4
15 10 15 5 0 7 -7 4 -15z m-294 -55 c-12 -16 -24 -30 -26 -30 -3 0 4 14 16 30
12 17 24 30 26 30 3 0 -4 -13 -16 -30z m277 8 c-3 -8 -6 -5 -6 6 -1 11 2 17 5
13 3 -3 4 -12 1 -19z m-10 -37 c0 -11 -5 -18 -9 -15 -4 3 -5 11 -1 19 7 21 12
19 10 -4z m-319 -46 c-13 -19 -29 -37 -36 -40 -7 -2 2 13 19 35 40 49 47 51
17 5z m306 -19 c-3 -15 -8 -25 -11 -23 -2 3 -1 17 3 31 3 15 8 25 11 23 2 -3
1 -17 -3 -31z m-21 -68 c-3 -18 -10 -37 -15 -43 -6 -6 -7 -5 -4 5 2 8 7 27 10
43 9 38 17 34 9 -5z m-364 -34 c-7 -16 -14 -42 -16 -59 -5 -32 -32 -88 -33
-67 0 7 4 21 9 31 6 10 12 28 14 42 6 33 28 91 33 86 3 -2 -1 -17 -7 -33z
m343 -51 c-3 -16 -7 -22 -10 -15 -4 13 4 42 11 42 2 0 2 -12 -1 -27z m-15 -80
c-3 -10 -5 -2 -5 17 0 19 2 27 5 18 2 -10 2 -26 0 -35z m-373 -54 c-6 -48 -14
-48 -14 0 0 23 4 40 9 37 5 -3 7 -20 5 -37z m376 22 c0 -6 -4 -12 -8 -15 -5
-3 -9 1 -9 9 0 8 4 15 9 15 4 0 8 -4 8 -9z m-384 -88 c-3 -10 -10 -42 -16 -72
-6 -30 -13 -57 -15 -60 -5 -5 0 51 9 94 3 11 5 28 5 38 1 9 6 17 12 17 6 0 8
-8 5 -17z m-61 -235 c-43 -121 -53 -148 -59 -148 -3 0 6 30 21 68 14 37 32 91
41 120 8 28 18 52 22 52 4 0 -7 -42 -25 -92z m-61 -167 c3 -5 -2 -15 -12 -22
-15 -12 -16 -12 -5 2 7 9 10 19 6 22 -3 4 -4 7 0 7 3 0 8 -4 11 -9z m1733 -37
c76 -56 76 -177 0 -227 -49 -32 -149 -59 -193 -52 -81 12 -139 106 -115 185
15 50 40 70 119 96 82 27 151 26 189 -2z m-2357 -304 c0 -5 -5 -10 -11 -10 -5
0 -7 5 -4 10 3 6 8 10 11 10 2 0 4 -4 4 -10z m-5 -40 c-2 -27 -15 -38 -15 -13
0 16 8 33 15 33 1 0 1 -9 0 -20z m-11 -82 c-3 -24 -7 -78 -8 -121 -2 -43 -7
-81 -11 -85 -4 -4 -4 40 0 98 3 58 7 115 8 128 0 12 5 22 9 22 4 0 5 -19 2
-42z m1883 -230 c-3 -8 -6 -5 -6 6 -1 11 2 17 5 13 3 -3 4 -12 1 -19z m-1917
8 c0 -2 -8 -10 -17 -17 -16 -13 -17 -12 -4 4 13 16 21 21 21 13z m-80 -70 c0
-2 -8 -10 -17 -17 -16 -13 -17 -12 -4 4 13 16 21 21 21 13z m1753 -501 c-3 -9
-8 -14 -10 -11 -3 3 -2 9 2 15 9 16 15 13 8 -4z m-10 -40 c-3 -9 -8 -14 -10
-11 -3 3 -2 9 2 15 9 16 15 13 8 -4z m-22 -52 c-12 -20 -14 -14 -5 12 4 9 9
14 11 11 3 -2 0 -13 -6 -23z m-30 -80 c-12 -20 -14 -14 -5 12 4 9 9 14 11 11
3 -2 0 -13 -6 -23z"/>
<path d="M6307 3384 c-1 -2 -26 -6 -54 -9 -231 -26 -427 -172 -468 -349 -27
-114 0 -226 77 -320 44 -54 124 -118 166 -130 12 -4 22 -11 22 -16 0 -4 10
-10 23 -13 12 -3 47 -12 77 -21 154 -43 393 -39 538 10 337 114 445 457 215
680 -68 66 -189 126 -298 149 -69 14 -288 28 -298 19z m175 -280 c51 -2 128
-43 156 -84 27 -41 28 -91 2 -145 -34 -70 -118 -103 -251 -100 -146 4 -218 42
-244 128 -23 75 17 145 105 184 35 15 180 33 190 23 3 -3 22 -6 42 -6z"/>
<path d="M2697 3374 c-1 -1 -40 -4 -87 -7 -47 -3 -94 -8 -105 -10 -11 -3 -40
-8 -64 -12 -126 -21 -277 -116 -301 -191 -20 -60 -5 -118 42 -165 22 -22 57
-48 77 -59 37 -18 148 -57 186 -64 97 -19 130 -41 98 -68 -12 -10 -68 -13
-232 -13 -184 0 -216 -3 -215 -15 0 -8 4 -42 9 -75 4 -33 9 -64 10 -70 10 -93
18 -115 38 -114 12 1 96 1 187 0 164 0 201 1 315 13 67 7 163 33 183 48 6 6
12 7 12 3 0 -11 72 36 112 74 96 90 72 234 -50 295 -44 22 -169 63 -219 72
-12 2 -34 9 -48 14 -14 5 -25 7 -25 3 0 -3 -9 2 -20 12 -46 42 25 58 258 58
139 0 148 2 143 31 -1 6 -4 26 -6 45 -2 20 -5 37 -6 39 -1 1 -2 10 -3 20 -2 9
-6 43 -10 75 l-8 57 -57 1 c-31 0 -91 1 -134 2 -43 1 -79 1 -80 1z"/>
<path d="M10 3362 c-6 -2 -10 -152 -10 -423 l0 -418 73 -1 c209 -1 271 1 276
9 3 5 5 70 5 145 l-1 136 238 0 c154 0 240 4 244 10 6 9 8 108 4 180 0 14 -31
16 -242 15 -133 0 -246 1 -252 2 -8 3 -10 23 -6 78 1 6 93 10 256 10 170 -1
255 3 256 10 7 56 3 238 -5 242 -10 7 -818 11 -836 5z"/>
<path d="M1269 3344 c-10 -11 -19 -23 -19 -27 0 -4 -18 -36 -40 -72 -22 -36
-40 -67 -40 -69 0 -8 -75 -131 -83 -137 -5 -3 -7 -8 -6 -10 2 -2 -16 -36 -39
-75 -22 -39 -46 -83 -53 -97 -7 -15 -16 -27 -21 -27 -4 0 -8 -4 -8 -9 0 -5
-22 -48 -50 -96 -27 -48 -50 -90 -50 -94 0 -4 46 -27 103 -51 56 -23 118 -51
137 -61 62 -34 69 -28 127 109 13 31 16 33 66 33 29 -1 61 -1 72 -1 11 1 87 1
168 1 l148 0 40 -85 40 -85 52 20 c29 12 59 24 67 27 8 3 33 13 55 22 22 9 66
27 98 40 55 21 57 24 44 44 -8 11 -26 44 -42 71 -16 28 -35 58 -43 68 -8 9
-11 17 -6 17 5 0 5 4 -1 8 -5 4 -21 27 -34 52 -13 25 -31 53 -39 63 -8 9 -12
17 -8 17 4 0 -1 12 -12 28 -11 15 -61 101 -112 192 -52 91 -101 174 -109 185
-15 19 -28 20 -199 20 -172 0 -184 -1 -203 -21z m221 -286 c12 -29 35 -78 49
-108 47 -97 55 -89 -80 -87 -65 0 -119 2 -119 4 0 2 23 51 52 111 28 59 53
110 54 115 1 4 2 9 3 12 4 18 22 -2 41 -47z"/>
<path d="M3092 3355 c-9 -14 -9 -254 0 -268 5 -8 53 -12 160 -12 l153 0 0
-275 1 -275 175 -2 174 -3 0 278 0 277 158 1 c86 0 159 3 163 6 8 9 9 266 0
275 -11 11 -977 10 -984 -2z"/>
<path d="M4624 3359 c-3 -6 -6 -473 -4 -776 l0 -63 174 1 c120 1 176 5 178 13
2 6 3 133 1 281 -1 149 0 280 3 291 3 20 9 21 66 18 109 -7 173 -31 190 -73
16 -37 16 -42 -1 -78 -16 -36 -88 -73 -140 -73 -18 0 -31 -5 -31 -13 0 -6 27
-41 61 -77 33 -36 102 -110 152 -164 51 -54 102 -109 115 -122 l22 -24 43 20
c67 30 168 75 215 95 23 11 41 22 40 26 -4 9 -87 103 -167 189 -33 36 -61 67
-61 70 0 3 18 16 39 29 41 25 64 65 79 136 11 55 -6 118 -45 165 -31 36 -113
85 -158 94 -11 3 -41 9 -67 15 -26 6 -68 14 -95 17 -68 9 -603 11 -609 3z"/>
<path d="M7148 3366 c0 -1 -2 -189 -3 -418 -2 -375 0 -418 14 -422 9 -3 88 -5
176 -4 l161 1 -1 88 0 89 35 1 c75 2 147 9 195 19 28 6 59 12 70 14 39 8 110
37 155 63 196 114 224 334 56 459 -46 35 -132 75 -140 66 -3 -3 -6 0 -6 7 0 7
-4 10 -8 7 -4 -3 -26 -1 -48 4 -21 4 -67 11 -101 13 -35 3 -67 8 -72 11 -5 4
-12 2 -16 -4 -4 -6 -11 -7 -17 -4 -8 5 -437 14 -450 10z m454 -251 c61 -7 76
-13 116 -42 25 -19 32 -31 32 -57 0 -19 -8 -40 -18 -49 -23 -21 -102 -49 -119
-43 -7 3 -14 2 -17 -2 -2 -4 -26 -7 -53 -6 l-48 0 -3 99 c-3 104 2 116 42 110
12 -2 42 -6 68 -10z"/>
<path d="M8287 3362 c-16 -3 -17 -38 -17 -422 l0 -419 445 0 445 1 0 124 0
124 -277 2 -277 3 -1 38 c-1 27 3 37 14 38 9 1 129 2 266 2 l250 2 3 90 3 90
-263 0 c-285 -1 -278 -2 -270 54 l4 26 265 0 c145 0 267 3 270 8 7 11 5 228
-2 235 -6 6 -827 10 -858 4z"/>
<path d="M1414 2053 c-15 -3 -25 -17 -34 -45 -6 -23 -17 -53 -23 -67 -5 -14
-11 -30 -12 -36 -2 -5 -23 -67 -47 -137 -25 -71 -42 -128 -39 -129 3 0 18 -3
32 -5 24 -4 27 0 54 83 16 49 32 93 36 98 4 6 7 14 7 18 -1 16 45 147 51 147
7 -1 86 -105 140 -185 19 -27 37 -52 41 -55 4 -3 15 -19 25 -36 14 -26 23 -30
48 -28 38 5 48 14 91 77 57 84 136 193 167 230 6 7 49 -109 65 -173 2 -8 14
-51 27 -95 22 -74 26 -80 51 -81 15 -1 30 4 32 11 3 7 -16 75 -41 151 -26 77
-48 144 -49 149 -11 44 -32 101 -39 106 -4 3 -19 6 -32 5 -23 -1 -74 -62 -214
-255 -24 -34 -45 -61 -48 -61 -6 0 -33 27 -33 34 0 5 -75 106 -123 166 -7 8
-29 39 -50 68 -21 28 -44 51 -50 51 -7 -1 -21 -4 -33 -6z"/>
<path d="M2804 1994 c-27 -36 -58 -79 -69 -94 -11 -16 -53 -73 -94 -127 -41
-54 -79 -104 -85 -111 -7 -10 -5 -16 5 -23 25 -16 35 -10 72 44 77 108 57 99
231 100 114 0 159 -3 171 -13 8 -7 37 -41 62 -76 49 -67 58 -72 87 -51 16 12
9 25 -93 163 -61 82 -122 162 -136 179 -14 16 -25 33 -25 39 0 14 -33 35 -56
36 -13 0 -36 -21 -70 -66z m131 -79 c30 -41 55 -78 55 -83 0 -4 -54 -7 -120
-7 -66 0 -120 1 -120 2 0 5 24 48 30 53 3 3 23 29 44 58 21 28 42 52 46 52 5
0 34 -34 65 -75z"/>
<path d="M3679 2050 c-1 -3 -3 -96 -4 -208 l-1 -203 23 -5 c24 -6 208 1 251
10 145 30 230 75 261 139 56 114 -36 213 -234 252 -81 16 -293 27 -296 15z
m226 -50 c0 -1 17 -3 37 -6 89 -11 190 -66 206 -112 11 -34 7 -79 -9 -99 -13
-15 -90 -70 -99 -71 -3 0 -24 -5 -48 -11 -58 -16 -104 -22 -184 -25 l-68 -2 0
168 0 169 83 -4 c45 -3 82 -6 82 -7z"/>
<path d="M4754 2049 c-2 -4 -7 -364 -5 -404 1 -14 403 -16 413 -2 19 30 -5 34
-173 33 -93 -1 -170 1 -170 4 -4 14 -5 127 -1 137 2 8 51 11 168 10 90 -1 165
1 165 6 7 42 13 41 -165 41 l-170 1 -1 58 c-1 31 3 61 9 66 6 5 82 8 169 7
144 -1 158 1 163 17 3 10 3 21 1 24 -8 7 -398 9 -403 2z"/>
<path d="M5710 2035 c-2 -48 -2 -381 -1 -393 1 -7 13 -11 31 -10 l29 2 -2 210
-2 209 -27 1 c-22 1 -28 -3 -28 -19z"/>
<path d="M6345 2051 c-3 -2 -5 -97 -5 -211 l0 -206 28 2 c15 1 29 2 32 3 3 0
5 79 5 174 -1 94 1 178 3 185 4 10 26 13 86 11 44 -1 86 -5 91 -8 6 -3 16 -6
23 -7 20 -3 43 -26 53 -53 8 -21 5 -29 -26 -57 -20 -18 -50 -36 -68 -40 -18
-4 -35 -9 -39 -10 -5 -1 -11 -2 -15 -3 -5 -1 2 -7 14 -14 26 -14 196 -129 203
-137 3 -3 19 -16 36 -28 l31 -21 22 20 c11 11 21 21 21 23 0 1 -24 18 -52 37
-29 18 -77 50 -105 70 l-53 37 41 26 c112 75 68 177 -86 203 -33 6 -236 9
-240 4z"/>
<path d="M7503 1987 c-28 -39 -59 -81 -67 -92 -9 -11 -54 -71 -101 -133 l-85
-112 26 -12 c22 -10 27 -9 36 5 5 10 30 45 56 79 l47 61 160 0 160 0 44 -59
c24 -33 49 -68 57 -78 12 -18 16 -19 43 -5 l30 14 -150 200 c-182 243 -178
241 -256 132z m136 -72 c34 -47 61 -87 61 -88 0 -8 -240 0 -240 8 -1 8 110
164 117 165 0 0 28 -38 62 -85z"/>
<path d="M4141 1048 l-38 -60 -32 56 c-34 59 -40 62 -106 45 -22 -5 -53 -12
-70 -15 -16 -3 -33 -9 -38 -13 -4 -4 27 -57 69 -117 73 -104 77 -112 79 -169
2 -33 3 -64 4 -68 0 -4 43 -7 94 -5 l92 3 1 55 c3 85 3 85 22 106 24 27 132
187 132 197 0 4 -10 7 -22 7 -12 0 -38 5 -57 11 -101 30 -88 34 -130 -33z"/>
<path d="M4537 1094 c-172 -44 -234 -219 -116 -329 39 -36 74 -54 119 -64 33
-7 179 -6 207 2 157 42 215 227 103 331 -67 62 -203 88 -313 60z m147 -135
c55 -43 23 -139 -47 -139 -41 0 -61 16 -75 56 -8 26 -7 37 8 62 29 47 71 55
114 21z"/>
<path d="M2575 1092 c-39 -4 -121 -30 -167 -53 -75 -38 -113 -125 -86 -194 20
-48 79 -98 134 -111 16 -4 34 -10 39 -14 10 -8 110 -21 179 -24 28 -1 40 3 42
14 9 54 15 87 20 103 4 12 -1 17 -18 18 -162 8 -231 38 -200 86 15 23 89 43
169 45 l44 1 -7 41 c-3 22 -8 48 -9 56 -2 8 -4 21 -4 28 -1 13 -45 14 -136 4z"/>
<path d="M2909 1089 c-8 -5 -36 -61 -142 -279 l-36 -75 72 -17 c40 -9 82 -20
94 -23 19 -4 24 1 33 33 l12 37 63 2 63 2 16 -38 15 -39 58 14 c32 8 72 16 88
20 17 3 33 8 36 12 4 4 -17 54 -45 112 -28 59 -66 137 -83 175 l-33 70 -101 0
c-55 0 -105 -2 -110 -6z m115 -169 c2 -14 7 -33 11 -42 6 -15 1 -18 -28 -18
l-35 0 16 50 c16 51 27 54 36 10z"/>
<path d="M3374 1080 l-60 -20 -1 -179 -1 -179 89 0 89 1 1 26 c1 14 1 54 1 88
0 77 1 77 117 -41 46 -47 86 -84 90 -82 3 2 32 11 64 21 31 10 57 24 58 31 0
8 1 79 1 159 0 80 -1 155 -1 168 -1 21 -4 22 -88 22 l-88 -1 -2 -54 c-1 -30
-2 -65 -2 -77 -1 -13 -4 -23 -8 -23 -5 0 -46 36 -92 80 -46 44 -89 80 -95 79
-6 0 -38 -9 -72 -19z"/>
<path d="M5055 1089 c-16 -6 -38 -12 -49 -14 -40 -9 -42 -18 -41 -192 1 -92 3
-171 4 -175 0 -3 40 -6 89 -5 l87 1 -1 88 c0 48 1 88 4 88 3 0 48 -42 101 -94
l96 -93 63 19 c56 17 62 21 63 46 1 34 1 313 0 327 -1 7 -35 10 -88 10 l-88
-1 0 -72 c-1 -39 -4 -74 -7 -78 -4 -3 -26 12 -50 34 -144 134 -132 127 -183
111z"/>
<path d="M5550 899 l0 -197 95 0 95 -1 1 37 c3 146 0 344 -6 350 -3 4 -47 7
-96 7 l-89 1 0 -197z"/>
<path d="M5881 1081 c-31 -9 -57 -24 -60 -33 -3 -10 -6 -91 -5 -180 l0 -163
91 -1 92 -1 -2 85 c-1 46 1 86 4 88 3 2 48 -39 100 -90 l93 -93 56 15 c30 8
60 19 65 24 11 10 17 357 6 359 -29 5 -149 4 -161 -2 -11 -5 -15 -22 -14 -66
1 -32 0 -66 -3 -76 -4 -17 -5 -17 -21 0 -46 51 -163 153 -174 152 -7 -1 -37
-8 -67 -18z"/>
<path d="M6657 1093 c-1 -1 -22 -4 -47 -8 -54 -8 -146 -48 -178 -78 -71 -66
-69 -157 3 -222 37 -32 126 -70 190 -80 52 -8 202 -8 214 0 6 3 10 50 9 105
l0 100 -89 0 c-49 0 -89 -3 -90 -7 -1 -5 -2 -25 -3 -45 -3 -49 -8 -53 -45 -34
-33 18 -50 59 -34 84 17 28 78 52 143 56 36 2 71 5 78 5 8 1 11 8 8 19 -3 9
-7 34 -11 56 -3 21 -8 43 -11 48 -5 7 -130 9 -137 1z"/>
</g>
</svg>
