<?xml version="1.0" encoding="UTF-8" standalone="no"?>
<svg
   width="108.42899pt"
   height="108.43096pt"
   version="1.1"
   viewBox="0 0 108.42898 108.43096"
   id="svg142"
   sodipodi:docname="insurance.svg"
   inkscape:version="1.1.1 (1:1.1+202109281949+c3084ef5ed)"
   xmlns:inkscape="http://www.inkscape.org/namespaces/inkscape"
   xmlns:sodipodi="http://sodipodi.sourceforge.net/DTD/sodipodi-0.dtd"
   xmlns="http://www.w3.org/2000/svg"
   xmlns:svg="http://www.w3.org/2000/svg">
  <sodipodi:namedview
     id="namedview144"
     pagecolor="#ffffff"
     bordercolor="#666666"
     borderopacity="1.0"
     inkscape:pageshadow="2"
     inkscape:pageopacity="0.0"
     inkscape:pagecheckerboard="0"
     inkscape:document-units="pt"
     showgrid="false"
     fit-margin-top="0"
     fit-margin-left="0"
     fit-margin-right="0"
     fit-margin-bottom="0"
     inkscape:zoom="0.93535714"
     inkscape:cx="72.164948"
     inkscape:cy="71.630393"
     inkscape:window-width="2560"
     inkscape:window-height="1369"
     inkscape:window-x="0"
     inkscape:window-y="34"
     inkscape:window-maximized="1"
     inkscape:current-layer="g140" />
  <defs
     id="defs62">
    <symbol
       id="t"
       overflow="visible">
      <path
         d="M 19.547,-1.1719 C 18.5353,-0.64846 17.4845,-0.25784 16.3908,0 15.297,0.26953 14.1564,0.40625 12.9689,0.40625 c -3.543,0 -6.3516,-0.98828 -8.4219,-2.9688 -2.0625,-1.9766 -3.0938,-4.6602 -3.0938,-8.0469 0,-3.4062 1.0312,-6.0977 3.0938,-8.0781 2.0703,-1.9766 4.8789,-2.9688 8.4219,-2.9688 1.1875,0 2.3281,0.13672 3.4219,0.40625 1.0938,0.26172 2.1445,0.65625 3.1562,1.1875 v 4.3906 c -1.0234,-0.6875 -2.0273,-1.1914 -3.0156,-1.5156 -0.98047,-0.32031 -2.0156,-0.48438 -3.1094,-0.48438 -1.9609,0 -3.5,0.625 -4.625,1.875 -1.1172,1.25 -1.6719,2.9805 -1.6719,5.1875 0,2.1875 0.55469,3.9141 1.6719,5.1719 1.125,1.25 2.6641,1.875 4.625,1.875 1.0938,0 2.1289,-0.16016 3.1094,-0.48438 0.98828,-0.32031 1.9922,-0.82812 3.0156,-1.5156 z"
         id="path2" />
    </symbol>
    <symbol
       id="c"
       overflow="visible">
      <path
         d="m 14.297,-11.609 c -0.44922,-0.20703 -0.89062,-0.35938 -1.3281,-0.45312 -0.4375,-0.10156 -0.88281,-0.15625 -1.3281,-0.15625 -1.3125,0 -2.3242,0.42188 -3.0312,1.2656 -0.71094,0.83594 -1.0625,2.0391 -1.0625,3.6094 V 4.3e-4 H 2.4533 v -15.953 h 5.0938 v 2.625 c 0.65625,-1.0508 1.4062,-1.8164 2.25,-2.2969 0.85156,-0.47656 1.875,-0.71875 3.0625,-0.71875 0.17578,0 0.36328,0.01172 0.5625,0.03125 0.19531,0.01172 0.48438,0.04297 0.85938,0.09375 z"
         id="path5" />
    </symbol>
    <symbol
       id="b"
       overflow="visible">
      <path
         d="m 18.375,-8.0156 v 1.4531 H 6.453 c 0.125,1.1992 0.55469,2.0938 1.2969,2.6875 0.73828,0.59375 1.7734,0.89062 3.1094,0.89062 1.0703,0 2.1719,-0.15625 3.2969,-0.46875 1.125,-0.32031 2.2812,-0.80469 3.4688,-1.4531 v 3.9375 c -1.2109,0.46094 -2.418,0.80469 -3.625,1.0312 -1.2109,0.22656 -2.4141,0.34375 -3.6094,0.34375 -2.8984,0 -5.1484,-0.72656 -6.75,-2.1875 -1.5938,-1.4688 -2.3906,-3.5312 -2.3906,-6.1875 0,-2.5938 0.78516,-4.6328 2.3594,-6.125 1.5703,-1.5 3.7344,-2.25 6.4844,-2.25 2.5078,0 4.5156,0.75781 6.0156,2.2656 1.5078,1.5117 2.2656,3.5312 2.2656,6.0625 z m -5.2344,-1.7031 c 0,-0.96875 -0.28906,-1.75 -0.85938,-2.3438 -0.5625,-0.59375 -1.2969,-0.89062 -2.2031,-0.89062 -0.99219,0 -1.7969,0.28125 -2.4219,0.84375 -0.61719,0.55469 -0.99609,1.3516 -1.1406,2.3906 z"
         id="path8" />
    </symbol>
    <symbol
       id="m"
       overflow="visible">
      <path
         d="m 9.5938,-7.1719 c -1.0625,0 -1.8672,0.18359 -2.4062,0.54688 -0.53125,0.35547 -0.79688,0.88281 -0.79688,1.5781 0,0.64844 0.21094,1.1523 0.64062,1.5156 0.4375,0.36719 1.0391,0.54688 1.8125,0.54688 0.95703,0 1.7656,-0.34375 2.4219,-1.0312 0.6563,-0.68745 0.98438,-1.5469 0.98438,-2.5781 v -0.57812 z m 7.7969,-1.9375 V 0 H 12.2501 V -2.3594 C 11.5626,-1.39065 10.7892,-0.6875 9.9376,-0.25 9.08213,0.1875 8.047,0.40625 6.8282,0.40625 c -1.6562,0 -3,-0.47656 -4.0312,-1.4375 C 1.7658,-2 1.2501,-3.25005 1.2501,-4.78125 c 0,-1.875 0.64062,-3.25 1.9219,-4.125 1.2891,-0.875 3.3164,-1.3125 6.0781,-1.3125 h 3 v -0.39062 c 0,-0.8125 -0.32031,-1.4062 -0.95312,-1.7812 -0.63672,-0.375 -1.6328,-0.5625 -2.9844,-0.5625 -1.0859,0 -2.1016,0.10938 -3.0469,0.32812 -0.9375,0.21875 -1.8086,0.54688 -2.6094,0.98438 v -3.8906 c 1.082,-0.25781 2.1758,-0.45703 3.2812,-0.59375 1.1016,-0.14453 2.207,-0.21875 3.3125,-0.21875 2.875,0 4.9453,0.57031 6.2188,1.7031 1.2812,1.1367 1.9219,2.9805 1.9219,5.5312 z"
         id="path11" />
    </symbol>
    <symbol
       id="d"
       overflow="visible">
      <path
         d="m 8.0156,-20.484 v 4.5312 h 5.2656 v 3.6406 H 8.0156 v 6.7656 c 0,0.74219 0.14453,1.2461 0.4375,1.5156 0.30078,0.26172 0.89062,0.39062 1.7656,0.39062 h 2.6094 V 2.2e-4 H 8.4687 c -2.0234,0 -3.4531,-0.41406 -4.2969,-1.25 -0.83594,-0.84375 -1.25,-2.2734 -1.25,-4.2969 v -6.7656 H 0.3906 v -3.6406 h 2.5312 v -4.5312 z"
         id="path14" />
    </symbol>
    <symbol
       id="l"
       overflow="visible">
      <path
         d="m 13.297,-13.625 v -8.5312 h 5.1406 V -2e-4 H 13.297 v -2.3125 c -0.69922,0.94922 -1.4688,1.6406 -2.3125,2.0781 -0.84375,0.42578 -1.8242,0.64062 -2.9375,0.64062 -1.9688,0 -3.5859,-0.77344 -4.8438,-2.3281 -1.2617,-1.5625 -1.8906,-3.5781 -1.8906,-6.0469 0,-2.457 0.62891,-4.4688 1.8906,-6.0312 1.2578,-1.5625 2.875,-2.3438 4.8438,-2.3438 1.1016,0 2.0781,0.22656 2.9219,0.67188 0.85156,0.4375 1.6289,1.1211 2.3281,2.0469 z M 9.9376,-3.297 c 1.0938,0 1.9258,-0.39453 2.5,-1.1875 0.57031,-0.80078 0.85938,-1.9609 0.85938,-3.4844 0,-1.5078 -0.28906,-2.6641 -0.85938,-3.4688 -0.57422,-0.80078 -1.4062,-1.2031 -2.5,-1.2031 -1.0859,0 -1.9141,0.40234 -2.4844,1.2031 -0.57422,0.80469 -0.85938,1.9609 -0.85938,3.4688 0,1.5234 0.28516,2.6836 0.85938,3.4844 0.57031,0.79297 1.3984,1.1875 2.4844,1.1875 z"
         id="path17" />
    </symbol>
    <symbol
       id="k"
       overflow="visible">
      <path
         d="m 10.938,-3.2969 c 1.0938,0 1.9258,-0.39453 2.5,-1.1875 0.57031,-0.80078 0.85938,-1.9609 0.85938,-3.4844 0,-1.5078 -0.28906,-2.6641 -0.85938,-3.4688 -0.57422,-0.80078 -1.4062,-1.2031 -2.5,-1.2031 -1.0938,0 -1.9336,0.40234 -2.5156,1.2031 -0.58594,0.80469 -0.875,1.9609 -0.875,3.4688 0,1.5117 0.28906,2.668 0.875,3.4688 0.58203,0.80469 1.4219,1.2031 2.5156,1.2031 z m -3.3906,-10.328 c 0.70703,-0.92578 1.4883,-1.6094 2.3438,-2.0469 0.85156,-0.44531 1.832,-0.67188 2.9375,-0.67188 1.9688,0 3.582,0.78125 4.8438,2.3438 1.2695,1.5625 1.9062,3.5742 1.9062,6.0312 0,2.4688 -0.63672,4.4844 -1.9062,6.0469 -1.2617,1.5547 -2.875,2.3281 -4.8438,2.3281 -1.1055,0 -2.0859,-0.21875 -2.9375,-0.65625 -0.85547,-0.4375 -1.6367,-1.125 -2.3438,-2.0625 V 7e-5 H 2.4536 v -22.156 h 5.0938 z"
         id="path20" />
    </symbol>
    <symbol
       id="j"
       overflow="visible">
      <path
         d="m 0.35938,-15.953 h 5.0938 l 4.2969,10.828 3.6406,-10.828 h 5.0938 L 11.78138,1.516 C 11.10169,3.2855 10.31658,4.5238 9.42198,5.2348 8.52354,5.94183 7.34388,6.2973 5.87508,6.2973 H 2.92198 V 2.9535 h 1.5938 c 0.86328,0 1.4922,-0.14062 1.8906,-0.42188 C 6.80091,2.25818 7.1095,1.766 7.32826,1.04722 l 0.14062,-0.4375 z"
         id="path23" />
    </symbol>
    <symbol
       id="i"
       overflow="visible">
      <path
         d="m 2.6719,-21.266 h 14.812 v 4.1406 H 8.1558 v 3.9688 h 8.7656 V -9.016 H 8.1558 v 4.875 h 9.6406 V -4e-4 H 2.6714 Z"
         id="path26" />
    </symbol>
    <symbol
       id="s"
       overflow="visible">
      <path
         d="m 2.4531,-22.156 h 5.0938 v 12.062 l 5.875,-5.8594 h 5.9219 l -7.7969,7.3281 8.4062,8.625 H 13.7812 L 7.5468,-6.6565 V -3e-4 H 2.453 Z"
         id="path29" />
    </symbol>
    <symbol
       id="a"
       overflow="visible">
      <path
         d="m 10.047,-12.688 c -1.1367,0 -2,0.40625 -2.5938,1.2188 -0.5938,0.81255 -0.89062,1.9805 -0.89062,3.5 0,1.5312 0.29688,2.7031 0.89062,3.5156 0.59374,0.8125 1.457,1.2188 2.5938,1.2188 1.1016,0 1.9453,-0.40625 2.5312,-1.2188 0.59375,-0.8125 0.89062,-1.9844 0.89062,-3.5156 0,-1.5195 -0.29688,-2.6875 -0.89062,-3.5 -0.58594,-0.8125 -1.4297,-1.2188 -2.5312,-1.2188 z m 0,-3.6562 c 2.7383,0 4.8789,0.74609 6.4219,2.2344 1.5391,1.4805 2.3125,3.5273 2.3125,6.1406 0,2.625 -0.77344,4.6797 -2.3125,6.1562 -1.543,1.4805 -3.6836,2.2188 -6.4219,2.2188 -2.7617,0 -4.918,-0.73828 -6.4688,-2.2188 -1.5547,-1.4766 -2.3281,-3.5312 -2.3281,-6.1562 0,-2.6133 0.77344,-4.6602 2.3281,-6.1406 1.5508,-1.4883 3.707,-2.2344 6.4688,-2.2344 z"
         id="path32" />
    </symbol>
    <symbol
       id="h"
       overflow="visible">
      <path
         d="m 2.6719,-21.266 h 9.1094 c 2.707,0 4.7852,0.60547 6.2344,1.8125 1.4453,1.1992 2.1719,2.9062 2.1719,5.125 0,2.2305 -0.72656,3.9492 -2.1719,5.1562 -1.4492,1.1992 -3.5273,1.7969 -6.2344,1.7969 H 8.1563 V -4e-4 H 2.6719 Z m 5.4844,3.9688 v 5.9375 h 3.0469 c 1.0625,0 1.8789,-0.25391 2.4531,-0.76562 0.58203,-0.51953 0.875,-1.2539 0.875,-2.2031 0,-0.94531 -0.29297,-1.6758 -0.875,-2.1875 -0.57422,-0.51953 -1.3906,-0.78125 -2.4531,-0.78125 z"
         id="path35" />
    </symbol>
    <symbol
       id="g"
       overflow="visible">
      <path
         d="m 2.2812,-6.2031 v -9.75 h 5.125 v 1.5938 c 0,0.86719 -0.00781,1.9531 -0.015625,3.2656 -0.011719,1.3047 -0.015625,2.1719 -0.015625,2.6094 0,1.2812 0.03125,2.2031 0.09375,2.7656 0.070312,0.5625 0.1875,0.97656 0.34375,1.2344 0.21875,0.33594 0.49219,0.58984 0.82812,0.76562 0.33203,0.17969 0.71875,0.26562 1.1562,0.26562 1.0625,0 1.8945,-0.40625 2.5,-1.2188 0.61328,-0.8125 0.92188,-1.9453 0.92188,-3.4062 v -7.875 h 5.0938 V -6e-5 h -5.0938 v -2.3125 c -0.77344,0.9375 -1.5898,1.625 -2.4531,2.0625 -0.85547,0.4375 -1.7969,0.65625 -2.8281,0.65625 -1.8438,0 -3.25,-0.5625 -4.2188,-1.6875 -0.96094,-1.1328 -1.4375,-2.7734 -1.4375,-4.9219 z"
         id="path38" />
    </symbol>
    <symbol
       id="f"
       overflow="visible">
      <path
         d="M 18.484,-9.7188 V 0 h -5.125 v -7.4375 c 0,-1.375 -0.03125,-2.3203 -0.09375,-2.8438 -0.0625,-0.51953 -0.16797,-0.90625 -0.3125,-1.1562 -0.19922,-0.33203 -0.46875,-0.58594 -0.8125,-0.76562 -0.34375,-0.1875 -0.73438,-0.28125 -1.1719,-0.28125 -1.0625,0 -1.9023,0.41406 -2.5156,1.2344 -0.60547,0.8125 -0.90625,1.9492 -0.90625,3.4062 V 3e-5 H 2.4527 v -15.953 h 5.0938 v 2.3281 c 0.76953,-0.92578 1.5859,-1.6094 2.4531,-2.0469 0.86328,-0.44531 1.8164,-0.67188 2.8594,-0.67188 1.8438,0 3.2383,0.57031 4.1875,1.7031 0.95703,1.125 1.4375,2.7656 1.4375,4.9219 z"
         id="path41" />
    </symbol>
    <symbol
       id="e"
       overflow="visible">
      <path
         d="m 17.234,-13.297 c 0.64453,-0.98828 1.4102,-1.7422 2.2969,-2.2656 0.89453,-0.51953 1.875,-0.78125 2.9375,-0.78125 1.832,0 3.2266,0.57031 4.1875,1.7031 0.95703,1.125 1.4375,2.7656 1.4375,4.9219 V -5e-5 h -5.125 v -8.3125 -0.39062 c 0.0078,-0.13281 0.01563,-0.32031 0.01563,-0.5625 0,-1.1328 -0.16797,-1.9531 -0.5,-2.4531 -0.32422,-0.50781 -0.85938,-0.76562 -1.6094,-0.76562 -0.96875,0 -1.7188,0.40234 -2.25,1.2031 -0.52344,0.79297 -0.79297,1.9453 -0.8125,3.4531 V -9e-5 h -5.125 v -8.3125 c 0,-1.7695 -0.15234,-2.9062 -0.45312,-3.4062 -0.30469,-0.50781 -0.84375,-0.76562 -1.625,-0.76562 -0.98047,0 -1.7344,0.40234 -2.2656,1.2031 -0.53125,0.80469 -0.79688,1.9492 -0.79688,3.4375 V -1e-5 h -5.125 v -15.953 h 5.125 v 2.3281 c 0.625,-0.89453 1.3438,-1.5703 2.1562,-2.0312 0.8125,-0.45703 1.707,-0.6875 2.6875,-0.6875 1.1016,0 2.0781,0.26562 2.9219,0.79688 0.8438,0.53126 1.4844,1.2812 1.9219,2.25 z"
         id="path44" />
    </symbol>
    <symbol
       id="r"
       overflow="visible">
      <path
         d="m 12.953,-22.156 v 3.3438 h -2.8281 c -0.71875,0 -1.2266,0.13281 -1.5156,0.39062 -0.28125,0.26172 -0.42188,0.71484 -0.42188,1.3594 v 1.1094 h 4.3594 v 3.6406 h -4.3594 v 12.312 h -5.0938 v -12.312 h -2.5312 v -3.6406 h 2.5312 v -1.1094 c 0,-1.7383 0.48438,-3.0195 1.4531,-3.8438 0.96875,-0.83203 2.4688,-1.25 4.5,-1.25 z"
         id="path47" />
    </symbol>
    <symbol
       id="q"
       overflow="visible">
      <path
         d="M 18.484,-9.7188 V 0 h -5.125 v -7.4062 c 0,-1.3945 -0.03125,-2.3516 -0.09375,-2.875 -0.0625,-0.51953 -0.16797,-0.90625 -0.3125,-1.1562 -0.19922,-0.33203 -0.46875,-0.58594 -0.8125,-0.76562 -0.34375,-0.1875 -0.73438,-0.28125 -1.1719,-0.28125 -1.0625,0 -1.9023,0.41406 -2.5156,1.2344 -0.60547,0.8125 -0.90625,1.9492 -0.90625,3.4062 V 1.3e-4 H 2.4527 v -22.156 h 5.0938 v 8.5312 c 0.76953,-0.92578 1.5859,-1.6094 2.4531,-2.0469 0.86328,-0.44531 1.8164,-0.67188 2.8594,-0.67188 1.8438,0 3.2383,0.57031 4.1875,1.7031 0.95703,1.125 1.4375,2.7656 1.4375,4.9219 z"
         id="path50" />
    </symbol>
    <symbol
       id="p"
       overflow="visible">
      <path
         d="m 2.6719,-21.266 h 6.125 l 7.7344,14.578 v -14.578 h 5.2031 V 0 h -6.125 L 7.875,-14.594 V 0 H 2.6719 Z"
         id="path53" />
    </symbol>
    <symbol
       id="o"
       overflow="visible">
      <path
         d="M 2.4531,-15.953 H 7.5469 V -0.281 C 7.5469,1.8518 7.03128,3.4846 6,4.6096 4.9766,5.7346 3.4922,6.2971 1.5469,6.2971 H -0.9687 V 2.9533 h 0.89062 c 0.96875,0 1.6289,-0.21875 1.9844,-0.65625 0.36328,-0.4375 0.54688,-1.2969 0.54688,-2.5781 z m 0,-6.2031 h 5.0938 v 4.1562 H 2.4531 Z"
         id="path56" />
    </symbol>
    <symbol
       id="n"
       overflow="visible">
      <path
         d="m 15.344,-15.453 v 4.1562 c -0.69922,-0.46875 -1.3984,-0.81641 -2.0938,-1.0469 -0.69922,-0.22656 -1.4219,-0.34375 -2.1719,-0.34375 -1.4297,0 -2.5391,0.41797 -3.3281,1.25 -0.79297,0.82422 -1.1875,1.9805 -1.1875,3.4688 0,1.5 0.39453,2.668 1.1875,3.5 0.78906,0.82422 1.8984,1.2344 3.3281,1.2344 0.80078,0 1.5547,-0.11719 2.2656,-0.35938 0.71875,-0.23828 1.3828,-0.58594 2,-1.0469 v 4.1719 c -0.80469,0.29297 -1.6172,0.50781 -2.4375,0.65625 -0.8125,0.14453 -1.6367,0.21875 -2.4688,0.21875 -2.875,0 -5.125,-0.73438 -6.75,-2.2031 -1.625,-1.4766 -2.4375,-3.5352 -2.4375,-6.1719 0,-2.625 0.8125,-4.6758 2.4375,-6.1562 1.625,-1.4766 3.875,-2.2188 6.75,-2.2188 0.83203,0 1.6562,0.07813 2.4688,0.23438 0.8125,0.14844 1.625,0.36719 2.4375,0.65625 z"
         id="path59" />
    </symbol>
  </defs>
  <g
     id="g140"
     transform="translate(-295.79121,-225.79011)">
    <path
       d="m 403.26413,263.11806 c -0.087,-3.08964 -3.2031,-5.83768 -6.53948,-5.80332 -1.61794,0.0264 -6.89501,0.91835 -6.85494,11.3055 l 0.0694,18.20194 c 0.003,0.85767 -0.10384,1.66582 -0.32663,2.44199 -0.26513,-0.49032 -0.60451,-0.95191 -1.01818,-1.36557 -2.22407,-2.22325 -5.87202,-2.24554 -8.30357,-0.0535 -0.0502,0.0439 -0.095,0.0919 -0.13811,0.14213 -2.96187,3.50261 -6.58672,6.55789 -9.4983,9.01358 -1.03974,0.87524 -1.97968,1.66824 -2.75355,2.36696 -3.16712,2.85413 -3.58804,6.83347 -3.58313,10.34874 l 0.0319,23.03993 c 0,0.0646 0.0104,0.12544 0.0192,0.18686 0.004,0.0359 0.003,0.0727 0.0104,0.10697 0.0167,0.0846 0.0438,0.16451 0.0751,0.24357 0.003,0.009 0.006,0.0216 0.009,0.0311 0.2228,0.52626 0.74427,0.89441 1.34961,0.89441 h 0.003 18.57647 c 0.80816,0 1.46539,-0.65562 1.46539,-1.4654 l -7.9e-4,-12.3835 14.72654,-14.72652 c 2.50759,-2.50761 3.73013,-5.54206 3.63118,-9.01665 z m -4.75312,40.45375 -15.15627,15.15707 c -0.2739,0.27391 -0.42963,0.64767 -0.42963,1.03656 v 11.52507 l -15.64978,-8.1e-4 -0.0295,-21.57615 c -0.004,-3.01461 0.30745,-6.08993 2.61535,-8.16783 0.75386,-0.67958 1.66824,-1.451 2.67994,-2.30316 2.97394,-2.5068 6.67136,-5.6228 9.77777,-9.27955 1.29289,-1.10923 3.08411,-1.10923 4.20299,0.009 0.99663,0.99662 1.13877,2.52908 0.42563,3.67902 l -0.47594,0.58696 -11.63527,11.63527 c -0.57258,0.57258 -0.57258,1.49892 0,2.07154 0.28589,0.28588 0.66045,0.42965 1.03655,0.42965 0.37454,0 0.74988,-0.14302 1.03657,-0.42965 l 11.68718,-11.68719 c 0.2739,-0.2739 0.51747,-0.5702 0.72591,-0.88163 l 0.77382,-0.9527 c 1.87827,-2.31115 2.78707,-4.80262 2.77584,-7.61197 l -0.0694,-18.20195 c -0.02,-5.19715 1.4646,-8.32359 3.97137,-8.36346 1.74809,-0.0176 3.52182,1.46297 3.56495,2.95635 l 0.95029,33.50907 c 0.0703,2.63681 -0.86325,4.94551 -2.77826,6.86128 z m -66.39871,-4.20299 c -0.77384,-0.69796 -1.71135,-1.48855 -2.74865,-2.36227 -2.91321,-2.45567 -6.53949,-5.51179 -9.50299,-9.01603 -0.0432,-0.0502 -0.0886,-0.0974 -0.1381,-0.14212 -2.43013,-2.19298 -6.07952,-2.1705 -8.30357,0.0527 -0.40887,0.40886 -0.75147,0.86963 -1.0198,1.36556 -0.22278,-0.77542 -0.32901,-1.58358 -0.32662,-2.44117 l 0.0694,-18.20276 c 0.0408,-10.38718 -5.23784,-11.27913 -6.85493,-11.3055 -3.36911,-0.039 -6.45404,2.71286 -6.5395,5.80332 l -0.95107,33.50906 c -0.0974,3.42593 1.15954,6.54359 3.63119,9.01439 l 14.72653,14.72818 v 12.38349 c 0,0.80815 0.65562,1.4654 1.4654,1.4654 h 18.57483 0.003 c 0.50549,0 0.95188,-0.25636 1.21542,-0.64606 0,0 0,-8.1e-4 8e-4,-8.1e-4 0.0527,-0.0775 0.0974,-0.1613 0.13498,-0.24835 0.004,-0.0119 0.007,-0.0264 0.0119,-0.0383 0.0295,-0.0767 0.0575,-0.15412 0.0742,-0.23637 0.009,-0.0439 0.009,-0.0918 0.0149,-0.13811 0.006,-0.0511 0.015,-0.1022 0.015,-0.15652 l 0.032,-23.03992 c 0.007,-3.51444 -0.41608,-7.49378 -3.58316,-10.34792 z m 0.62289,31.9206 h -15.64977 v -11.52425 c 0,-0.3889 -0.15491,-0.76106 -0.42965,-1.03655 l -15.15624,-15.15708 c -1.91499,-1.91419 -2.84943,-4.22282 -2.77501,-6.85984 l 0.95029,-33.50907 c 0.0416,-1.47739 1.80878,-2.95634 3.51691,-2.95634 h 0.0463 c 2.50761,0.0407 3.99283,3.1663 3.97219,8.36346 l -0.0694,18.20276 c -0.0104,2.811 0.8976,5.30102 2.77584,7.61278 l 0.77302,0.9503 c 0.21241,0.31385 0.45518,0.60932 0.7275,0.88242 l 11.68554,11.68719 c 0.2859,0.28588 0.66044,0.42965 1.03656,0.42965 0.37532,0 0.74988,-0.14287 1.03655,-0.42965 0.57258,-0.57258 0.57258,-1.49893 0,-2.07154 l -11.63057,-11.63056 -0.47832,-0.58775 c -0.2899,-0.46636 -0.44481,-1.00781 -0.44481,-1.574 0,-0.80018 0.30744,-1.54764 0.86725,-2.10814 1.11882,-1.11882 2.91076,-1.11481 4.20299,-0.007 3.10886,3.65757 6.8071,6.77358 9.78267,9.2818 1.00861,0.8513 1.92216,1.62032 2.67607,2.29908 2.30541,2.07707 2.6186,5.15323 2.6137,8.16784 z m 48.38587,-64.49951 v -19.76647 c 0,-0.80976 -0.65562,-1.46541 -1.4654,-1.46541 h -18.30109 v -18.30252 c 0,-0.80974 -0.65562,-1.4654 -1.46539,-1.4654 h -19.76793 c -0.80815,0 -1.46539,0.65563 -1.46539,1.4654 v 18.30172 l -18.30171,7.8e-4 c -0.80815,0 -1.4654,0.65563 -1.4654,1.4654 v 19.76711 c 0,0.80975 0.65562,1.46538 1.4654,1.46538 h 18.30171 v 18.30111 c 0,0.80815 0.65563,1.4654 1.46539,1.4654 h 19.76711 c 0.80815,0 1.46539,-0.65564 1.46539,-1.4654 l 7.9e-4,-18.30172 h 18.30172 c 0.80895,0 1.46459,-0.65562 1.46459,-1.46539 z m -2.92997,-1.46459 h -18.3017 c -0.80817,0 -1.46542,0.65564 -1.46542,1.4654 v 18.3011 h -16.8363 v -18.30171 c 0,-0.80976 -0.65562,-1.4654 -1.4654,-1.4654 h -18.30252 v -16.8363 h 18.3017 c 0.80817,0 1.4654,-0.65564 1.4654,-1.4654 l 8.1e-4,-18.30111 h 16.83712 v 18.30172 c 0,0.80974 0.65562,1.4654 1.4654,1.4654 h 18.3017 v 16.8363 z"
       id="path64"
       style="fill:#343c5e;fill-opacity:1;stroke-width:3;stroke-miterlimit:4;stroke-dasharray:none;stroke:#343c5e;stroke-opacity:1" />
  </g>
</svg>
