<?xml version="1.0" encoding="UTF-8" standalone="no"?>
<svg
   width="103.51752pt"
   height="83.933418pt"
   version="1.1"
   viewBox="0 0 103.51752 83.933418"
   id="svg173"
   sodipodi:docname="photo.svg"
   inkscape:version="1.1.1 (1:1.1+202109281949+c3084ef5ed)"
   xmlns:inkscape="http://www.inkscape.org/namespaces/inkscape"
   xmlns:sodipodi="http://sodipodi.sourceforge.net/DTD/sodipodi-0.dtd"
   xmlns="http://www.w3.org/2000/svg"
   xmlns:svg="http://www.w3.org/2000/svg">
  <sodipodi:namedview
     id="namedview175"
     pagecolor="#ffffff"
     bordercolor="#666666"
     borderopacity="1.0"
     inkscape:pageshadow="2"
     inkscape:pageopacity="0.0"
     inkscape:pagecheckerboard="0"
     inkscape:document-units="pt"
     showgrid="false"
     fit-margin-top="0"
     fit-margin-left="0"
     fit-margin-right="0"
     fit-margin-bottom="0"
     inkscape:zoom="3.7414286"
     inkscape:cx="43.699886"
     inkscape:cy="86.865216"
     inkscape:window-width="2560"
     inkscape:window-height="1369"
     inkscape:window-x="0"
     inkscape:window-y="34"
     inkscape:window-maximized="1"
     inkscape:current-layer="g171" />
  <defs
     id="defs77">
    <symbol
       id="y"
       overflow="visible">
      <path
         d="M 4.1719,-0.25 C 3.95315,-0.13281 3.72268,-0.05078 3.4844,0 3.25393,0.0625 3.01565,0.09375 2.76565,0.09375 c -0.75,0 -1.3516,-0.20703 -1.7969,-0.625 -0.4375,-0.42578 -0.65625,-1.0039 -0.65625,-1.7344 0,-0.71875 0.21875,-1.2852 0.65625,-1.7031 0.44531,-0.42578 1.0469,-0.64062 1.7969,-0.64062 0.25,0 0.48828,0.027344 0.71875,0.078125 0.23828,0.054688 0.46875,0.13672 0.6875,0.25 v 0.9375 c -0.21875,-0.14453 -0.4375,-0.25 -0.65625,-0.3125 -0.21094,-0.070312 -0.42969,-0.10938 -0.65625,-0.10938 -0.41797,0 -0.74609,0.13672 -0.98438,0.40625 -0.24219,0.26172 -0.35938,0.625 -0.35938,1.0938 0,0.4688 0.11719,0.83984 0.35938,1.1094 0.23828,0.26172 0.56641,0.39062 0.98438,0.39062 0.22656,0 0.44531,-0.03125 0.65625,-0.09375 0.21875,-0.070313 0.4375,-0.17969 0.65625,-0.32812 z"
         id="path2" />
    </symbol>
    <symbol
       id="c"
       overflow="visible">
      <path
         d="M 3.0469,-2.4688 C 2.95315,-2.519581 2.8594,-2.554738 2.76565,-2.57818 2.6719,-2.597711 2.57815,-2.60943 2.4844,-2.60943 c -0.28125,0 -0.5,0.09375 -0.65625,0.28125 C 1.67971,-2.14849 1.6094,-1.89459 1.6094,-1.56256 V -6e-5 H 0.5156 v -3.4062 h 1.0938 v 0.5625 c 0.13281,-0.21875 0.28906,-0.37891 0.46875,-0.48438 0.1875,-0.10156 0.40625,-0.15625 0.65625,-0.15625 0.039063,0 0.082031,0.00781 0.125,0.015625 0.039063,0 0.10156,0.00781 0.1875,0.015625 z"
         id="path5" />
    </symbol>
    <symbol
       id="a"
       overflow="visible">
      <path
         d="m 3.9219,-1.7031 v 0.29688 H 1.375 c 0.03125,0.26172 0.125,0.45312 0.28125,0.57812 0.15625,0.125 0.375,0.1875 0.65625,0.1875 0.22656,0 0.46094,-0.03125 0.70312,-0.09375 C 3.2539,-0.804663 3.5,-0.91013 3.75,-1.04685 V -0.2031 C 3.5,-0.10935 3.24219,-0.03513 2.98438,0.01565 2.72266,0.066431 2.46876,0.093775 2.21876,0.093775 c -0.61719,0 -1.0938,-0.15625 -1.4375,-0.46875 -0.3437,-0.3125 -0.51562,-0.75391 -0.51562,-1.3281 0,-0.55078 0.16406,-0.98438 0.5,-1.2969 0.33203,-0.32031 0.79688,-0.48438 1.3906,-0.48438 0.53125,0 0.95703,0.16406 1.2812,0.48438 0.32031,0.32422 0.48438,0.75781 0.48438,1.2969 z m -1.125,-0.375 c 0,-0.19531 -0.0625,-0.35938 -0.1875,-0.48438 C 2.49221,-2.69529 2.33596,-2.7656 2.14065,-2.7656 c -0.21094,0 -0.38281,0.0625 -0.51562,0.1875 -0.125,0.11719 -0.20312,0.28125 -0.23438,0.5 z"
         id="path8" />
    </symbol>
    <symbol
       id="k"
       overflow="visible">
      <path
         d="m 2.0469,-1.5312 c -0.23047,0 -0.40234,0.042969 -0.51562,0.125 -0.11719,0.074219 -0.17188,0.18359 -0.17188,0.32812 0,0.13672 0.046875,0.24609 0.14062,0.32812 0.09375,0.074219 0.22266,0.10938 0.39062,0.10938 0.19531,0 0.36328,-0.070313 0.5,-0.21875 0.14453,-0.14453 0.21875,-0.32812 0.21875,-0.54688 v -0.125 z M 3.7031,-1.93745 V 5e-5 H 2.6093 v -0.5 c -0.14844,0.21094 -0.3125,0.35938 -0.5,0.45312 -0.17969,0.09375 -0.39844,0.14062 -0.65625,0.14062 -0.35547,0 -0.64062,-0.10156 -0.85938,-0.3125 -0.21875,-0.20703 -0.32812,-0.47266 -0.32812,-0.79688 0,-0.40625 0.13281,-0.69531 0.40625,-0.875 0.28125,-0.1875 0.71094,-0.28125 1.2969,-0.28125 h 0.64062 v -0.09375 c 0,-0.16406 -0.070313,-0.28906 -0.20312,-0.375 -0.13672,-0.082031 -0.35156,-0.125 -0.64062,-0.125 -0.23047,0 -0.44531,0.027344 -0.64062,0.078125 -0.19922,0.042969 -0.38672,0.10938 -0.5625,0.20312 v -0.82812 c 0.22656,-0.050781 0.46094,-0.09375 0.70312,-0.125 0.23828,-0.03125 0.47266,-0.046875 0.70312,-0.046875 0.61328,0 1.0547,0.125 1.3281,0.375 0.26953,0.24219 0.40625,0.63281 0.40625,1.1719 z"
         id="path11" />
    </symbol>
    <symbol
       id="b"
       overflow="visible">
      <path
         d="m 1.7031,-4.3594 v 0.95312 h 1.125 v 0.78125 h -1.125 v 1.4375 c 0,0.16797 0.03125,0.27734 0.09375,0.32812 0.0625,0.054687 0.1875,0.078125 0.375,0.078125 h 0.5625 v 0.78125 h -0.9375 c -0.42969,0 -0.73047,-0.085938 -0.90625,-0.26562 -0.17969,-0.17578 -0.26562,-0.48438 -0.26562,-0.92188 v -1.4375 H 0.0781 v -0.78125 h 0.54688 v -0.95312 z"
         id="path14" />
    </symbol>
    <symbol
       id="j"
       overflow="visible">
      <path
         d="M 2.8438,-2.9062 V -4.7187 H 3.9219 V 1e-4 H 2.8438 v -0.48438 c -0.15625,0.19922 -0.32422,0.34375 -0.5,0.4375 -0.17969,0.09375 -0.38672,0.14062 -0.625,0.14062 -0.41797,0 -0.76172,-0.16406 -1.0312,-0.5 -0.27344,-0.33203 -0.40625,-0.76562 -0.40625,-1.2969 0,-0.51953 0.13281,-0.94531 0.40625,-1.2812 0.26953,-0.33203 0.61328,-0.5 1.0312,-0.5 0.22656,0 0.42969,0.046875 0.60938,0.14062 0.1875,0.09375 0.35938,0.24219 0.51562,0.4375 z m -0.71875,2.2031 c 0.22656,0 0.40625,-0.082031 0.53125,-0.25 0.125,-0.17578 0.1875,-0.42578 0.1875,-0.75 0,-0.32031 -0.0625,-0.56641 -0.1875,-0.73438 -0.125,-0.16406 -0.30469,-0.25 -0.53125,-0.25 -0.24219,0 -0.42188,0.085938 -0.54688,0.25 -0.11719,0.16797 -0.17188,0.41406 -0.17188,0.73438 0,0.32422 0.054688,0.57422 0.17188,0.75 0.125,0.16797 0.30469,0.25 0.54688,0.25 z"
         id="path17" />
    </symbol>
    <symbol
       id="i"
       overflow="visible">
      <path
         d="m 2.3281,-0.70312 c 0.23828,0 0.41406,-0.082031 0.53125,-0.25 0.125,-0.17578 0.1875,-0.42578 0.1875,-0.75 0,-0.32031 -0.0625,-0.56641 -0.1875,-0.73438 -0.11719,-0.16406 -0.29297,-0.25 -0.53125,-0.25 -0.23047,0 -0.40625,0.085938 -0.53125,0.25 -0.125,0.16797 -0.1875,0.41406 -0.1875,0.73438 0,0.32422 0.0625,0.57422 0.1875,0.75 0.125,0.16797 0.30078,0.25 0.53125,0.25 z m -0.71875,-2.2031 c 0.14453,-0.19531 0.30469,-0.34375 0.48438,-0.4375 0.1875,-0.09375 0.39844,-0.14062 0.64062,-0.14062 0.41406,0 0.75781,0.16797 1.0312,0.5 0.26953,0.33594 0.40625,0.76172 0.40625,1.2812 0,0.53125 -0.13672,0.96484 -0.40625,1.2969 -0.27344,0.33594 -0.61719,0.5 -1.0312,0.5 -0.24219,0 -0.45312,-0.046875 -0.64062,-0.14062 C 1.91404,-0.14061 1.75389,-0.28514 1.60935,-0.48436 V 2e-5 h -1.0938 v -4.7188 h 1.0938 z"
         id="path20" />
    </symbol>
    <symbol
       id="h"
       overflow="visible">
      <path
         d="m 0.078125,-3.4062 h 1.0781 l 0.92188,2.3125 0.78125,-2.3125 h 1.0781 l -1.4219,3.7344 c -0.14844,0.375 -0.32031,0.63281 -0.51562,0.78125 -0.1875,0.15625 -0.4375,0.23438 -0.75,0.23438 h -0.625 V 0.62508 h 0.34375 c 0.17578,0 0.30469,-0.03125 0.39062,-0.09375 0.082031,-0.054688 0.14844,-0.15625 0.20312,-0.3125 l 0.03125,-0.09375 z"
         id="path23" />
    </symbol>
    <symbol
       id="g"
       overflow="visible">
      <path
         d="m 3.7188,-4.3906 v 0.95312 C 3.47661,-3.53904 3.23833,-3.61717 3.00005,-3.67186 2.75786,-3.73436 2.53521,-3.76561 2.32817,-3.76561 c -0.28125,0 -0.49219,0.042969 -0.625,0.125 -0.13672,0.074219 -0.20312,0.1875 -0.20312,0.34375 0,0.125 0.046875,0.22656 0.14062,0.29688 0.09375,0.0625 0.25391,0.11719 0.48438,0.15625 l 0.5,0.10938 c 0.50781,0.10547 0.86719,0.26172 1.0781,0.46875 0.20703,0.19922 0.3125,0.49219 0.3125,0.875 0,0.5 -0.14844,0.875 -0.4375,1.125 C 3.28518,-0.02341 2.83206,0.09378 2.21875,0.09378 1.92578,0.09378 1.63281,0.06253 1.34375,3e-5 1.0625,-0.050751 0.77344,-0.12888 0.48437,-0.23435 v -0.98438 c 0.28906,0.14844 0.57031,0.26172 0.84375,0.34375 0.26953,0.074219 0.53125,0.10938 0.78125,0.10938 0.25,0 0.44141,-0.039063 0.57812,-0.125 0.13281,-0.082031 0.20312,-0.20312 0.20312,-0.35938 0,-0.14453 -0.046875,-0.25391 -0.14062,-0.32812 C 2.664052,-1.648413 2.48437,-1.71872 2.20311,-1.78122 L 1.74999,-1.8906 C 1.30077,-1.98435 0.97265,-2.13279 0.76561,-2.34372 0.55467,-2.56247 0.45311,-2.84763 0.45311,-3.2031 c 0,-0.45703 0.14453,-0.80469 0.4375,-1.0469 0.28906,-0.23828 0.70703,-0.35938 1.25,-0.35938 0.25,0 0.50391,0.023437 0.76562,0.0625 0.25781,0.03125 0.53125,0.085937 0.8125,0.15625 z"
         id="path26" />
    </symbol>
    <symbol
       id="x"
       overflow="visible">
      <path
         d="M 3.3281,-0.82812 H 1.5 L 1.20312,0 h -1.1719 l 1.6719,-4.5312 h 1.4062 L 4.78122,0 H 3.60932 Z M 1.7812,-1.67187 h 1.25 l -0.625,-1.7969 z"
         id="path29" />
    </symbol>
    <symbol
       id="w"
       overflow="visible">
      <path
         d="m 0.57812,-4.5312 h 1.4844 l 1.0312,2.4219 1.0312,-2.4219 h 1.4844 V 0 h -1.0938 v -3.3125 l -1.0469,2.4375 h -0.75 L 1.67172,-3.3125 V 0 h -1.0938 z"
         id="path32" />
    </symbol>
    <symbol
       id="v"
       overflow="visible">
      <path
         d="m 1.7344,-3.6562 v 2.7656 h 0.42188 c 0.47656,0 0.84375,-0.11328 1.0938,-0.34375 0.25,-0.23828 0.375,-0.58203 0.375,-1.0312 0,-0.45703 -0.125,-0.80078 -0.375,-1.0312 -0.25,-0.23828 -0.61719,-0.35938 -1.0938,-0.35938 z M 0.5782,-4.5312 H 1.797 c 0.69531,0 1.2109,0.054688 1.5469,0.15625 0.33203,0.09375 0.61719,0.25781 0.85938,0.48438 0.21875,0.21094 0.37891,0.44922 0.48438,0.71875 0.10156,0.26172 0.15625,0.5625 0.15625,0.90625 0,0.33594 -0.054688,0.63672 -0.15625,0.90625 -0.10547,0.27344 -0.26562,0.51172 -0.48438,0.71875 -0.24219,0.23047 -0.53125,0.39844 -0.875,0.5 C 2.99234,-0.04682 2.48453,5e-5 1.79708,5e-5 h -1.2188 z"
         id="path35" />
    </symbol>
    <symbol
       id="f"
       overflow="visible">
      <path
         d="m 3.1719,-3.2969 v 0.82812 C 2.94143,-2.56253 2.71878,-2.63284 2.50002,-2.68753 2.28908,-2.738311 2.08596,-2.765655 1.89064,-2.765655 c -0.21094,0 -0.36719,0.027344 -0.46875,0.078125 -0.09375,0.054688 -0.14062,0.13672 -0.14062,0.25 0,0.085938 0.035156,0.15234 0.10938,0.20312 0.082031,0.042969 0.21875,0.074219 0.40625,0.09375 l 0.20312,0.03125 c 0.55078,0.074219 0.92188,0.19531 1.1094,0.35938 0.19531,0.15625 0.29688,0.40625 0.29688,0.75 0,0.36719 -0.13672,0.64062 -0.40625,0.82812 C 2.73833,0.00387 2.3438,0.09371 1.81255,0.09371 1.58208,0.09371 1.34771,0.070272 1.10943,0.03121 0.86724,-4e-5 0.62505,-0.050821 0.37505,-0.12504 v -0.82812 c 0.21875,0.10547 0.4375,0.18359 0.65625,0.23438 0.22656,0.054688 0.46094,0.078125 0.70312,0.078125 0.20703,0 0.36328,-0.023437 0.46875,-0.078125 0.11328,-0.0625 0.17188,-0.14844 0.17188,-0.26562 0,-0.09375 -0.039062,-0.16016 -0.10938,-0.20312 -0.074219,-0.050781 -0.21875,-0.09375 -0.4375,-0.125 L 1.62505,-1.34377 C 1.14458,-1.394551 0.80474,-1.50393 0.60945,-1.67189 0.42195,-1.83595 0.3282,-2.08595 0.3282,-2.42189 c 0,-0.35156 0.11719,-0.61719 0.35938,-0.79688 0.25,-0.17578 0.62891,-0.26562 1.1406,-0.26562 0.19531,0 0.40625,0.015625 0.625,0.046875 0.22656,0.03125 0.46875,0.078125 0.71875,0.14062 z"
         id="path38" />
    </symbol>
    <symbol
       id="u"
       overflow="visible">
      <path
         d="m 0.51562,-3.4062 h 1.0938 V 0 h -1.0938 z m 0,-1.3125 h 1.0938 v 0.875 h -1.0938 z"
         id="path41" />
    </symbol>
    <symbol
       id="t"
       overflow="visible">
      <path
         d="m 2.8438,-0.57812 c -0.15625,0.19922 -0.32422,0.34375 -0.5,0.4375 C 2.16411,-0.04687 1.95708,0 1.7188,0 1.30083,0 0.95708,-0.16016 0.6876,-0.48438 c -0.27344,-0.33203 -0.40625,-0.75 -0.40625,-1.25 0,-0.50781 0.13281,-0.92578 0.40625,-1.25 0.26953,-0.33203 0.61328,-0.5 1.0312,-0.5 0.23828,0 0.44531,0.046875 0.625,0.14062 0.17578,0.09375 0.34375,0.24609 0.5,0.45312 v -0.51562 h 1.0781 v 3.0625 c 0,0.55078 -0.17188,0.96875 -0.51562,1.25 -0.34375,0.28906 -0.84375,0.4375 -1.5,0.4375 C 1.69534,1.34374 1.49222,1.328115 1.2969,1.296865 1.09768,1.265615 0.89846,1.210928 0.70315,1.140615 v -0.84375 c 0.1875,0.11328 0.36719,0.19531 0.54688,0.25 0.1875,0.050781 0.36719,0.078125 0.54688,0.078125 0.36328,0 0.62891,-0.078125 0.79688,-0.23438 0.16406,-0.15625 0.25,-0.39844 0.25,-0.73438 z m -0.71875,-2.1094 c -0.23047,0 -0.40625,0.085938 -0.53125,0.25 -0.125,0.15625 -0.1875,0.39062 -0.1875,0.70312 0,0.3125 0.054688,0.54688 0.17188,0.70312 0.125,0.15625 0.30469,0.23438 0.54688,0.23438 0.21875,0 0.39062,-0.078125 0.51562,-0.23438 0.13281,-0.16406 0.20312,-0.39844 0.20312,-0.70312 0,-0.3125 -0.070312,-0.54688 -0.20312,-0.70312 -0.125,-0.16406 -0.29688,-0.25 -0.51562,-0.25 z"
         id="path44" />
    </symbol>
    <symbol
       id="e"
       overflow="visible">
      <path
         d="M 3.9375,-2.0781 V 0 H 2.8437 v -1.5781 c 0,-0.30078 -0.00781,-0.50391 -0.015625,-0.60938 -0.011719,-0.11328 -0.03125,-0.19531 -0.0625,-0.25 -0.042969,-0.070312 -0.10156,-0.125 -0.17188,-0.15625 -0.074219,-0.039062 -0.15625,-0.0625 -0.25,-0.0625 -0.23047,0 -0.41406,0.089844 -0.54688,0.26562 -0.125,0.16797 -0.1875,0.40625 -0.1875,0.71875 V 4e-5 h -1.0938 v -3.4062 h 1.0938 v 0.5 c 0.16406,-0.19531 0.33594,-0.34375 0.51562,-0.4375 0.1875,-0.09375 0.39062,-0.14062 0.60938,-0.14062 0.39453,0 0.69141,0.12109 0.89062,0.35938 0.20703,0.24219 0.3125,0.58984 0.3125,1.0469 z"
         id="path47" />
    </symbol>
    <symbol
       id="s"
       overflow="visible">
      <path
         d="m 2.7656,-4.7188 v 0.70312 H 2.15622 c -0.15625,0 -0.26562,0.03125 -0.32812,0.09375 -0.054687,0.054687 -0.078125,0.14844 -0.078125,0.28125 v 0.23438 h 0.92188 v 0.78125 h -0.92188 v 2.625 h -1.0938 v -2.625 H 0.124925 V -3.4063 h 0.53125 v -0.23438 c 0,-0.36328 0.10156,-0.63281 0.3125,-0.8125 0.20703,-0.17578 0.52344,-0.26562 0.95312,-0.26562 z"
         id="path50" />
    </symbol>
    <symbol
       id="d"
       overflow="visible">
      <path
         d="m 2.1406,-2.7031 c -0.24219,0 -0.42188,0.089844 -0.54688,0.26562 -0.125,0.16797 -0.1875,0.41406 -0.1875,0.73438 0,0.33594 0.0625,0.58984 0.1875,0.76562 0.125,0.16797 0.30469,0.25 0.54688,0.25 0.23828,0 0.42188,-0.082031 0.54688,-0.25 0.125,-0.17578 0.1875,-0.42969 0.1875,-0.76562 0,-0.32031 -0.0625,-0.56641 -0.1875,-0.73438 C 2.56248,-2.61326 2.37889,-2.7031 2.1406,-2.7031 Z m 0,-0.78125 c 0.58203,0 1.0352,0.16406 1.3594,0.48438 0.33203,0.3125 0.5,0.74609 0.5,1.2969 0,0.5625 -0.16797,1.0078 -0.5,1.3281 -0.32422,0.3125 -0.77734,0.46875 -1.3594,0.46875 -0.58594,0 -1.043,-0.15625 -1.375,-0.46875 -0.33594,-0.32031 -0.5,-0.76562 -0.5,-1.3281 0,-0.55078 0.16406,-0.98438 0.5,-1.2969 0.33203,-0.32031 0.78906,-0.48438 1.375,-0.48438 z"
         id="path53" />
    </symbol>
    <symbol
       id="r"
       overflow="visible">
      <path
         d="m 3.6719,-2.8438 c 0.13281,-0.20703 0.29688,-0.36328 0.48438,-0.46875 0.19531,-0.11328 0.40625,-0.17188 0.625,-0.17188 0.39453,0 0.69141,0.12109 0.89062,0.35938 0.20703,0.24219 0.3125,0.58984 0.3125,1.0469 V -5e-5 H 4.8906 v -1.7656 -0.078125 c 0.00781,-0.03125 0.015625,-0.078125 0.015625,-0.14062 0,-0.23828 -0.039062,-0.41016 -0.10938,-0.51562 -0.074219,-0.10156 -0.1875,-0.15625 -0.34375,-0.15625 -0.21094,0 -0.37109,0.085938 -0.48438,0.25 -0.10547,0.16797 -0.16406,0.41406 -0.17188,0.73438 v 1.6719 h -1.0938 v -1.7656 c 0,-0.38281 -0.03125,-0.62891 -0.09375,-0.73438 -0.0625,-0.10156 -0.17969,-0.15625 -0.34375,-0.15625 -0.21094,0 -0.37109,0.085938 -0.48438,0.25 -0.11719,0.16797 -0.17188,0.41406 -0.17188,0.73438 v 1.6719 h -1.0938 v -3.4062 h 1.0938 v 0.5 c 0.13281,-0.1875 0.28516,-0.32812 0.45312,-0.42188 0.17578,-0.10156 0.36719,-0.15625 0.57812,-0.15625 0.23828,0 0.44531,0.058594 0.625,0.17188 0.17578,0.11719 0.3125,0.27344 0.40625,0.46875 z"
         id="path56" />
    </symbol>
    <symbol
       id="q"
       overflow="visible">
      <path
         d="M 3.9375,-2.0781 V 0 H 2.8437 v -1.5781 c 0,-0.30078 -0.00781,-0.50391 -0.015625,-0.60938 -0.011719,-0.11328 -0.03125,-0.19531 -0.0625,-0.25 -0.042969,-0.070312 -0.10156,-0.125 -0.17188,-0.15625 -0.074219,-0.039062 -0.15625,-0.0625 -0.25,-0.0625 -0.23047,0 -0.41406,0.089844 -0.54688,0.26562 -0.125,0.16797 -0.1875,0.40625 -0.1875,0.71875 V 4e-5 h -1.0938 v -4.7188 h 1.0938 v 1.8125 c 0.16406,-0.19531 0.33594,-0.34375 0.51562,-0.4375 0.1875,-0.09375 0.39062,-0.14062 0.60938,-0.14062 0.39453,0 0.69141,0.12109 0.89062,0.35938 0.20703,0.24219 0.3125,0.58984 0.3125,1.0469 z"
         id="path59" />
    </symbol>
    <symbol
       id="p"
       overflow="visible">
      <path
         d="m 0.57812,-4.5312 h 1.2969 l 1.6562,3.1094 v -3.1094 h 1.1094 V 0 H 3.32812 L 1.67192,-3.1094 V 0 h -1.0938 z"
         id="path62" />
    </symbol>
    <symbol
       id="o"
       overflow="visible">
      <path
         d="m 0.48438,-1.3281 v -2.0781 h 1.0938 v 0.34375 0.70312 0.54688 c 0,0.27344 0.00391,0.46875 0.015625,0.59375 0.00781,0.125 0.035156,0.21484 0.078125,0.26562 0.039063,0.074219 0.097656,0.13281 0.17188,0.17188 0.070312,0.03125 0.15625,0.046875 0.25,0.046875 0.21875,0 0.39062,-0.082031 0.51562,-0.25 0.13281,-0.17578 0.20312,-0.42188 0.20312,-0.73438 v -1.6875 h 1.0938 V -5e-6 h -1.0938 v -0.48438 c -0.15625,0.19922 -0.32812,0.34375 -0.51562,0.4375 -0.1875,0.09375 -0.39062,0.14062 -0.60938,0.14062 -0.38672,0 -0.68359,-0.11719 -0.89062,-0.35938 -0.21094,-0.25 -0.3125,-0.60156 -0.3125,-1.0625 z"
         id="path65" />
    </symbol>
    <symbol
       id="n"
       overflow="visible">
      <path
         d="m 0.57812,-4.5312 h 1.9375 c 0.57031,0 1.0078,0.13281 1.3125,0.39062 0.3125,0.25 0.46875,0.60938 0.46875,1.0781 0,0.48047 -0.15625,0.85156 -0.46875,1.1094 -0.30469,0.25 -0.74219,0.375 -1.3125,0.375 H 1.73437 V 2e-5 h -1.1562 z m 1.1562,0.84375 v 1.2656 h 0.65625 c 0.22656,0 0.39844,-0.050781 0.51562,-0.15625 0.125,-0.11328 0.1875,-0.27344 0.1875,-0.48438 0,-0.19531 -0.0625,-0.34766 -0.1875,-0.45312 C 2.789,-3.62888 2.61713,-3.68748 2.39057,-3.68748 Z"
         id="path68" />
    </symbol>
    <symbol
       id="m"
       overflow="visible">
      <path
         d="m 0.51562,-3.4062 h 1.0938 v 3.3438 c 0,0.45703 -0.10938,0.80469 -0.32812,1.0469 C 1.06255,1.22278 0.74224,1.34388 0.32818,1.34388 H -0.20307 V 0.62513 h 0.1875 c 0.20703,0 0.34766,-0.046875 0.42188,-0.14062 0.070312,-0.09375 0.10938,-0.27734 0.10938,-0.54688 z m 0,-1.3125 h 1.0938 v 0.875 h -1.0938 z"
         id="path71" />
    </symbol>
    <symbol
       id="l"
       overflow="visible">
      <path
         d="m 3.2656,-3.2969 v 0.89062 C 3.11716,-2.50784 2.97263,-2.58206 2.8281,-2.62503 2.67966,-2.675811 2.52341,-2.703155 2.35935,-2.703155 c -0.30469,0 -0.53906,0.089844 -0.70312,0.26562 -0.16797,0.17969 -0.25,0.42188 -0.25,0.73438 0,0.32422 0.082031,0.57422 0.25,0.75 0.16406,0.17969 0.39844,0.26562 0.70312,0.26562 0.17578,0 0.33594,-0.023438 0.48438,-0.078125 0.15625,-0.050781 0.29688,-0.125 0.42188,-0.21875 v 0.89062 C 3.09764,-0.03129 2.92577,0.01559 2.74999,0.04683 2.5703,0.07808 2.39452,0.093705 2.21874,0.093705 c -0.60547,0 -1.0859,-0.15625 -1.4375,-0.46875 -0.34375,-0.32031 -0.51562,-0.76562 -0.51562,-1.3281 0,-0.55078 0.17188,-0.98438 0.51562,-1.2969 0.35156,-0.32031 0.83203,-0.48438 1.4375,-0.48438 0.1875,0 0.36328,0.015625 0.53125,0.046875 0.17578,0.03125 0.34766,0.078125 0.51562,0.14062 z"
         id="path74" />
    </symbol>
  </defs>
  <g
     id="g171"
     transform="translate(-298.25024,-238.03529)">
    <path
       d="m 391.71601,321.96758 h -83.41554 c -5.53154,0 -10.05023,-4.49583 -10.05023,-10.05023 V 259.8779 c 0,-5.53153 4.51945,-10.05022 10.05023,-10.05022 h 21.01891 l 2.02434,-5.17841 c 0.89471,-2.30655 2.58893,-6.61398 6.94345,-6.61398 h 23.44366 c 4.35452,0 6.04863,4.30725 6.94345,6.61398 l 2.02434,5.17841 h 21.01891 c 5.53154,0 10.05023,4.51945 10.05023,10.05022 v 52.04133 c -0.0236,5.53077 -4.51869,10.04948 -10.05023,10.04948 z m -83.41554,-69.88084 c -4.28359,0 -7.79078,3.48354 -7.79078,7.79079 v 52.06402 c 0,4.28359 3.48353,7.79078 7.79078,7.79078 h 83.39286 c 4.28359,0 7.79078,-3.48353 7.79078,-7.79078 v -52.06402 c 0,-4.2836 -3.48355,-7.79079 -7.79078,-7.79079 h -21.77168 c -0.47064,0 -0.89473,-0.28224 -1.05948,-0.72996 l -2.30655,-5.90754 c -1.24713,-3.20135 -2.49491,-5.17841 -4.84892,-5.17841 h -23.44366 c -2.35382,0 -3.60101,1.97706 -4.84894,5.17841 l -2.30653,5.90754 c -0.1648,0.42335 -0.58811,0.72996 -1.05948,0.72996 z"
       id="path79"
       style="stroke-width:2.5;fill:#343c5e;fill-opacity:1;stroke:#343c5e;stroke-opacity:1;stroke-miterlimit:4;stroke-dasharray:none" />
    <path
       d="M 358.97434,252.08674 H 341.0624 c -0.3768,0 -0.72997,-0.1884 -0.94127,-0.49427 -0.21205,-0.30588 -0.2586,-0.68268 -0.11738,-1.03584 0.0708,-0.21204 0.21203,-1.10601 0.30587,-1.76504 0.42335,-2.73077 0.54155,-3.24788 1.05948,-3.62464 0.1884,-0.14118 0.40044,-0.21204 0.61173,-0.21204 h 0.0709 15.93487 0.0709 c 0.23569,0 0.44698,0.0938 0.61175,0.21204 0.51791,0.3768 0.63539,0.89471 1.05948,3.62464 0.0938,0.65904 0.23567,1.53009 0.30587,1.76504 0.14118,0.35316 0.0938,0.72996 -0.11738,1.03584 -0.21352,0.30587 -0.56595,0.49427 -0.94275,0.49427 z m 1.03582,-1.55373 m -20.00701,0 m 2.42474,-0.70632 h 15.18136 c -0.0236,-0.21205 -0.0708,-0.42335 -0.11739,-0.68267 -0.0938,-0.5652 -0.21203,-1.36536 -0.32951,-1.92978 h -14.33383 c -0.11738,0.5652 -0.23569,1.36535 -0.32951,1.92978 -7.4e-4,0.23569 -0.0472,0.47136 -0.0709,0.68267 z"
       id="path81"
       style="stroke-width:2.5;fill:#343c5e;fill-opacity:1;stroke:#343c5e;stroke-opacity:1;stroke-miterlimit:4;stroke-dasharray:none" />
    <path
       d="m 323.12699,252.08674 h -10.42698 c -0.63538,0 -1.12966,-0.49427 -1.12966,-1.12966 v -2.77807 c 0,-2.16543 1.76503,-3.90683 3.90683,-3.90683 h 4.87258 c 2.16543,0 3.90683,1.76503 3.90683,3.90683 v 2.77731 c 7.4e-4,0.63613 -0.51718,1.13041 -1.12967,1.13041 z m -9.2965,-2.26001 h 8.16698 v -1.64756 c 0,-0.91762 -0.72996,-1.64757 -1.64757,-1.64757 h -4.87182 c -0.91761,0 -1.64756,0.75286 -1.64756,1.64757 z"
       id="path83"
       style="stroke-width:2.5;fill:#343c5e;fill-opacity:1;stroke:#343c5e;stroke-opacity:1;stroke-miterlimit:4;stroke-dasharray:none" />
    <path
       d="m 350.00729,313.49607 c -15.205,0 -27.58578,-12.38039 -27.58578,-27.58578 0,-15.20575 12.38041,-27.61036 27.58578,-27.61036 15.20538,0 27.5858,12.38041 27.5858,27.58578 0,15.22863 -12.38042,27.61036 -27.5858,27.61036 z m 0,-52.93595 c -13.9578,0 -25.32557,11.36815 -25.32557,25.32559 0,13.95743 11.36814,25.32559 25.32557,25.32559 13.95745,0 25.32559,-11.36816 25.32559,-25.32559 0,-13.95707 -11.36814,-25.32559 -25.32559,-25.32559 z"
       id="path85"
       style="stroke-width:2.5;fill:#343c5e;fill-opacity:1;stroke:#343c5e;stroke-opacity:1;stroke-miterlimit:4;stroke-dasharray:none" />
    <path
       d="m 350.00729,304.85625 c -10.45062,0 -18.97054,-8.49721 -18.97054,-18.97054 0,-10.45064 8.49722,-18.97054 18.97054,-18.97054 10.47429,0 18.94786,8.4972 18.94786,18.97054 0,10.47333 -8.49722,18.97054 -18.94786,18.97054 z m 0,-35.66008 c -9.20269,0 -16.68765,7.48495 -16.68765,16.68765 0,9.20269 7.48496,16.71128 16.68765,16.71128 9.2027,0 16.7113,-7.48494 16.7113,-16.71128 0,-9.22634 -7.5086,-16.68765 -16.7113,-16.68765 z"
       id="path87"
       style="stroke-width:2.5;fill:#343c5e;fill-opacity:1;stroke:#343c5e;stroke-opacity:1;stroke-miterlimit:4;stroke-dasharray:none" />
    <path
       d="m 400.61118,287.03945 h -24.14915 c -0.61175,0 -1.12966,-0.49428 -1.12966,-1.12967 0,-0.63538 0.49428,-1.12966 1.12966,-1.12966 h 24.14915 c 0.61175,0 1.12967,0.49428 1.12967,1.12966 0,0.63539 -0.49428,1.12967 -1.12967,1.12967 z m -77.06052,0 h -24.14913 c -0.6354,0 -1.12966,-0.49428 -1.12966,-1.12967 0,-0.63538 0.51791,-1.12966 1.12966,-1.12966 h 24.14913 c 0.61175,0 1.12966,0.49428 1.12966,1.12966 0,0.63539 -0.51791,1.12967 -1.12966,1.12967 z"
       id="path89"
       style="stroke-width:2.5;fill:#343c5e;fill-opacity:1;stroke:#343c5e;stroke-opacity:1;stroke-miterlimit:4;stroke-dasharray:none" />
    <path
       d="m 384.93731,268.89165 c -3.38973,0 -6.14321,-2.75365 -6.14321,-6.1432 0,-3.38954 2.75367,-6.1432 6.14321,-6.1432 3.38955,0 6.14321,2.75366 6.14321,6.1432 0,3.38955 -2.75424,6.1432 -6.14321,6.1432 z m 0,-10.02658 c -2.1418,0 -3.88395,1.74138 -3.88395,3.88394 0,2.1418 1.74139,3.88395 3.88395,3.88395 2.1418,0 3.88395,-1.74139 3.88395,-3.88395 -7.4e-4,-2.14256 -1.74214,-3.88394 -3.88395,-3.88394 z"
       id="path91"
       style="stroke-width:2.5;fill:#343c5e;fill-opacity:1;stroke:#343c5e;stroke-opacity:1;stroke-miterlimit:4;stroke-dasharray:none" />
    <path
       d="m 320.09133,261.71387 h -10.02734 c -0.63539,0 -1.12966,-0.49427 -1.12966,-1.12968 0,-0.63538 0.51791,-1.12966 1.12966,-1.12966 h 10.05023 c 0.61176,0 1.12967,0.49428 1.12967,1.12966 7.4e-4,0.63467 -0.51719,1.12968 -1.15258,1.12968 z"
       id="path93"
       style="stroke-width:2.5;fill:#343c5e;fill-opacity:1;stroke:#343c5e;stroke-opacity:1;stroke-miterlimit:4;stroke-dasharray:none" />
  </g>
</svg>
