<?xml version="1.0" encoding="UTF-8" standalone="no"?>
<svg
   version="1.1"
   x="0px"
   y="0px"
   viewBox="0 0 70 70"
   enable-background="new 0 0 100 100"
   xml:space="preserve"
   id="svg8"
   sodipodi:docname="close-white.svg"
   width="70"
   height="70"
   inkscape:version="1.1.1 (1:1.1+202109281949+c3084ef5ed)"
   xmlns:inkscape="http://www.inkscape.org/namespaces/inkscape"
   xmlns:sodipodi="http://sodipodi.sourceforge.net/DTD/sodipodi-0.dtd"
   xmlns="http://www.w3.org/2000/svg"
   xmlns:svg="http://www.w3.org/2000/svg"><defs
     id="defs12" /><sodipodi:namedview
     id="namedview10"
     pagecolor="#ffffff"
     bordercolor="#666666"
     borderopacity="1.0"
     inkscape:pageshadow="2"
     inkscape:pageopacity="0.0"
     inkscape:pagecheckerboard="0"
     showgrid="false"
     fit-margin-top="0"
     fit-margin-left="0"
     fit-margin-right="0"
     fit-margin-bottom="0"
     inkscape:zoom="3.348"
     inkscape:cx="31.810036"
     inkscape:cy="35.543608"
     inkscape:window-width="1920"
     inkscape:window-height="1009"
     inkscape:window-x="0"
     inkscape:window-y="34"
     inkscape:window-maximized="1"
     inkscape:current-layer="svg8" /><path
     fill-rule="evenodd"
     clip-rule="evenodd"
     d="m 1.5,68.5 c 1,1 2,1.5 3.5,1.5 1.5,0 2.5,-0.5 3.5,-1.5 L 35,42 61.5,68.5 c 1,1 2.5,1.5 3.5,1.5 1,0 2.5,-0.5 3.5,-1.5 2,-2 2,-5 0,-7 L 42,35 68.5,8.5 c 2,-2 2,-5 0,-7 -2,-2 -5,-2 -7,0 L 35,28 8.5,1.5 c -2,-2 -5,-2 -7,0 -2,2 -2,5 0,7 L 28,35 1.5,61.5 c -2,2 -2,5 0,7 z"
     id="path2"
     style="fill:#ffffff" /></svg>
