<?xml version="1.0" encoding="UTF-8" standalone="no"?>
<svg
   width="61.943378pt"
   height="96.369453pt"
   version="1.1"
   viewBox="0 0 61.943378 96.369452"
   id="svg4"
   sodipodi:docname="female.svg"
   inkscape:version="1.1.1 (1:1.1+202109281949+c3084ef5ed)"
   xmlns:inkscape="http://www.inkscape.org/namespaces/inkscape"
   xmlns:sodipodi="http://sodipodi.sourceforge.net/DTD/sodipodi-0.dtd"
   xmlns="http://www.w3.org/2000/svg"
   xmlns:svg="http://www.w3.org/2000/svg">
  <defs
     id="defs8" />
  <sodipodi:namedview
     id="namedview6"
     pagecolor="#ffffff"
     bordercolor="#666666"
     borderopacity="1.0"
     inkscape:pageshadow="2"
     inkscape:pageopacity="0.0"
     inkscape:pagecheckerboard="0"
     inkscape:document-units="pt"
     showgrid="false"
     fit-margin-top="0"
     fit-margin-left="0"
     fit-margin-right="0"
     fit-margin-bottom="0"
     inkscape:zoom="3.5871429"
     inkscape:cx="22.441258"
     inkscape:cy="91.995221"
     inkscape:window-width="1920"
     inkscape:window-height="1009"
     inkscape:window-x="0"
     inkscape:window-y="34"
     inkscape:window-maximized="1"
     inkscape:current-layer="svg4" />
  <path
     d="M 61.943376,30.985349 C 61.947276,22.969027 58.843112,15.26399 53.283447,9.4903803 47.723777,3.7155863 40.14145,0.32193433 32.130632,0.02165833 24.120607,-0.27790967 16.305453,2.5396603 10.328899,7.8820383 4.3527453,13.224422 0.68124034,20.675985 0.08580634,28.669099 c -0.596064,7.993905 1.93031996,15.907377 7.04922996,22.07703 5.1180087,6.168869 12.4283867,10.1141 20.3937727,11.004299 v 13.971631 h -6.88248 c -1.229784,0 -2.365801,0.65598 -2.98031,1.72062 -0.614509,1.06464 -0.614509,2.37662 0,3.44124 0.614509,1.06462 1.750571,1.72062 2.98031,1.72062 h 6.88248 v 10.32372 c 0,1.22978 0.65598,2.3658 1.720623,2.98031 1.064642,0.61451 2.376616,0.61451 3.441239,0 1.064624,-0.61451 1.720624,-1.75057 1.720624,-2.98031 v -10.32372 h 6.882479 c 1.229777,0 2.365801,-0.65598 2.98031,-1.72062 0.614509,-1.06464 0.614509,-2.37662 0,-3.44124 -0.614509,-1.06462 -1.750571,-1.72062 -2.98031,-1.72062 H 34.411295 V 61.750428 c 7.568363,-0.84572 14.559982,-4.451393 19.63807,-10.126293 5.078881,-5.6749 7.887914,-13.022243 7.891848,-20.637608 z m -55.0598427,0 c 0,-6.388518 2.537863,-12.515889 7.0553257,-17.033352 4.517464,-4.5174637 10.644841,-7.0553327 17.033352,-7.0553327 6.388518,0 12.515895,2.537869 17.033359,7.0553327 4.517463,4.517463 7.055326,10.644834 7.055326,17.033352 0,6.388517 -2.537863,12.515888 -7.055326,17.033352 -4.517464,4.517463 -10.644841,7.055326 -17.033359,7.055326 -6.388511,0 -12.515888,-2.537863 -17.033352,-7.055326 C 9.4213963,43.501237 6.8835333,37.373866 6.8835333,30.985349 Z"
     id="path2"
     style="stroke-width:0.196642" />
</svg>
