<?xml version="1.0" encoding="UTF-8" standalone="no"?>
<svg
   width="211.39148pt"
   height="229.50812pt"
   version="1.1"
   viewBox="0 0 211.39148 229.50811"
   id="svg4"
   sodipodi:docname="male.svg"
   inkscape:version="1.1.1 (1:1.1+202109281949+c3084ef5ed)"
   xmlns:inkscape="http://www.inkscape.org/namespaces/inkscape"
   xmlns:sodipodi="http://sodipodi.sourceforge.net/DTD/sodipodi-0.dtd"
   xmlns="http://www.w3.org/2000/svg"
   xmlns:svg="http://www.w3.org/2000/svg">
  <defs
     id="defs8" />
  <sodipodi:namedview
     id="namedview6"
     pagecolor="#ffffff"
     bordercolor="#666666"
     borderopacity="1.0"
     inkscape:pageshadow="2"
     inkscape:pageopacity="0.0"
     inkscape:pagecheckerboard="0"
     inkscape:document-units="pt"
     showgrid="false"
     fit-margin-top="0"
     fit-margin-left="0"
     fit-margin-right="0"
     fit-margin-bottom="0"
     inkscape:zoom="0.63412326"
     inkscape:cx="-182.14124"
     inkscape:cy="192.39162"
     inkscape:window-width="1920"
     inkscape:window-height="1009"
     inkscape:window-x="0"
     inkscape:window-y="34"
     inkscape:window-maximized="1"
     inkscape:current-layer="svg4" />
  <path
     d="m 204.0066,0.00337 h -73.86034 c -2.63952,0 -5.0778,1.40795 -6.39673,3.69302 -1.31894,2.28507 -1.31894,5.10101 0,7.38604 1.31893,2.28502 3.75729,3.69301 6.39673,3.69301 h 55.54297 l -62.18699,64.262334 6.88734,4.849205 C 114.37751,70.369689 97.027524,65.85309 76.112384,67.17667 55.198934,68.50219 35.606104,77.85518 21.426184,93.28313 7.2475341,108.7115 -0.42381589,129.0231 0.01808411,149.97411 c 0.44185,20.95143 8.96030999,40.92158 23.77880989,55.73712 14.81638,14.81807 34.78695,23.33691 55.73712,23.77881 20.949746,0.44185 41.261336,-7.22945 56.690976,-21.4081 15.42837,-14.18034 26.69688,-33.13035 28.02214,-54.04338 2.52064,-26.22071 -15.01074,-50.63453 -28.52845,-66.64829 0.8128,0 60.90073,-62.72092 60.90073,-62.72092 v 56.57702 c 0,2.63952 1.40794,5.0778 3.69301,6.39673 2.28507,1.31893 5.10101,1.31893 7.38604,0 2.28503,-1.31893 3.69302,-3.7573 3.69302,-6.39673 V 7.38603 c 0,-1.95861 -0.7782,-3.83812 -2.16306,-5.22298 C 207.84356,0.77819 205.96405,0 204.00544,0 Z m -56.24347,148.21708 c 0,17.63068 -7.00365,34.53794 -19.46917,47.00472 -12.4672,12.46552 -29.374456,19.46917 -47.004716,19.46917 -17.63025,0 -34.53794,-7.00365 -47.00472,-19.46917 -12.46551,-12.4672 -19.46916,-29.37446 -19.46916,-47.00472 0,-17.63025 7.00365,-34.53794 19.46916,-47.00472 12.46721,-12.46551 29.37447,-19.46916 47.00472,-19.46916 17.63026,0 34.537936,7.00365 47.004716,19.46916 12.46552,12.46721 19.46917,29.37447 19.46917,47.00472 z"
     id="path2"
     style="stroke-width:0.422059"
     sodipodi:nodetypes="csssscccccccsccccssssssccscscscscs" />
</svg>
