<?xml version="1.0" encoding="UTF-8" standalone="no"?>
<svg
   xml:space="preserve"
   version="1.1"
   style="image-rendering:optimizeQuality;shape-rendering:geometricPrecision;text-rendering:geometricPrecision"
   viewBox="0 0 316 345.75"
   x="0px"
   y="0px"
   fill-rule="evenodd"
   clip-rule="evenodd"
   id="svg16"
   sodipodi:docname="order.svg"
   width="316"
   height="345.75"
   inkscape:version="1.1.1 (1:1.1+202109281949+c3084ef5ed)"
   xmlns:inkscape="http://www.inkscape.org/namespaces/inkscape"
   xmlns:sodipodi="http://sodipodi.sourceforge.net/DTD/sodipodi-0.dtd"
   xmlns="http://www.w3.org/2000/svg"
   xmlns:svg="http://www.w3.org/2000/svg"><sodipodi:namedview
     id="namedview18"
     pagecolor="#ffffff"
     bordercolor="#666666"
     borderopacity="1.0"
     inkscape:pageshadow="2"
     inkscape:pageopacity="0.0"
     inkscape:pagecheckerboard="0"
     showgrid="false"
     fit-margin-top="0"
     fit-margin-left="0"
     fit-margin-right="0"
     fit-margin-bottom="0"
     inkscape:zoom="1.9352601"
     inkscape:cx="89.652031"
     inkscape:cy="216.50836"
     inkscape:window-width="1920"
     inkscape:window-height="1009"
     inkscape:window-x="0"
     inkscape:window-y="34"
     inkscape:window-maximized="1"
     inkscape:current-layer="svg16" /><defs
     id="defs4"><style
       type="text/css"
       id="style2">
   
    .fil0 {fill:black;fill-rule:nonzero}
   
  </style></defs><g
     id="g10"
     transform="translate(0,-0.25)"
     style="fill:#ffffff"><path
       class="fil0"
       d="m 212,10 c 0,-13 20,-13 20,0 v 20 h 38 c 25,0 46,21 46,47 v 222 c 0,26 -21,47 -46,47 H 47 C 21,346 0,325 0,299 V 77 C 0,51 21,30 47,30 H 85 V 10 c 0,-13 20,-13 20,0 v 20 h 107 z m 20,40 v 20 c 0,13 -20,13 -20,0 V 50 H 105 v 20 c 0,13 -20,13 -20,0 V 50 H 47 C 32,50 20,62 20,77 v 37 H 296 V 77 C 296,62 284,50 270,50 Z M 20,134 v 165 c 0,15 12,27 27,27 h 223 c 14,0 26,-12 26,-27 V 134 Z"
       id="path6"
       style="fill:#ffffff" /><path
       class="fil0"
       d="m 96,215 c -9,-10 5,-24 14,-14 l 36,35 60,-60 c 9,-10 23,5 14,14 l -67,67 c -4,4 -10,4 -14,0 z"
       id="path8"
       style="fill:#ffffff" /></g></svg>
