<?xml version="1.0" encoding="UTF-8" standalone="no"?>
<svg
   id="Layer_1"
   data-name="Layer 1"
   viewBox="0 0 50.277114 31.902799"
   version="1.1"
   sodipodi:docname="tripadvisor.svg"
   width="50.277115"
   height="31.902802"
   inkscape:version="1.1.1 (1:1.1+202109281949+c3084ef5ed)"
   xmlns:inkscape="http://www.inkscape.org/namespaces/inkscape"
   xmlns:sodipodi="http://sodipodi.sourceforge.net/DTD/sodipodi-0.dtd"
   xmlns="http://www.w3.org/2000/svg"
   xmlns:svg="http://www.w3.org/2000/svg"
   xmlns:rdf="http://www.w3.org/1999/02/22-rdf-syntax-ns#"
   xmlns:cc="http://creativecommons.org/ns#"
   xmlns:dc="http://purl.org/dc/elements/1.1/">
  <defs
     id="defs9" />
  <sodipodi:namedview
     id="namedview7"
     pagecolor="#ffffff"
     bordercolor="#666666"
     borderopacity="1.0"
     inkscape:pageshadow="2"
     inkscape:pageopacity="0.0"
     inkscape:pagecheckerboard="0"
     showgrid="false"
     fit-margin-top="0"
     fit-margin-left="0"
     fit-margin-right="0"
     fit-margin-bottom="0"
     inkscape:zoom="1.5515712"
     inkscape:cx="-58.327971"
     inkscape:cy="97.320703"
     inkscape:window-width="1920"
     inkscape:window-height="1009"
     inkscape:window-x="0"
     inkscape:window-y="34"
     inkscape:window-maximized="1"
     inkscape:current-layer="Layer_1" />
  <title
     id="title2">Ollie_Logo_RGB</title>
  <path
     d="m 17.02735,18.46841 a 4.4580692,4.4051197 0 1 1 -4.458069,-4.405121 4.4580692,4.4051197 0 0 1 4.458069,4.405121 z m 20.669342,-4.405121 a 4.4580692,4.4051197 0 1 0 4.458072,4.405121 4.4580692,4.4051197 0 0 0 -4.455594,-4.403897 z m 12.569275,4.405121 c 0,6.855467 -5.629553,12.413258 -12.569275,12.413258 A 12.514172,12.365538 0 0 1 29.161346,27.57783 l -4.022788,4.324972 -4.024647,-4.329867 a 12.51479,12.36615 0 0 1 -8.537821,3.308733 c -6.9347734,0 -12.56246823,-5.557791 -12.56246823,-12.413258 A 12.529032,12.380222 0 0 1 4.1113319,9.2941355 L 0,4.8743325 h 9.1340894 a 28.467249,28.129137 0 0 1 32.0324656,0 h 9.110561 l -4.110707,4.419803 a 12.529032,12.380222 0 0 1 4.100183,9.1742745 z m -29.191681,0 a 8.5019096,8.4009301 0 1 0 -8.501293,8.400929 8.50129,8.4003185 0 0 0 8.501911,-8.400929 z M 34.572329,5.9260535 a 24.533622,24.242231 0 0 0 -18.870638,0 c 5.367641,2.030027 9.436867,6.7716495 9.436867,12.3000745 0,-5.527814 4.068608,-10.2700475 9.434389,-12.2994625 z M 46.20046,18.46841 a 8.5019096,8.4009301 0 1 0 -8.50129,8.400929 8.5019096,8.4009301 0 0 0 8.501908,-8.400929 z"
     id="path4"
     style="fill:#ffffff;stroke-width:0.0615487" />
  <metadata
     id="metadata826">
    <rdf:RDF>
      <cc:Work
         rdf:about="">
        <dc:title>Ollie_Logo_RGB</dc:title>
      </cc:Work>
    </rdf:RDF>
  </metadata>
</svg>
