<?xml version="1.0" encoding="UTF-8" standalone="no"?>
<svg
   width="159.82381pt"
   height="159.82381pt"
   version="1.1"
   viewBox="0 0 159.82381 159.82381"
   id="svg121"
   sodipodi:docname="height.svg"
   inkscape:version="1.1.1 (1:1.1+202109281949+c3084ef5ed)"
   xmlns:inkscape="http://www.inkscape.org/namespaces/inkscape"
   xmlns:sodipodi="http://sodipodi.sourceforge.net/DTD/sodipodi-0.dtd"
   xmlns="http://www.w3.org/2000/svg"
   xmlns:svg="http://www.w3.org/2000/svg">
  <sodipodi:namedview
     id="namedview123"
     pagecolor="#ffffff"
     bordercolor="#666666"
     borderopacity="1.0"
     inkscape:pageshadow="2"
     inkscape:pageopacity="0.0"
     inkscape:pagecheckerboard="0"
     inkscape:document-units="pt"
     showgrid="false"
     fit-margin-top="0"
     fit-margin-left="0"
     fit-margin-right="0"
     fit-margin-bottom="0"
     inkscape:zoom="0.44839286"
     inkscape:cx="183.99044"
     inkscape:cy="196.25647"
     inkscape:window-width="1920"
     inkscape:window-height="1009"
     inkscape:window-x="0"
     inkscape:window-y="34"
     inkscape:window-maximized="1"
     inkscape:current-layer="g119" />
  <defs
     id="defs59">
    <symbol
       id="s"
       overflow="visible">
      <path
         d="m 28.422,-1.7031 c -1.4688,0.76172 -3,1.3359 -4.5938,1.7188 -1.5859,0.38281 -3.2344,0.57812 -4.9531,0.57812 -5.1562,0 -9.2422,-1.4375 -12.25,-4.3125 -3.0117,-2.875 -4.5156,-6.7812 -4.5156,-11.719 0,-4.9378 1.5039,-8.8438 4.5156,-11.719 3.0078,-2.8828 7.0938,-4.3281 12.25,-4.3281 1.7188,0 3.3672,0.19531 4.9531,0.57812 1.5938,0.38672 3.125,0.96094 4.5938,1.7188 v 6.4062 c -1.4805,-1.0078 -2.9375,-1.75 -4.375,-2.2188 -1.4375,-0.4688 -2.9492,-0.70312 -4.5312,-0.70312 -2.8438,0 -5.0859,0.91406 -6.7188,2.7344 -1.625,1.8242 -2.4375,4.3359 -2.4375,7.5312 0,3.1992 0.8125,5.7109 2.4375,7.5312 1.6328,1.8242 3.875,2.7344 6.7188,2.7344 1.582,0 3.0938,-0.23438 4.5312,-0.70312 1.4375,-0.47656 2.8945,-1.2188 4.375,-2.2188 z"
         id="path2" />
    </symbol>
    <symbol
       id="c"
       overflow="visible">
      <path
         d="m 20.797,-16.875 c -0.64844,-0.3125 -1.293,-0.53516 -1.9375,-0.67188 -0.64844,-0.14453 -1.293,-0.21875 -1.9375,-0.21875 -1.9062,0 -3.375,0.60938 -4.4062,1.8281 -1.0234,1.2188 -1.5312,2.9688 -1.5312,5.25 V 4.7e-4 H 3.5627 v -23.203 h 7.4219 v 3.8125 c 0.94531,-1.5195 2.0352,-2.6289 3.2656,-3.3281 1.2383,-0.69531 2.7227,-1.0469 4.4531,-1.0469 0.25,0 0.51953,0.01172 0.8125,0.03125 0.28906,0.02344 0.71094,0.07031 1.2656,0.14062 z"
         id="path5" />
    </symbol>
    <symbol
       id="b"
       overflow="visible">
      <path
         d="m 26.719,-11.656 v 2.1094 H 9.391 c 0.17578,1.7422 0.80078,3.0469 1.875,3.9219 1.082,0.86719 2.5859,1.2969 4.5156,1.2969 1.5625,0 3.1602,-0.22656 4.7969,-0.6875 1.6328,-0.46875 3.3164,-1.1719 5.0469,-2.1094 v 5.7188 c -1.75,0.65625 -3.5078,1.1523 -5.2656,1.4844 -1.75,0.34375 -3.5078,0.51562 -5.2656,0.51562 -4.1992,0 -7.4609,-1.0625 -9.7812,-3.1875 -2.3242,-2.1328 -3.4844,-5.1289 -3.4844,-8.9844 0,-3.7812 1.1406,-6.7539 3.4219,-8.9219 2.2812,-2.1758 5.4258,-3.2656 9.4375,-3.2656 3.6445,0 6.5625,1.1016 8.75,3.2969 2.1875,2.1992 3.2812,5.1367 3.2812,8.8125 z m -7.625,-2.4688 c 0,-1.4062 -0.41406,-2.5391 -1.2344,-3.4062 -0.8125,-0.86328 -1.8867,-1.2969 -3.2188,-1.2969 -1.4375,0 -2.6055,0.40625 -3.5,1.2188 -0.89844,0.80469 -1.4531,1.9648 -1.6719,3.4844 z"
         id="path8" />
    </symbol>
    <symbol
       id="e"
       overflow="visible">
      <path
         d="m 13.969,-10.438 c -1.5547,0 -2.7188,0.26562 -3.5,0.79688 -0.78125,0.52344 -1.1719,1.293 -1.1719,2.3125 0,0.9375 0.3125,1.6719 0.9375,2.2031 0.63281,0.53125 1.5078,0.79688 2.625,0.79688 1.3945,0 2.5664,-0.5 3.5156,-1.5 0.95703,-1 1.4375,-2.2539 1.4375,-3.7656 v -0.84375 z m 11.328,-2.7969 V -9e-4 h -7.4844 v -3.4375 c -0.99219,1.4062 -2.1094,2.4336 -3.3594,3.0781 -1.2422,0.63281 -2.75,0.95312 -4.5312,0.95312 -2.4062,0 -4.3594,-0.69531 -5.8594,-2.0938 -1.4922,-1.4062 -2.2344,-3.2227 -2.2344,-5.4531 0,-2.7266 0.92969,-4.7266 2.7969,-6 1.875,-1.2695 4.8125,-1.9062 8.8125,-1.9062 h 4.375 v -0.57812 c 0,-1.1641 -0.46484,-2.0195 -1.3906,-2.5625 -0.92969,-0.55078 -2.3711,-0.82812 -4.3281,-0.82812 -1.5859,0 -3.0625,0.16406 -4.4375,0.48438 -1.3672,0.3125 -2.6328,0.78906 -3.7969,1.4219 v -5.6562 c 1.582,-0.38281 3.1758,-0.67578 4.7812,-0.875 1.6016,-0.20703 3.2031,-0.3125 4.7969,-0.3125 4.1875,0 7.207,0.82812 9.0625,2.4844 1.8633,1.6484 2.7969,4.3281 2.7969,8.0469 z"
         id="path11" />
    </symbol>
    <symbol
       id="a"
       overflow="visible">
      <path
         d="m 11.656,-29.781 v 6.5781 h 7.6562 v 5.3125 H 11.656 v 9.8281 c 0,1.0859 0.21094,1.8203 0.64062,2.2031 0.4375,0.375 1.2891,0.5625 2.5625,0.5625 h 3.7969 V 2e-4 h -6.3594 c -2.9297,0 -5,-0.60938 -6.2188,-1.8281 -1.2188,-1.2266 -1.8281,-3.3047 -1.8281,-6.2344 v -9.8281 h -3.6875 v -5.3125 h 3.6875 v -6.5781 z"
         id="path14" />
    </symbol>
    <symbol
       id="d"
       overflow="visible">
      <path
         d="m 19.344,-19.797 v -12.438 h 7.4531 V -10e-4 H 19.344 v -3.3594 c -1.0234,1.3672 -2.1484,2.3672 -3.375,3 -1.2305,0.63281 -2.6523,0.95312 -4.2656,0.95312 -2.8555,0 -5.2031,-1.1328 -7.0469,-3.4062 -1.8359,-2.2695 -2.75,-5.1914 -2.75,-8.7656 0,-3.5703 0.91406,-6.4922 2.75,-8.7656 1.8438,-2.2812 4.1914,-3.4219 7.0469,-3.4219 1.6016,0 3.0195,0.32422 4.25,0.96875 1.2383,0.64844 2.3672,1.6484 3.3906,3 z m -4.8906,15.016 c 1.5938,0 2.8047,-0.57812 3.6406,-1.7344 0.83203,-1.1641 1.25,-2.8516 1.25,-5.0625 0,-2.207 -0.41797,-3.8906 -1.25,-5.0469 -0.83594,-1.1641 -2.0469,-1.75 -3.6406,-1.75 -1.5742,0 -2.7773,0.58594 -3.6094,1.75 -0.83594,1.1562 -1.25,2.8398 -1.25,5.0469 0,2.2109 0.41406,3.8984 1.25,5.0625 0.83203,1.1562 2.0352,1.7344 3.6094,1.7344 z"
         id="path17" />
    </symbol>
    <symbol
       id="i"
       overflow="visible">
      <path
         d="m 15.906,-4.7812 c 1.5938,0 2.8047,-0.57812 3.6406,-1.7344 0.83203,-1.1641 1.25,-2.8516 1.25,-5.0625 0,-2.207 -0.41797,-3.8906 -1.25,-5.0469 -0.83594,-1.1641 -2.0469,-1.75 -3.6406,-1.75 -1.5859,0 -2.8047,0.58594 -3.6562,1.75 -0.84375,1.168 -1.2656,2.8516 -1.2656,5.0469 0,2.1992 0.42188,3.8828 1.2656,5.0469 0.85156,1.168 2.0703,1.75 3.6562,1.75 z m -4.9219,-15.016 c 1.0195,-1.3516 2.1484,-2.3516 3.3906,-3 1.2383,-0.64453 2.6641,-0.96875 4.2812,-0.96875 2.8633,0 5.2109,1.1406 7.0469,3.4219 1.832,2.2734 2.75,5.1953 2.75,8.7656 0,3.5742 -0.91797,6.4961 -2.75,8.7656 -1.8359,2.2734 -4.1836,3.4062 -7.0469,3.4062 -1.6172,0 -3.043,-0.32031 -4.2812,-0.95312 -1.2422,-0.64453 -2.3711,-1.6445 -3.3906,-3 v 3.3594 H 3.5622 v -32.234 h 7.4219 z"
         id="path20" />
    </symbol>
    <symbol
       id="h"
       overflow="visible">
      <path
         d="m 0.51562,-23.203 h 7.4219 l 6.2344,15.75 5.2969,-15.75 h 7.4219 l -9.7656,25.406 c -0.98047,2.5703 -2.1211,4.375 -3.4219,5.4062 -1.3047,1.0312 -3.0273,1.5469 -5.1719,1.5469 h -4.2812 v -4.875 h 2.3125 c 1.2578,0 2.1758,-0.19922 2.75,-0.59375 0.57031,-0.39844 1.0156,-1.1172 1.3281,-2.1562 l 0.21875,-0.64062 z"
         id="path23" />
    </symbol>
    <symbol
       id="g"
       overflow="visible">
      <path
         d="M 22.656,-5.6406 H 10.187 L 8.2182,0 H 0.2026 l 11.453,-30.922 h 9.5156 L 32.6242,0 H 24.6086 Z M 12.187,-11.375 h 8.4688 l -4.2344,-12.297 z"
         id="path26" />
    </symbol>
    <symbol
       id="r"
       overflow="visible">
      <path
         d="M 26.891,-14.125 V 0 h -7.4688 v -10.812 c 0,-2 -0.04687,-3.3789 -0.14062,-4.1406 -0.08594,-0.75781 -0.23438,-1.3203 -0.45312,-1.6875 -0.29297,-0.47656 -0.6875,-0.85156 -1.1875,-1.125 -0.49219,-0.26953 -1.0547,-0.40625 -1.6875,-0.40625 -1.5547,0 -2.7734,0.60156 -3.6562,1.7969 -0.875,1.1992 -1.3125,2.8555 -1.3125,4.9688 v 11.406 h -7.4219 v -23.203 h 7.4219 v 3.4062 c 1.1133,-1.3516 2.2969,-2.3516 3.5469,-3 1.2578,-0.64453 2.6484,-0.96875 4.1719,-0.96875 2.6758,0 4.707,0.82422 6.0938,2.4688 1.3945,1.6484 2.0938,4.0391 2.0938,7.1719 z"
         id="path29" />
    </symbol>
    <symbol
       id="f"
       overflow="visible">
      <path
         d="m 3.5625,-23.203 h 7.4219 v 22.781 c 0,3.1133 -0.75,5.4883 -2.25,7.125 C 7.2422,8.3358 5.0821,9.1561 2.25,9.1561 h -3.6562 v -4.875 h 1.2812 c 1.4062,0 2.3672,-0.32031 2.8906,-0.95312 0.53125,-0.63672 0.79688,-1.8867 0.79688,-3.75 z m 0,-9.0312 h 7.4219 v 6.0469 H 3.5625 Z"
         id="path32" />
    </symbol>
    <symbol
       id="q"
       overflow="visible">
      <path
         d="m 21.688,-22.469 v 5.625 c -1.5859,-0.65625 -3.1172,-1.1484 -4.5938,-1.4844 -1.4805,-0.33203 -2.875,-0.5 -4.1875,-0.5 -1.4062,0 -2.4531,0.17969 -3.1406,0.53125 -0.6875,0.35547 -1.0312,0.89844 -1.0312,1.625 0,0.59375 0.25781,1.0547 0.78125,1.375 0.51953,0.3125 1.4453,0.54297 2.7812,0.6875 l 1.3125,0.1875 c 3.8008,0.49219 6.3516,1.2891 7.6562,2.3906 1.3125,1.1055 1.9688,2.8398 1.9688,5.2031 0,2.4688 -0.91406,4.3242 -2.7344,5.5625 -1.8242,1.2422 -4.543,1.8594 -8.1562,1.8594 -1.5312,0 -3.1172,-0.12109 -4.75,-0.35938 -1.6367,-0.23828 -3.3203,-0.59766 -5.0469,-1.0781 v -5.6406 c 1.4766,0.71875 2.9922,1.2617 4.5469,1.625 1.5508,0.35547 3.1289,0.53125 4.7344,0.53125 1.4453,0 2.5352,-0.19531 3.2656,-0.59375 0.73828,-0.40625 1.1094,-1.0039 1.1094,-1.7969 0,-0.65625 -0.25781,-1.1445 -0.76562,-1.4688 -0.5,-0.32031 -1.5078,-0.57812 -3.0156,-0.76562 l -1.2969,-0.15625 c -3.3047,-0.41406 -5.6172,-1.1797 -6.9375,-2.2969 -1.3242,-1.125 -1.9844,-2.8281 -1.9844,-5.1094 0,-2.457 0.83594,-4.2812 2.5156,-5.4688 1.6875,-1.1875 4.2695,-1.7812 7.75,-1.7812 1.3633,0 2.7969,0.10547 4.2969,0.3125 1.5078,0.21094 3.1484,0.53906 4.9219,0.98438 z"
         id="path35" />
    </symbol>
    <symbol
       id="p"
       overflow="visible">
      <path
         d="m 3.8906,-30.922 h 7.9844 v 11.281 l 11.484,-11.281 h 9.2656 L 17.7336,-16.281 34.1556,0 H 24.1712 L 11.8742,-12.188 V 0 H 3.8898 Z"
         id="path38" />
    </symbol>
    <symbol
       id="o"
       overflow="visible">
      <path
         d="m 3.5625,-23.203 h 7.4219 V 0 H 3.5625 Z m 0,-9.0312 h 7.4219 v 6.0469 H 3.5625 Z"
         id="path41" />
    </symbol>
    <symbol
       id="n"
       overflow="visible">
      <path
         d="m 25.062,-19.344 c 0.9375,-1.4375 2.0508,-2.5312 3.3438,-3.2812 1.2891,-0.75781 2.7109,-1.1406 4.2656,-1.1406 2.6562,0 4.6797,0.82422 6.0781,2.4688 1.3945,1.6484 2.0938,4.0391 2.0938,7.1719 v 14.125 h -7.4531 v -12.094 c 0.0078,-0.17578 0.01953,-0.36328 0.03125,-0.5625 0.0078,-0.19531 0.01563,-0.47266 0.01563,-0.82812 0,-1.6445 -0.24609,-2.8359 -0.73438,-3.5781 -0.48047,-0.73828 -1.2617,-1.1094 -2.3438,-1.1094 -1.4062,0 -2.4961,0.58594 -3.2656,1.75 -0.76172,1.1562 -1.1562,2.8359 -1.1875,5.0312 V -2e-5 h -7.4531 v -12.094 c 0,-2.5703 -0.22656,-4.2266 -0.67188,-4.9688 -0.4375,-0.73828 -1.2188,-1.1094 -2.3438,-1.1094 -1.4297,0 -2.5273,0.58594 -3.2969,1.75 -0.77344,1.168 -1.1562,2.8398 -1.1562,5.0156 v 11.406 h -7.4688 v -23.203 h 7.4688 v 3.4062 c 0.90625,-1.3125 1.9453,-2.3008 3.125,-2.9688 1.1875,-0.66406 2.4883,-1 3.9062,-1 1.6016,0 3.0195,0.39062 4.25,1.1719 1.2266,0.77344 2.1602,1.8555 2.7969,3.25 z"
         id="path44" />
    </symbol>
    <symbol
       id="m"
       overflow="visible">
      <path
         d="m 18.828,-32.234 v 4.875 h -4.0938 c -1.0547,0 -1.7891,0.19531 -2.2031,0.57812 -0.41797,0.375 -0.625,1.0312 -0.625,1.9688 v 1.6094 h 6.3438 v 5.3125 H 11.9061 V 8.2e-4 H 4.4999 v -17.891 H 0.8124 v -5.3125 h 3.6875 v -1.6094 c 0,-2.5312 0.70312,-4.3984 2.1094,-5.6094 1.4062,-1.207 3.5859,-1.8125 6.5469,-1.8125 z"
         id="path47" />
    </symbol>
    <symbol
       id="l"
       overflow="visible">
      <path
         d="M 26.891,-14.125 V 0 h -7.4688 v -10.766 c 0,-2.0312 -0.04687,-3.4258 -0.14062,-4.1875 -0.08594,-0.75781 -0.23438,-1.3203 -0.45312,-1.6875 -0.29297,-0.47656 -0.6875,-0.85156 -1.1875,-1.125 -0.49219,-0.26953 -1.0547,-0.40625 -1.6875,-0.40625 -1.5547,0 -2.7734,0.60156 -3.6562,1.7969 -0.875,1.1992 -1.3125,2.8555 -1.3125,4.9688 v 11.406 h -7.4219 v -32.234 h 7.4219 v 12.438 c 1.1133,-1.3516 2.2969,-2.3516 3.5469,-3 1.2578,-0.64453 2.6484,-0.96875 4.1719,-0.96875 2.6758,0 4.707,0.82422 6.0938,2.4688 1.3945,1.6484 2.0938,4.0391 2.0938,7.1719 z"
         id="path50" />
    </symbol>
    <symbol
       id="k"
       overflow="visible">
      <path
         d="m 3.8906,-30.922 h 8.9062 l 11.25,21.203 v -21.203 h 7.5625 V 0 h -8.9062 l -11.25,-21.219 V 0 H 3.8906 Z"
         id="path53" />
    </symbol>
    <symbol
       id="j"
       overflow="visible">
      <path
         d="m 3.8906,-30.922 h 13.234 c 3.9375,0 6.957,0.875 9.0625,2.625 2.1016,1.7422 3.1562,4.2266 3.1562,7.4531 0,3.25 -1.0547,5.75 -3.1562,7.5 -2.1055,1.7422 -5.125,2.6094 -9.0625,2.6094 h -5.25 V -5e-4 H 3.8902 Z m 7.9844,5.7812 v 8.625 h 4.4062 c 1.5391,0 2.7344,-0.375 3.5781,-1.125 0.8437,-0.75 1.2656,-1.8164 1.2656,-3.2031 0,-1.375 -0.42188,-2.4297 -1.2656,-3.1719 -0.84375,-0.75 -2.0391,-1.125 -3.5781,-1.125 z"
         id="path56" />
    </symbol>
  </defs>
  <g
     id="g119"
     transform="translate(-270.0931,-200.0891)">
    <path
       d="m 282.20142,200.0891 h 135.60716 c 6.68803,0 12.10832,5.42029 12.10832,12.10832 v 135.60716 c 0,6.68803 -5.42029,12.10832 -12.10832,12.10832 H 282.20142 c -6.68803,0 -12.10832,-5.42029 -12.10832,-12.10832 V 212.19742 c 0,-6.68803 5.42029,-12.10832 12.10832,-12.10832 z m 0,4.84292 c -4.01242,0 -7.2654,3.25298 -7.2654,7.2654 v 135.60716 c 0,4.01242 3.25298,7.2654 7.2654,7.2654 h 135.60716 c 4.01242,0 7.2654,-3.25298 7.2654,-7.2654 V 212.19742 c 0,-4.01242 -3.25298,-7.2654 -7.2654,-7.2654 z m 65.38197,125.92074 V 229.14525 h -12.10832 c -1.33669,0 -2.42144,-1.08363 -2.42144,-2.42144 0,-1.33669 1.08475,-2.42144 2.42144,-2.42144 h 29.05929 c 1.33669,0 2.42144,1.08475 2.42144,2.42144 0,1.33781 -1.08475,2.42144 -2.42144,2.42144 h -12.10832 v 101.70751 h 12.10832 c 1.33669,0 2.42144,1.08363 2.42144,2.42144 0,1.33669 -1.08475,2.42143 -2.42144,2.42143 h -29.05929 c -1.33669,0 -2.42144,-1.08474 -2.42144,-2.42143 0,-1.33781 1.08475,-2.42144 2.42144,-2.42144 z"
       id="path61"
       style="stroke-width:0.285399" />
  </g>
</svg>
