<?xml version="1.0" encoding="UTF-8" standalone="no"?>
<svg
   data-name="Layer 1"
   width="775.54496"
   height="674.79236"
   viewBox="0 0 775.54496 674.79236"
   version="1.1"
   id="svg105"
   sodipodi:docname="reservation.svg"
   inkscape:version="1.1.1 (1:1.1+202109281949+c3084ef5ed)"
   xmlns:inkscape="http://www.inkscape.org/namespaces/inkscape"
   xmlns:sodipodi="http://sodipodi.sourceforge.net/DTD/sodipodi-0.dtd"
   xmlns="http://www.w3.org/2000/svg"
   xmlns:svg="http://www.w3.org/2000/svg">
  <defs
     id="defs109" />
  <sodipodi:namedview
     id="namedview107"
     pagecolor="#ffffff"
     bordercolor="#666666"
     borderopacity="1.0"
     inkscape:pageshadow="2"
     inkscape:pageopacity="0.0"
     inkscape:pagecheckerboard="0"
     showgrid="false"
     inkscape:zoom="0.87708221"
     inkscape:cx="514.775"
     inkscape:cy="367.12636"
     inkscape:window-width="1920"
     inkscape:window-height="1009"
     inkscape:window-x="0"
     inkscape:window-y="34"
     inkscape:window-maximized="1"
     inkscape:current-layer="svg105" />
  <ellipse
     cx="671.87863"
     cy="666.88561"
     rx="103.66633"
     ry="7.90675"
     fill="#e6e6e6"
     id="ellipse2" />
  <path
     d="M924.27505,553.12484,914.25,581.08954a9.76236,9.76236,0,0,0,4.12995,11.64324h0a9.76236,9.76236,0,0,0,14.76113-7.2594l3.18161-28.33267L960.418,477.49244l-20.74871-10.0397Z"
     transform="translate(-212.22752 -112.60382)"
     fill="#a0616a"
     id="path4" />
  <polygon
     points="703.681 651.689 718.406 651.689 718.406 508.456 684.94 507.787 703.681 651.689"
     fill="#a0616a"
     id="polygon6" />
  <polygon
     points="638.088 651.689 652.813 651.689 652.813 508.456 619.348 507.787 638.088 651.689"
     fill="#a0616a"
     id="polygon8" />
  <path
     d="M932.97613,636.1197l-38.15086-4.01588-8.03176-42.16674-14.7249,42.83605-45.5133-4.68519,18.74077-70.94722c34.25705-23.27818,66.79346-22.76913,97.71975,0Z"
     transform="translate(-212.22752 -112.60382)"
     fill="#2f2e41"
     id="path10" />
  <path
     d="M868.29259,770.39328a11.95753,11.95753,0,0,1-13.47221,13.33221l-27.12649-3.679a9.27072,9.27072,0,0,1-7.73335-10.5695v0a9.2707,9.2707,0,0,1,9.16291-7.861H833.596l14.71508-13.40708c.1451,9.13206,6.87039,7.10423,17.98509,6.213Z"
     transform="translate(-212.22752 -112.60382)"
     fill="#2f2e41"
     id="path12" />
  <path
     d="M933.8853,770.39328a11.95753,11.95753,0,0,1-13.47221,13.33221l-27.1265-3.679a9.2707,9.2707,0,0,1-7.73334-10.5695v0a9.27071,9.27071,0,0,1,9.16291-7.861h4.47255l14.71507-13.40708c.1451,9.13206,6.87039,7.10423,17.9851,6.213Z"
     transform="translate(-212.22752 -112.60382)"
     fill="#2f2e41"
     id="path14" />
  <circle
     cx="669.37881"
     cy="256.29254"
     r="23.59329"
     fill="#a0616a"
     id="circle16" />
  <polygon
     points="699.331 295.949 669.881 298.627 669.881 272.523 685.275 263.153 699.331 295.949"
     fill="#a0616a"
     id="polygon18" />
  <path
     d="M946.36239,567.18042c-29.62732-21.69481-65.20232-19.49042-104.41288-2.67725,17.76524-50.29176,25.33252-97.16236,11.37833-136.81287a31.54561,31.54561,0,0,1,23.72756-30.56148l5.05291-1.29261,24.7646,1.33863,23.25466,13.632a31.65783,31.65783,0,0,1,15.64752,27.16726Z"
     transform="translate(-212.22752 -112.60382)"
     fill="#e6e6e6"
     id="path20"
     style="fill:#3f3d56;fill-opacity:1" />
  <path
     d="M831.90982,547.77034,821.88474,575.735a9.76236,9.76236,0,0,0,4.13,11.64324h0a9.76237,9.76237,0,0,0,14.76114-7.2594l3.1816-28.33266,24.09528-79.64829L847.304,462.09823Z"
     transform="translate(-212.22752 -112.60382)"
     fill="#a0616a"
     id="path22" />
  <path
     d="M965.77248,492.88665H932.97613v-80.3176h0A45.24572,45.24572,0,0,1,955.287,442.84237Z"
     transform="translate(-212.22752 -112.60382)"
     fill="#e6e6e6"
     id="path24"
     style="fill:#3f3d56;fill-opacity:1" />
  <path
     d="M863.61838,356.122a9.60648,9.60648,0,0,1-9.11893-.49342,7.26935,7.26935,0,0,1-2.89955-8.33307c.99479-2.55779,3.51208-4.15948,5.95457-5.41088a60.10275,60.10275,0,0,1,17.12643-5.7211c2.84362-.492,5.85491-.76251,8.54258.28859,1.32985.52009,2.52231,1.34386,3.84231,1.8884,2.42716,1.00127,5.13481,1.00564,7.70357,1.54878a18.79677,18.79677,0,0,1,12.487,9.35563,22.64874,22.64874,0,0,1,1.93281,5.07356,29.19577,29.19577,0,0,1-.047,14.69414c-2.02023,7.62607-7.16207,14.633-6.6993,22.50855-3.80167-2.21379-5.58246-6.721-8.757-9.76672a14.41072,14.41072,0,0,0-8.66126-3.923,4.581,4.581,0,0,1-2.52888-.6439,3.94665,3.94665,0,0,1-1.1-1.98867L877.81931,363.997c-.72784-2.27975-1.60692-4.75666-3.664-5.97949a9.21924,9.21924,0,0,0-4.0912-.9942,62.29294,62.29294,0,0,0-10.21473.096"
     transform="translate(-212.22752 -112.60382)"
     fill="#2f2e41"
     id="path26" />
  <path
     d="M871.3993,478.16175l-38.15086-14.72489,17.32563-46.68293a30.13619,30.13619,0,0,1,26.17972-19.57909h0Z"
     transform="translate(-212.22752 -112.60382)"
     fill="#e6e6e6"
     id="path28"
     style="fill:#3f3d56;fill-opacity:1" />
  <path
     d="M 565.44767,616.27725 H 53.472103 a 9.1742599,9.1742599 0 0 1 -9.16424,-9.16424 V 48.705299 a 9.1742599,9.1742599 0 0 1 9.16424,-9.16424 H 565.44767 a 9.1742599,9.1742599 0 0 1 9.16424,9.16424 V 607.11301 a 9.1742599,9.1742599 0 0 1 -9.16424,9.16424 z M 53.472103,43.206755 a 5.5045682,5.5045682 0 0 0 -5.498544,5.498544 V 607.11301 a 5.504556,5.504556 0 0 0 5.498544,5.49854 H 565.44767 a 5.5045437,5.5045437 0 0 0 5.49854,-5.49854 V 48.705299 a 5.504556,5.504556 0 0 0 -5.49854,-5.498544 z"
     fill="#e6e6e6"
     id="path30"
     style="stroke-width:1.2219" />
  <circle
     cx="159.12019"
     cy="235.65941"
     r="12.027174"
     fill="#e6e6e6"
     id="circle32"
     style="stroke-width:1.2219" />
  <circle
     cx="209.23343"
     cy="235.65941"
     r="12.027174"
     fill="#e6e6e6"
     id="circle34"
     style="stroke-width:1.2219" />
  <circle
     cx="259.34665"
     cy="235.65941"
     r="12.027174"
     fill="#343c5e"
     id="circle36"
     style="stroke-width:1.2219" />
  <circle
     cx="309.45987"
     cy="235.65941"
     r="12.027174"
     fill="#343c5e"
     id="circle38"
     style="stroke-width:1.2219" />
  <circle
     cx="359.57315"
     cy="235.65941"
     r="12.027174"
     fill="#343c5e"
     id="circle40"
     style="stroke-width:1.2219" />
  <circle
     cx="409.68634"
     cy="235.65941"
     r="12.027174"
     fill="#e6e6e6"
     id="circle42"
     style="stroke-width:1.2219" />
  <circle
     cx="459.79959"
     cy="235.65941"
     r="12.027174"
     fill="#e6e6e6"
     id="circle44"
     style="stroke-width:1.2219" />
  <circle
     cx="159.12019"
     cy="273.74545"
     r="12.027174"
     fill="#e6e6e6"
     id="circle46"
     style="stroke-width:1.2219" />
  <circle
     cx="209.23343"
     cy="273.74545"
     r="12.027174"
     fill="#e6e6e6"
     id="circle48"
     style="stroke-width:1.2219" />
  <circle
     cx="259.34665"
     cy="273.74545"
     r="12.027174"
     fill="#e6e6e6"
     id="circle50"
     style="stroke-width:1.2219" />
  <circle
     cx="309.45987"
     cy="273.74545"
     r="12.027174"
     fill="#e6e6e6"
     id="circle52"
     style="stroke-width:1.2219" />
  <circle
     cx="359.57315"
     cy="273.74545"
     r="12.027174"
     fill="#e6e6e6"
     id="circle54"
     style="stroke-width:1.2219" />
  <circle
     cx="409.68634"
     cy="273.74545"
     r="12.027174"
     fill="#e6e6e6"
     id="circle56"
     style="stroke-width:1.2219" />
  <circle
     cx="459.79959"
     cy="273.74545"
     r="12.027174"
     fill="#e6e6e6"
     id="circle58"
     style="stroke-width:1.2219" />
  <circle
     cx="159.12019"
     cy="311.83151"
     r="12.027174"
     fill="#343c5e"
     id="circle60"
     style="stroke-width:1.2219" />
  <circle
     cx="209.23343"
     cy="311.83151"
     r="12.027174"
     fill="#343c5e"
     id="circle62"
     style="stroke-width:1.2219" />
  <circle
     cx="259.34665"
     cy="311.83151"
     r="12.027174"
     fill="#343c5e"
     id="circle64"
     style="stroke-width:1.2219" />
  <circle
     cx="309.45987"
     cy="311.83151"
     r="12.027174"
     fill="#e6e6e6"
     id="circle66"
     style="stroke-width:1.2219" />
  <circle
     cx="359.57315"
     cy="311.83151"
     r="12.027174"
     fill="#e6e6e6"
     id="circle68"
     style="stroke-width:1.2219" />
  <circle
     cx="409.68634"
     cy="311.83151"
     r="12.027174"
     fill="#e6e6e6"
     id="circle70"
     style="stroke-width:1.2219" />
  <circle
     cx="459.79959"
     cy="311.83151"
     r="12.027174"
     fill="#e6e6e6"
     id="circle72"
     style="stroke-width:1.2219" />
  <circle
     cx="159.12019"
     cy="349.91757"
     r="12.027174"
     fill="#e6e6e6"
     id="circle74"
     style="stroke-width:1.2219" />
  <circle
     cx="209.23343"
     cy="349.91757"
     r="12.027174"
     fill="#e6e6e6"
     id="circle76"
     style="stroke-width:1.2219" />
  <circle
     cx="159.12019"
     cy="388.00363"
     r="12.027174"
     fill="#e6e6e6"
     id="circle78"
     style="stroke-width:1.2219" />
  <circle
     cx="209.23343"
     cy="388.00363"
     r="12.027174"
     fill="#e6e6e6"
     id="circle80"
     style="stroke-width:1.2219" />
  <circle
     cx="259.34665"
     cy="388.00363"
     r="12.027174"
     fill="#e6e6e6"
     id="circle82"
     style="stroke-width:1.2219" />
  <circle
     cx="259.34665"
     cy="349.91757"
     r="12.027174"
     fill="#e6e6e6"
     id="circle84"
     style="stroke-width:1.2219" />
  <circle
     cx="309.45987"
     cy="349.91757"
     r="12.027174"
     fill="#343c5e"
     id="circle86"
     style="stroke-width:1.2219" />
  <circle
     cx="359.57315"
     cy="349.91757"
     r="12.027174"
     fill="#343c5e"
     id="circle88"
     style="stroke-width:1.2219" />
  <circle
     cx="409.68634"
     cy="349.91757"
     r="12.027174"
     fill="#343c5e"
     id="circle90"
     style="stroke-width:1.2219" />
  <circle
     cx="459.79959"
     cy="349.91757"
     r="12.027174"
     fill="#e6e6e6"
     id="circle92"
     style="stroke-width:1.2219" />
  <path
     id="a332a05d-d774-4fd2-8531-ab97682a63e9-8"
     data-name="Path 40"
     d="m 218.41459,129.3486 a 7.2664239,7.2664239 0 0 0 0,14.53088 h 182.16765 a 7.2664239,7.2664239 0 1 0 0.23858,-14.53088 q -0.11929,-0.002 -0.23858,0 z"
     fill="#3f3d56"
     style="stroke-width:1.2219" />
  <path
     d="m 441.8934,127.32556 a 1.4296215,1.4296215 0 0 0 0,2.0219 l 6.13738,6.13744 h -15.13421 a 1.4296948,1.4296948 0 0 0 0,2.85939 h 15.13421 l -6.13738,6.13744 a 1.429678,1.429678 0 1 0 2.02184,2.0219 l 8.5781,-8.57809 a 1.4297437,1.4297437 0 0 0 0,-2.0219 l -8.5781,-8.57808 a 1.4296215,1.4296215 0 0 0 -2.02184,0 z"
     fill="#e6e6e6"
     id="path95"
     style="stroke-width:1.2219" />
  <path
     d="m 177.02639,127.32556 a 1.4296215,1.4296215 0 0 1 0,2.0219 l -6.13738,6.13744 h 15.13421 a 1.4296948,1.4296948 0 1 1 0,2.85939 h -15.13421 l 6.13738,6.13744 a 1.4296821,1.4296821 0 0 1 -2.02185,2.0219 l -8.57809,-8.57809 a 1.4297437,1.4297437 0 0 1 0,-2.0219 l 8.57809,-8.57808 a 1.4296215,1.4296215 0 0 1 2.02185,0 z"
     fill="#e6e6e6"
     id="path97"
     style="stroke-width:1.2219" />
  <path
     d="m 208.23116,476.79373 a 26.058884,26.058884 0 1 0 0,52.11776 h 202.45747 a 26.058884,26.058884 0 1 0 0,-52.11776 z"
     fill="#e6e6e6"
     id="path99"
     style="stroke-width:1.2219" />
  <path
     d="m 52.673874,89.351284 a 41.877499,41.877499 0 1 1 41.877499,-41.8775 41.92486,41.92486 0 0 1 -41.877499,41.8775 z"
     fill="#343c5e"
     id="path101"
     style="stroke-width:1.2219" />
  <path
     d="M 69.19761,43.342899 H 56.804881 v -12.3929 a 4.1310074,4.1310074 0 1 0 -8.262015,0 v 12.3929 h -12.3929 a 4.1309464,4.1309464 0 0 0 0,8.261892 h 12.3929 v 12.392888 a 4.1310074,4.1310074 0 0 0 8.262015,0 V 51.604791 H 69.19761 a 4.1309464,4.1309464 0 1 0 0,-8.261892 z"
     fill="#ffffff"
     id="path103"
     style="stroke-width:1.2219" />
</svg>
