<svg width="34" height="30" viewBox="0 0 34 30" fill="none" xmlns="http://www.w3.org/2000/svg">
<g clip-path="url(#clip0_744_523)">
<path d="M31.2474 19.1074C25.568 18.1062 23.8674 14.8085 23.8476 14.7689L20.5448 8.28075C20.4321 8.05853 20.18 7.94857 19.9385 8.02063C16.9557 8.91937 14.7395 8.80855 13.3522 7.6925C11.5739 6.2625 11.7337 3.57732 11.7351 3.55043C11.7446 3.41125 11.6983 3.27409 11.6063 3.16964C11.5143 3.06577 11.3844 3.00297 11.2467 2.99603C5.94739 2.7359 3.15144 8.41358 2.63408 9.57906C1.49794 10.0516 0.732426 10.7503 0.367329 11.6644C-0.212218 13.1166 0.456731 14.542 0.485484 14.6019C0.496129 14.6236 0.508192 14.645 0.521128 14.6652C3.28949 18.8235 7.86353 19.9795 8.05929 20.0272C11.0858 20.7503 13.4515 23.6792 13.895 24.259C13.9666 24.3528 14.0393 24.4454 14.1155 24.5365L14.1793 24.6129C14.9828 25.5756 15.8662 26.3513 16.8054 26.9188C19.9582 28.8242 23.1477 28.7504 23.24 28.7451C23.403 28.7524 23.5634 28.7558 23.7224 28.7558C30.8319 28.7558 33.8863 21.8889 33.9172 21.8181C33.9224 21.8062 33.9219 21.7937 33.9259 21.7816C33.9305 21.7689 33.9388 21.7587 33.9423 21.7457C34.061 21.3007 33.9972 20.8635 33.7571 20.4819C33.1244 19.4758 31.44 19.143 31.2474 19.1074ZM10.7045 4.02816C10.7428 5.02786 11.0311 7.14794 12.7016 8.4969C14.2994 9.78712 16.6935 9.99979 19.8212 9.13348L22.9262 15.2333C23.0018 15.3878 24.8384 19.0311 31.0656 20.1283C31.6129 20.2296 32.5915 20.5658 32.8867 21.0372C32.9485 21.1353 32.9638 21.2365 32.958 21.3445C31.8314 22.251 28.5376 23.0401 27.3011 23.2777C21.2708 24.6072 17.72 21.0415 16.7523 19.8879C16.3921 19.4593 16.0198 19.0169 15.6153 18.6037C14.646 17.6145 13.4935 16.6422 12.1898 15.7145C11.2314 15.0331 10.1473 14.4231 8.67482 13.7382C6.03495 12.5108 4.20432 10.5594 3.62676 9.89247C4.18503 8.70847 6.58513 4.17603 10.705 4.02817L10.7045 4.02816ZM23.2463 27.7082C23.2147 27.7142 20.2324 27.7796 17.3356 26.029C16.4944 25.5207 15.6981 24.8199 14.9682 23.9448L14.9044 23.8687C14.8386 23.7892 14.7748 23.7076 14.7112 23.6251C14.2306 22.9969 11.662 19.8212 8.29971 19.0184C8.2563 19.0076 3.95227 17.9206 1.40152 14.124C1.32592 13.9452 0.951624 12.9715 1.32649 12.0424C1.56998 11.4396 2.08855 10.9558 2.87048 10.6002C3.53052 11.3644 5.44021 13.3765 8.2425 14.6795C9.656 15.3372 10.6901 15.9176 11.595 16.5611C12.8493 17.4538 13.9549 18.3861 14.8817 19.3319C15.2586 19.7167 15.6182 20.1441 15.9891 20.5857C17.0266 21.8226 20.9239 25.7446 27.5079 24.2932C27.8655 24.2243 30.2372 23.7535 32.0592 23.0001C30.7414 24.9358 27.9396 27.9214 23.2463 27.7082Z" fill="#C86C15"/>
<path d="M18.2549 13.5208C18.3389 13.5208 18.424 13.4999 18.503 13.4565L20.0042 12.6247C20.2531 12.4864 20.3442 12.1715 20.2068 11.9204C20.0694 11.6692 19.7566 11.5787 19.5071 11.7164L18.006 12.5482C17.757 12.6866 17.6659 13.0014 17.8033 13.2525C17.8973 13.4238 18.0732 13.5208 18.2549 13.5208Z" fill="#C86C15"/>
<path d="M19.5025 16.4815C19.5962 16.6531 19.7721 16.7503 19.9544 16.7503C20.0383 16.7503 20.1234 16.7294 20.2019 16.686L21.5251 15.9537C21.7746 15.816 21.8658 15.5006 21.7284 15.2497C21.5915 14.9985 21.2776 14.9074 21.0289 15.0451L19.7057 15.7775C19.4562 15.9152 19.3651 16.2309 19.5025 16.4815Z" fill="#C86C15"/>
<path d="M3.02832 29.4815C3.02832 29.7682 3.25859 30 3.54347 30H10.3043C10.5892 30 10.8194 29.7682 10.8194 29.4815C10.8194 29.1947 10.5892 28.963 10.3043 28.963H3.54347C3.25859 28.963 3.02832 29.195 3.02832 29.4815Z" fill="#C86C15"/>
<path d="M12.5376 30H13.4633C13.7482 30 13.9784 29.7682 13.9784 29.4815C13.9784 29.1947 13.7482 28.963 13.4633 28.963H12.5376C12.2527 28.963 12.0225 29.1947 12.0225 29.4815C12.0225 29.7682 12.2527 30 12.5376 30Z" fill="#C86C15"/>
<path d="M7.92225 25.7948C7.92225 25.5081 7.69199 25.2763 7.4071 25.2763H0.646012C0.361123 25.2763 0.130859 25.5081 0.130859 25.7948C0.130859 26.0816 0.361123 26.3133 0.646012 26.3133H7.40681C7.6917 26.3133 7.92225 26.0816 7.92225 25.7948Z" fill="#C86C15"/>
<path d="M10.5658 26.3133C10.8507 26.3133 11.081 26.0816 11.081 25.7948C11.081 25.5081 10.8507 25.2763 10.5658 25.2763H9.64015C9.35526 25.2763 9.125 25.5081 9.125 25.7948C9.125 26.0816 9.35526 26.3133 9.64015 26.3133H10.5658Z" fill="#C86C15"/>
<path d="M0 0.518518C0 0.805268 0.230266 1.03704 0.515153 1.03704H7.27595C7.56083 1.03704 7.7911 0.805268 7.7911 0.518518C7.7911 0.231771 7.56083 0 7.27595 0H0.515153C0.230553 0 0 0.231771 0 0.518518Z" fill="#C86C15"/>
<path d="M9.50929 0C9.2244 0 8.99414 0.231771 8.99414 0.518518C8.99414 0.805268 9.2244 1.03704 9.50929 1.03704H10.4349C10.7198 1.03704 10.9501 0.805268 10.9501 0.518518C10.9501 0.231771 10.7198 0 10.4349 0H9.50929Z" fill="#C86C15"/>
</g>
<defs>
<clipPath id="clip0_744_523">
<rect width="34" height="30" fill="white"/>
</clipPath>
</defs>
</svg>
