<svg width="30" height="30" viewBox="0 0 30 30" fill="none" xmlns="http://www.w3.org/2000/svg">
<g clip-path="url(#clip0_744_481)">
<path d="M16.9756 8.22515C17.0926 8.34221 17.2461 8.40086 17.3999 8.40086C17.5534 8.40086 17.7071 8.34194 17.8242 8.22515C18.0588 7.99105 18.0588 7.61122 17.8242 7.37685L15.4247 4.97685C15.1997 4.75186 14.8014 4.75186 14.5764 4.97685L12.177 7.37685C11.9423 7.6115 11.9423 7.99132 12.177 8.22515C12.4116 8.4598 12.7909 8.4598 13.0253 8.22515L14.4005 6.84995V23.1514L13.0253 21.7758C12.7906 21.5411 12.4113 21.5411 12.177 21.7758C11.9423 22.0104 11.9423 22.3897 12.177 22.624L14.5764 25.0241C14.6884 25.1368 14.8416 25.1998 15.0004 25.1998C15.1595 25.1998 15.3125 25.1368 15.4247 25.0241L17.8242 22.624C18.0588 22.3894 18.0588 22.0101 17.8242 21.7758C17.5895 21.5411 17.2102 21.5411 16.9759 21.7758L15.6007 23.1514L15.6005 6.84995L16.9756 8.22515Z" fill="#C86C15"/>
<path d="M15 0C6.72892 0 0 6.72912 0 15C0 23.2709 6.72912 30 15 30C23.2709 30 30 23.2709 30 15C30 6.72912 23.2709 0 15 0ZM15 28.8C7.39063 28.8 1.2 22.6099 1.2 15C1.2 7.39063 7.3907 1.2 15 1.2C22.6101 1.2 28.8 7.3907 28.8 15C28.8 22.6101 22.6099 28.8 15 28.8Z" fill="#C86C15"/>
</g>
<defs>
<clipPath id="clip0_744_481">
<rect width="30" height="30" fill="white"/>
</clipPath>
</defs>
</svg>
