<svg width="30" height="30" viewBox="0 0 30 30" fill="none" xmlns="http://www.w3.org/2000/svg">
<g clip-path="url(#clip0_744_507)">
<path d="M15 0C6.72896 0 0 6.72948 0 14.9997C0 23.2705 6.72829 30 15 30C23.2717 30 30 23.2705 30 15.0003C30 6.73015 23.2717 0 15 0ZM15 28.4942C7.55916 28.4942 1.50578 22.4412 1.50578 15.0003C1.50578 7.55966 7.55896 1.50574 15 1.50574C22.441 1.50574 28.4942 7.55878 28.4942 14.9997C28.4942 22.4403 22.441 28.4942 15 28.4942Z" fill="#C86C15"/>
<path d="M15.7527 14.6878V6.98962C15.7527 6.57395 15.4158 6.23682 14.9999 6.23682C14.584 6.23682 14.2471 6.57397 14.2471 6.98962V15.0151C14.2468 15.2236 14.3332 15.4229 14.4858 15.5652L20.5256 21.2118C20.8294 21.4959 21.3057 21.4799 21.5896 21.1761C21.8737 20.8723 21.8577 20.396 21.5538 20.1118L15.7527 14.6878Z" fill="#C86C15"/>
</g>
<defs>
<clipPath id="clip0_744_507">
<rect width="30" height="30" fill="white"/>
</clipPath>
</defs>
</svg>
