<svg width="30" height="30" viewBox="0 0 30 30" fill="none" xmlns="http://www.w3.org/2000/svg">
<g clip-path="url(#clip0_744_468)">
<path d="M0.468427 29.9999H5.94339C6.04384 30.0002 6.14155 29.9646 6.22233 29.8984L9.86222 26.8996C10.0213 26.7684 10.0889 26.5406 10.0309 26.3302L9.75675 25.3184V23.6148L10.3216 23.4536C10.4302 23.4221 10.525 23.3482 10.5888 23.2456L12.5716 20.083C12.6695 19.9311 12.6864 19.7323 12.6161 19.5626L11.6998 17.2817C11.6186 17.1024 11.4514 16.9912 11.2708 16.9956H0.468748C0.2099 16.9956 0 17.2285 0 17.5158C0 17.803 0.2099 18.036 0.468748 18.036H10.9665L11.6533 19.7421L9.91874 22.5043L9.17105 22.7175C8.96367 22.777 8.81929 22.9846 8.81971 23.2221V25.4069C8.81992 25.458 8.82704 25.5088 8.84065 25.5576L9.03988 26.2833L5.78919 28.9596H0.46893C0.210077 28.9596 0.000181821 29.1926 0.000181821 29.4798C0.000181821 29.7671 0.210077 30 0.46893 30L0.468427 29.9999Z" fill="#C86C15"/>
<path d="M29.5302 16.9956H18.7281C18.5425 16.9953 18.3744 17.1168 18.2993 17.3051L17.3828 19.5964C17.3124 19.7662 17.3294 19.9647 17.4273 20.1166L19.4101 23.2792C19.4746 23.3823 19.5702 23.4564 19.6797 23.4873L20.2444 23.6484L20.2447 25.3183L19.968 26.3197C19.9101 26.5301 19.9777 26.7581 20.1367 26.8893L23.7766 29.8882C23.8573 29.9544 23.9551 29.9897 24.0555 29.9894H29.5305C29.7893 29.9894 29.9992 29.7565 29.9992 29.4693C29.9992 29.182 29.7893 28.9491 29.5305 28.9491H24.2102L20.9618 26.2806L21.1611 25.555C21.1747 25.5062 21.1818 25.4553 21.1822 25.4042V23.2195C21.1825 22.982 21.0378 22.7743 20.8307 22.7149L20.083 22.5017L18.3486 19.742L19.0329 18.0359H29.5307C29.7895 18.0359 29.9994 17.803 29.9994 17.5157C29.9994 17.2285 29.7895 16.9955 29.5307 16.9955L29.5302 16.9956Z" fill="#C86C15"/>
<path d="M17.0842 3.8594C18.0427 4.06202 18.9556 3.3782 19.138 2.31462C19.3206 1.25099 18.7043 0.237915 17.7459 0.0355001C16.7874 -0.167119 15.8745 0.516722 15.6921 1.5803C15.5097 2.64375 16.1258 3.65681 17.0842 3.8594Z" fill="#C86C15"/>
<path d="M17.2718 11.5786L18.0934 14.1363C18.276 14.6682 18.8008 14.9468 19.2801 14.7694C19.3029 14.7694 19.3029 14.7441 19.3257 14.7441C19.7821 14.5415 20.0104 13.9591 19.8278 13.4526L18.8692 10.4137C18.778 10.1351 18.5725 9.90729 18.2987 9.80591L16.1764 8.94492L17.2947 6.28581L17.9794 7.17225C18.1847 7.42558 18.5042 7.55205 18.8009 7.45084L20.444 6.96962C20.4896 6.96962 20.5352 6.94435 20.5581 6.91897C20.9233 6.74161 21.1287 6.28586 21.0374 5.85534C20.9233 5.37414 20.4897 5.07032 20.0333 5.19694L18.8695 5.52621L17.8653 4.23472C17.66 3.95614 17.386 3.75351 17.0665 3.6016L16.0624 3.17111C15.8798 3.09515 15.6744 3.04445 15.4691 3.01919L13.2327 2.86727C13.0044 2.842 12.7763 2.94323 12.6165 3.12059L11.2471 4.58941C10.9277 4.94395 10.9277 5.52637 11.2244 5.8809C11.5438 6.23544 12.0687 6.23545 12.3882 5.90619L13.4835 4.71594L14.2823 4.76658C13.9629 5.60228 13.6206 6.79259 13.3466 7.80548C13.1868 8.36261 13.1641 9.12239 13.6434 9.93268L12.9587 11.4522L10.6538 12.2373C10.1745 12.4146 9.87798 12.997 10.0376 13.5287C10.1975 14.0859 10.7223 14.3897 11.2015 14.2126L13.8942 13.3009C13.917 13.3009 13.9627 13.2756 13.9855 13.2756C14.1908 13.1744 14.3506 12.997 14.4648 12.7944L15.3548 10.8191L17.2718 11.5786Z" fill="#C86C15"/>
</g>
<defs>
<clipPath id="clip0_744_468">
<rect width="30" height="30" fill="white"/>
</clipPath>
</defs>
</svg>
