<svg width="17" height="18" viewBox="0 0 17 18" fill="none" xmlns="http://www.w3.org/2000/svg">
<path d="M15.1111 1.8H14.1667V0H12.2778V1.8H4.72222V0H2.83333V1.8H1.88889C0.840555 1.8 0 2.61 0 3.6V16.2C0 17.19 0.840555 18 1.88889 18H15.1111C16.15 18 17 17.19 17 16.2V3.6C17 2.61 16.15 1.8 15.1111 1.8ZM8.5 4.5C10.0678 4.5 11.3333 5.706 11.3333 7.2C11.3333 8.694 10.0678 9.9 8.5 9.9C6.93222 9.9 5.66667 8.694 5.66667 7.2C5.66667 5.706 6.93222 4.5 8.5 4.5ZM14.1667 15.3H2.83333V14.4C2.83333 12.6 6.61111 11.61 8.5 11.61C10.3889 11.61 14.1667 12.6 14.1667 14.4V15.3Z" fill="#57728F"/>
</svg>
