<svg width="17" height="17" viewBox="0 0 17 17" fill="none" xmlns="http://www.w3.org/2000/svg">
<path d="M12.104 4.896C11.1095 3.9015 9.809 3.4 8.5 3.4V8.5L4.896 12.104C6.885 14.093 10.115 14.093 12.1125 12.104C14.1015 10.115 14.1015 6.885 12.104 4.896ZM8.5 0C3.808 0 0 3.808 0 8.5C0 13.192 3.808 17 8.5 17C13.192 17 17 13.192 17 8.5C17 3.808 13.192 0 8.5 0ZM8.5 15.3C4.743 15.3 1.7 12.257 1.7 8.5C1.7 4.743 4.743 1.7 8.5 1.7C12.257 1.7 15.3 4.743 15.3 8.5C15.3 12.257 12.257 15.3 8.5 15.3Z" fill="#57728F"/>
</svg>
