<svg width="17" height="17" viewBox="0 0 17 17" fill="none" xmlns="http://www.w3.org/2000/svg">
<path d="M8.5 0C3.808 0 0 3.808 0 8.5C0 13.192 3.808 17 8.5 17C13.192 17 17 13.192 17 8.5C17 3.808 13.192 0 8.5 0ZM5.1 13.175C3.927 13.175 2.975 12.223 2.975 11.05C2.975 9.877 3.927 8.925 5.1 8.925C6.273 8.925 7.225 9.877 7.225 11.05C7.225 12.223 6.273 13.175 5.1 13.175ZM6.375 5.1C6.375 3.927 7.327 2.975 8.5 2.975C9.673 2.975 10.625 3.927 10.625 5.1C10.625 6.273 9.673 7.225 8.5 7.225C7.327 7.225 6.375 6.273 6.375 5.1ZM11.9 13.175C10.727 13.175 9.775 12.223 9.775 11.05C9.775 9.877 10.727 8.925 11.9 8.925C13.073 8.925 14.025 9.877 14.025 11.05C14.025 12.223 13.073 13.175 11.9 13.175Z" fill="#57728F"/>
</svg>
